<svg width="198" height="69" viewBox="0 0 198 69" fill="none" xmlns="http://www.w3.org/2000/svg">
<path d="M50.8884 49.6621H45.9084L45.0084 53.4121H39.4884L45.0084 36.3121H52.0584L57.3384 53.4121H51.7884L50.8884 49.6621ZM48.3684 40.0021L46.5984 46.3321H50.1684L48.4884 40.0021H48.3684ZM67.7102 39.3121C67.9702 39.3121 68.2402 39.3421 68.5202 39.4021C68.8202 39.4621 69.0402 39.5321 69.1802 39.6121C69.1802 40.0521 69.1302 40.7821 69.0302 41.8021C68.9302 42.8021 68.8402 43.5121 68.7602 43.9321C68.5602 43.9121 68.1902 43.9021 67.6502 43.9021C66.3902 43.9021 65.2702 43.9721 64.2902 44.1121V53.4121H59.1602V39.6121H63.4502L64.0502 41.8321H64.0802C64.6602 41.0721 65.2802 40.4621 65.9402 40.0021C66.6002 39.5421 67.1902 39.3121 67.7102 39.3121ZM82.7374 52.9921C81.1174 53.5321 79.3074 53.8021 77.3074 53.8021C75.0674 53.8021 73.3874 53.2421 72.2674 52.1221C71.1674 50.9821 70.6174 49.2121 70.6174 46.8121C70.6174 45.6321 70.7774 44.4721 71.0974 43.3321C71.4174 42.1721 71.7574 41.3921 72.1174 40.9921C72.5374 40.5321 73.3574 40.1421 74.5774 39.8221C75.8174 39.5021 77.0974 39.3421 78.4174 39.3421C79.7974 39.3421 81.1874 39.4621 82.5874 39.7021C82.5474 40.2021 82.4774 40.7921 82.3774 41.4721C82.2974 42.1321 82.2074 42.7221 82.1074 43.2421C80.8674 43.1621 79.6974 43.1221 78.5974 43.1221C77.5174 43.1221 76.8274 43.1821 76.5274 43.3021C76.3674 43.3621 76.2174 43.7721 76.0774 44.5321C75.9574 45.2921 75.8974 46.0021 75.8974 46.6621C75.8974 47.5421 76.0174 48.2221 76.2574 48.7021C76.5174 49.1621 76.9174 49.4821 77.4574 49.6621C77.9974 49.8421 78.7274 49.9321 79.6474 49.9321C80.0474 49.9321 80.9274 49.8921 82.2874 49.8121L82.7374 52.9921ZM98.4075 40.4821C98.5875 40.7021 98.7175 41.2521 98.7975 42.1321C98.8975 43.0121 98.9475 44.3521 98.9475 46.1521V53.4121H93.8175V46.2121C93.8175 46.1321 93.8175 45.7421 93.8175 45.0421C93.8175 44.3221 93.7675 43.8821 93.6675 43.7221C93.6075 43.6421 93.4575 43.5821 93.2175 43.5421C92.9975 43.5021 92.7375 43.4821 92.4375 43.4821L91.9275 43.5121C91.3675 43.5321 90.7875 43.6621 90.1875 43.9021V53.4121H85.0575V35.4121L90.1875 35.2021V38.7121C90.1875 40.1521 90.1375 41.1121 90.0375 41.5921L90.0675 41.6221C91.4275 40.0821 93.0575 39.3121 94.9575 39.3121C95.6775 39.3121 96.3475 39.4121 96.9675 39.6121C97.6075 39.8121 98.0875 40.1021 98.4075 40.4821ZM104.587 37.9021C103.907 37.9021 103.317 37.6721 102.817 37.2121C102.337 36.7521 102.097 36.2021 102.097 35.5621C102.097 34.9221 102.337 34.3721 102.817 33.9121C103.317 33.4521 103.907 33.2221 104.587 33.2221C105.267 33.2221 105.847 33.4521 106.327 33.9121C106.807 34.3721 107.047 34.9221 107.047 35.5621C107.047 36.2021 106.807 36.7521 106.327 37.2121C105.847 37.6721 105.267 37.9021 104.587 37.9021ZM102.007 39.6121H107.137V53.4121H102.007V39.6121ZM131.851 40.5721C132.171 41.0521 132.331 42.9121 132.331 46.1521V53.4121H127.201V46.6621V45.0421C127.201 44.3021 127.131 43.8621 126.991 43.7221C126.831 43.5621 126.491 43.4821 125.971 43.4821L125.611 43.5121C124.991 43.5521 124.401 43.6921 123.841 43.9321C123.861 44.3521 123.871 45.0921 123.871 46.1521V53.4121H118.741V46.6621V44.8621C118.741 44.2421 118.671 43.8621 118.531 43.7221C118.371 43.5621 118.031 43.4821 117.511 43.4821L117.151 43.5121C116.591 43.5321 116.011 43.6621 115.411 43.9021V53.4121H110.281V39.6121H114.451L114.991 41.8621C115.651 40.9821 116.411 40.3421 117.271 39.9421C118.131 39.5221 119.001 39.3121 119.881 39.3121C120.621 39.3121 121.321 39.4221 121.981 39.6421C122.661 39.8621 123.131 40.1721 123.391 40.5721C123.511 40.7521 123.611 41.0821 123.691 41.5621C124.331 40.7821 125.061 40.2121 125.881 39.8521C126.701 39.4921 127.521 39.3121 128.341 39.3121C129.081 39.3121 129.781 39.4221 130.441 39.6421C131.121 39.8621 131.591 40.1721 131.851 40.5721ZM143.535 53.4121L143.055 51.5221C142.135 53.0221 140.855 53.7721 139.215 53.7721C137.875 53.7721 136.775 53.4021 135.915 52.6621C135.075 51.9021 134.655 50.8421 134.655 49.4821C134.655 48.6421 134.895 47.9121 135.375 47.2921C135.875 46.6521 136.555 46.2021 137.415 45.9421C138.535 45.6221 140.265 45.4421 142.605 45.4021C142.605 44.0821 142.545 43.3821 142.425 43.3021C142.325 43.2221 142.005 43.1821 141.465 43.1821C141.125 43.1821 140.655 43.2021 140.055 43.2421C139.095 43.2821 137.795 43.3921 136.155 43.5721C135.995 42.4921 135.875 41.3321 135.795 40.0921C136.855 39.8721 137.965 39.6921 139.125 39.5521C140.285 39.3921 141.325 39.3121 142.245 39.3121C143.845 39.3121 145.045 39.5821 145.845 40.1221C146.645 40.6421 147.165 41.3321 147.405 42.1921C147.645 43.0521 147.755 44.1421 147.735 45.4621L147.705 49.8721L147.795 53.4121H143.535ZM140.955 50.4121C141.475 50.4121 142.025 50.3121 142.605 50.1121V47.8921H142.365C140.885 47.8921 140.065 47.9721 139.905 48.1321C139.805 48.2321 139.725 48.3821 139.665 48.5821C139.625 48.7821 139.605 48.9721 139.605 49.1521C139.605 49.6321 139.715 49.9621 139.935 50.1421C140.155 50.3221 140.495 50.4121 140.955 50.4121ZM157.011 47.7421C157.011 48.1021 157.021 48.4821 157.041 48.8821C157.061 49.2621 157.121 49.5021 157.221 49.6021C157.361 49.7421 157.851 49.8121 158.691 49.8121L159.711 49.7821C159.891 50.7421 159.981 51.8521 159.981 53.1121C159.601 53.2521 159.041 53.3821 158.301 53.5021C157.581 53.6221 156.891 53.6821 156.231 53.6821C154.851 53.6821 153.781 53.3821 153.021 52.7821C152.281 52.1621 151.911 51.2121 151.911 49.9321V42.5521H149.661V39.8221L151.911 39.6121L153.261 36.3121L157.011 36.1021V39.6121H160.191V42.5521H157.011V47.7421ZM173.935 52.9921C172.315 53.5321 170.505 53.8021 168.505 53.8021C166.265 53.8021 164.585 53.2421 163.465 52.1221C162.365 50.9821 161.815 49.2121 161.815 46.8121C161.815 45.6321 161.975 44.4721 162.295 43.3321C162.615 42.1721 162.955 41.3921 163.315 40.9921C163.735 40.5321 164.555 40.1421 165.775 39.8221C167.015 39.5021 168.295 39.3421 169.615 39.3421C170.995 39.3421 172.385 39.4621 173.785 39.7021C173.745 40.2021 173.675 40.7921 173.575 41.4721C173.495 42.1321 173.405 42.7221 173.305 43.2421C172.065 43.1621 170.895 43.1221 169.795 43.1221C168.715 43.1221 168.025 43.1821 167.725 43.3021C167.565 43.3621 167.415 43.7721 167.275 44.5321C167.155 45.2921 167.095 46.0021 167.095 46.6621C167.095 47.5421 167.215 48.2221 167.455 48.7021C167.715 49.1621 168.115 49.4821 168.655 49.6621C169.195 49.8421 169.925 49.9321 170.845 49.9321C171.245 49.9321 172.125 49.8921 173.485 49.8121L173.935 52.9921ZM189.605 40.4821C189.785 40.7021 189.915 41.2521 189.995 42.1321C190.095 43.0121 190.145 44.3521 190.145 46.1521V53.4121H185.015V46.2121C185.015 46.1321 185.015 45.7421 185.015 45.0421C185.015 44.3221 184.965 43.8821 184.865 43.7221C184.805 43.6421 184.655 43.5821 184.415 43.5421C184.195 43.5021 183.935 43.4821 183.635 43.4821L183.125 43.5121C182.565 43.5321 181.985 43.6621 181.385 43.9021V53.4121H176.255V35.4121L181.385 35.2021V38.7121C181.385 40.1521 181.335 41.1121 181.235 41.5921L181.265 41.6221C182.625 40.0821 184.255 39.3121 186.155 39.3121C186.875 39.3121 187.545 39.4121 188.165 39.6121C188.805 39.8121 189.285 40.1021 189.605 40.4821Z" fill="#1B2534"/>
<g clip-path="url(#clip0_2667_2893)">
<g clip-path="url(#clip1_2667_2893)">
<path d="M25.5126 21.0674L0 0V10.5346L25.5126 31.3445V21.0674Z" fill="#FC5C63"/>
<path d="M25.5126 35.5617V36.3021V42.3908V56.8237H8.56128V37.8117V36.3021V32.802V31.0348V28.5632V27.9201V21.563L25.5126 35.5617Z" fill="#FC5C63" fill-opacity="0.1"/>
<path d="M17.0317 39.1877V39.6957V46.0168V56.8234H0.0803223V40.6594V39.6957V34.3419V33.3367V32.1892V31.8596V25.189L8.556 32.1892L17.0317 39.1877Z" fill="#FC5C63"/>
</g>
</g>
<defs>
<clipPath id="clip0_2667_2893">
<rect width="25.5126" height="56.8235" fill="white"/>
</clipPath>
<clipPath id="clip1_2667_2893">
<rect width="25.5126" height="56.8235" fill="white"/>
</clipPath>
</defs>
</svg>
