<svg width="36" height="36" viewBox="0 0 36 36" fill="none" xmlns="http://www.w3.org/2000/svg">
    <rect width="35" height="35" rx="17.5" fill="#FC5C63"/>
    <path d="M23.0612 13.48L23.0614 13.48C23.2139 13.4753 23.3635 13.5191 23.4903 13.6045C23.6171 13.6898 23.7147 13.8123 23.7719 13.9547C23.829 14.097 23.8436 14.2535 23.814 14.4042C23.7845 14.5542 23.7123 14.6925 23.6054 14.8009L17.0682 21.6495C17.0681 21.6495 17.0681 21.6496 17.068 21.6497L17.068 21.6497L16.9233 21.5116C16.8726 21.5649 16.8124 21.6071 16.7461 21.636C16.6799 21.6648 16.6088 21.6797 16.537 21.6797C16.4652 21.6797 16.3941 21.6648 16.3278 21.636C16.2616 21.6071 16.2014 21.5649 16.1507 21.5116L23.0612 13.48ZM23.0612 13.48C22.8654 13.4864 22.6817 13.5719 22.5478 13.7156L16.537 20.0088L12.7061 15.9979C12.6372 15.9258 12.555 15.8681 12.4638 15.8286C12.3727 15.7891 12.2746 15.7685 12.1752 15.7685C12.0758 15.7685 11.9777 15.7891 11.8866 15.8286C11.7954 15.8681 11.7132 15.9258 11.6443 15.9979C11.5754 16.07 11.5213 16.155 11.4845 16.248C11.4477 16.341 11.4289 16.4403 11.4289 16.5405C11.4289 16.6406 11.4477 16.7399 11.4845 16.8329C11.5213 16.9259 11.5754 17.011 11.6443 17.083L16.0058 21.6495C16.0058 21.6495 16.0059 21.6496 16.006 21.6496L23.0612 13.48Z" fill="white" stroke="white" stroke-width="0.4"/>
    </svg>
    
