<svg width="23" height="30" viewBox="0 0 23 30" fill="none" xmlns="http://www.w3.org/2000/svg">
<path d="M18.5232 4.71148C17.8424 5.05776 16.8524 5.38023 16.1229 4.9741C15.9492 4.87739 15.7944 4.73417 15.7514 4.55447C15.709 4.37743 15.8113 4.15575 16.0154 4.09857C16.144 4.06253 16.3107 4.07817 16.4457 4.06178C16.5823 4.04517 16.7181 4.02248 16.8522 3.99348C17.8652 3.77439 18.8005 3.15725 19.2393 2.2947C19.3072 2.16128 19.3462 2.01577 19.4004 1.87648C19.4632 2.13065 19.526 2.38489 19.5888 2.63906C19.9506 2.46981 20.237 2.17396 20.3737 1.82812C20.3565 1.87144 20.3869 1.96726 20.3888 2.01495C20.3917 2.08874 20.3912 2.16261 20.387 2.23634C20.3793 2.37814 20.3586 2.51935 20.3256 2.65819C20.1149 3.54381 19.3836 4.27382 18.5232 4.71148Z" fill="#FFAA00"/>
<path d="M18.5243 4.71335C17.8435 5.05963 16.8534 5.3821 16.124 4.97597C15.9502 4.87926 15.7955 4.73604 15.7525 4.55634C15.7101 4.3793 15.8124 4.15762 16.0164 4.10044C16.1451 4.06439 16.3118 4.08004 16.4467 4.06365C16.5834 4.04704 16.7192 4.02434 16.8533 3.99534C17.1642 3.92674 17.4646 3.82439 17.7468 3.68807C17.8981 3.61502 18.0434 3.53618 18.1946 3.4638C17.9501 3.72048 17.6351 3.92244 17.2857 4.04659C17.5395 4.08227 17.8014 4.04348 18.042 3.96241C18.2825 3.88135 18.5035 3.75942 18.7133 3.626C18.6046 3.79799 18.4454 3.94387 18.2564 4.04489C18.4963 3.95455 18.7226 3.83492 18.927 3.69023C19.1086 3.5617 19.2759 3.41003 19.378 3.2235C19.2834 3.42397 19.1885 3.62518 19.0635 3.81163C18.9384 3.99801 18.7812 4.17045 18.5818 4.29364C18.64 4.25767 18.7212 4.23831 18.7845 4.2085C18.8533 4.17609 18.9204 4.14071 18.9855 4.10251C19.1111 4.02894 19.2168 3.94002 19.3315 3.85576C19.5569 3.69023 19.7586 3.49843 19.9293 3.28647C20.0762 3.10424 20.2001 2.90703 20.2965 2.69922C20.3054 2.90184 20.1668 3.13576 20.0659 3.31287C19.9518 3.51312 19.8113 3.70083 19.6515 3.87379C19.3381 4.2131 18.9507 4.49648 18.5243 4.71335Z" fill="#FF8500"/>
<path d="M12.683 2.77473C12.428 3.16774 12.1865 3.56846 11.9243 3.95753C11.7453 4.22312 11.5341 4.53247 11.9493 4.73234C12.1082 4.80881 12.2939 4.82208 12.4736 4.83388C13.1585 4.87875 13.8469 4.95721 14.5304 4.9142C15.3867 4.86035 16.2529 4.63304 16.9127 4.13879C17.5726 3.64455 17.9921 2.85446 17.8519 2.09225C17.7556 1.56842 17.3978 1.08975 16.9 0.804657C16.4023 0.519563 15.7733 0.430267 15.1998 0.55494C14.6122 0.682728 14.1019 1.02056 13.6988 1.42602C13.2957 1.83156 12.9879 2.30489 12.683 2.77473Z" fill="#FFE600"/>
<path d="M15.6705 0.811364C15.7389 0.798608 15.8081 0.788595 15.8777 0.781401C16.379 0.729707 16.9103 0.837841 17.3008 1.12531C16.9922 0.898138 16.7462 0.691141 16.3509 0.582933C15.9814 0.48177 15.5766 0.473834 15.2014 0.555417C14.6137 0.683205 14.1035 1.02103 13.7003 1.4265C13.2972 1.83196 12.9894 2.30536 12.6845 2.77513C12.5396 2.9983 12.3994 3.22384 12.257 3.44834C12.1858 3.56055 12.1143 3.67262 12.0413 3.78394C11.9955 3.85388 11.886 3.95111 11.9307 4.03833C11.9155 4.00874 12.118 3.77586 12.1437 3.73981C12.2189 3.6342 12.2942 3.52866 12.371 3.42401C12.5204 3.22072 12.6745 3.01855 12.8447 2.8289C13.5755 2.01508 14.4732 1.03423 15.6705 0.811364Z" fill="#FFE888"/>
<path d="M15.9905 1.5574C16.2371 1.58068 16.4759 1.66538 16.6691 1.80852C16.981 2.03933 16.9291 2.57258 16.8066 2.88237C16.6699 3.22813 16.3974 3.52057 16.0794 3.75019C15.6394 4.06784 15.1028 4.26557 14.5459 4.33736C14.2639 4.3737 13.977 4.3783 13.6936 4.35249C13.5954 4.34352 12.9011 4.28441 13.0245 4.12273C13.0863 4.04151 13.2127 3.98581 13.2897 3.91454C13.3992 3.81338 13.5032 3.70754 13.6014 3.59748C13.7903 3.38581 13.9576 3.15857 14.1003 2.91938C14.2158 2.72566 14.3155 2.52393 14.4466 2.33836C14.699 1.98103 15.0822 1.684 15.5393 1.58417C15.6869 1.55183 15.8402 1.54316 15.9905 1.5574Z" fill="#FFAA00"/>
<path d="M16.0931 1.96358C16.3399 2.08373 16.4961 2.34027 16.4757 2.59214C16.4267 2.3336 16.1988 2.10977 15.9169 2.04331C15.635 1.97686 15.3145 2.07135 15.1309 2.27508C15.3623 2.11718 15.6721 2.05614 15.9557 2.11266C15.6258 2.06608 15.3033 2.23392 15.0592 2.43899C14.7281 2.71719 14.5393 3.06962 14.3226 3.42161C14.6908 3.12947 15.0507 2.82873 15.4017 2.5199C15.0888 3.09699 14.5818 3.58745 13.9649 3.91007C14.5377 4.05432 15.1726 3.98661 15.6921 3.72584C15.4941 3.82552 15.2977 3.94308 15.0917 4.02814C14.9034 4.10587 14.6713 4.12093 14.4682 4.15348C14.1205 4.20926 13.7702 4.25168 13.4185 4.28061C13.3323 4.28773 12.8933 4.29218 13.0241 4.12056C13.086 4.03934 13.2124 3.98365 13.2894 3.91237C13.3988 3.81121 13.5028 3.70537 13.6011 3.59531C13.7899 3.38364 13.9573 3.1564 14.1 2.91721C14.2155 2.72349 14.3152 2.52176 14.4463 2.33619C14.7584 1.89439 15.308 1.52437 15.915 1.57495C16.1595 1.59535 16.3965 1.68168 16.5889 1.81889C16.7933 1.9647 16.8396 2.13431 16.8945 2.35325C16.8252 2.07639 16.5529 1.85041 16.2406 1.81058C16.4465 1.9199 16.6036 2.10153 16.6707 2.30794C16.738 2.51442 16.7146 2.74351 16.6068 2.9356C16.6926 2.74878 16.6863 2.5294 16.5898 2.34687C16.4933 2.16435 16.3083 2.02158 16.0931 1.96358Z" fill="#FF8500"/>
<g opacity="0.4">
<path d="M11.9912 25.5036L20.4492 24.0448L11.9912 22.5859L3.53309 24.0448L11.9912 25.5036Z" fill="#344054"/>
</g>
<path d="M11.9951 22.2716L20.4531 20.4937V11.6328L11.9951 12.7608V22.2716Z" fill="#FF6D73"/>
<path d="M11.9951 12.7599L20.4531 11.6319L11.9951 10.5039L3.537 11.6319L11.9951 12.7599Z" fill="#F24646"/>
<path d="M11.9961 12.7608V22.2716L3.53803 20.4937V11.6328L11.9961 12.7608Z" fill="#FC5C63"/>
<path d="M19.4531 11.6308L11.9998 10.6367L4.54649 11.6308L11.9998 12.6247L19.4531 11.6308Z" fill="#C11414"/>
<path d="M11.9961 12.6247L4.54282 11.6308L11.9961 10.6367V12.6247Z" fill="#E2575E"/>
<path d="M6.48462 2.82253C7.21804 3.06684 8.13094 3.5389 8.25744 4.30244C8.28752 4.4843 8.26601 4.68314 8.14133 4.82873C8.01846 4.97216 7.7644 5.04499 7.58409 4.94168C7.47045 4.87656 7.3761 4.75189 7.27499 4.66971C7.17264 4.5865 7.06576 4.50788 6.95451 4.43446C6.11445 3.87977 4.98696 3.63554 3.9718 3.89104C3.81473 3.93057 3.66615 3.99769 3.51296 4.05035C3.68807 3.84306 3.86318 3.63576 4.0383 3.42847C3.66104 3.28911 3.22511 3.28333 2.84348 3.41275C2.89128 3.39658 2.953 3.31388 2.99223 3.2817C3.05288 3.232 3.116 3.18476 3.1811 3.13989C3.30644 3.05371 3.43953 2.97665 3.57863 2.90975C4.46624 2.4827 5.55779 2.51385 6.48462 2.82253Z" fill="#FFAA00"/>
<path d="M6.48462 2.82263C7.21804 3.06694 8.13094 3.539 8.25744 4.30254C8.28752 4.4844 8.26601 4.68324 8.14133 4.82882C8.01846 4.97226 7.7644 5.04509 7.58409 4.94178C7.47045 4.87666 7.3761 4.75199 7.27499 4.66981C7.17264 4.5866 7.06576 4.50798 6.95451 4.43456C6.45372 4.10385 5.86311 3.89196 5.24893 3.81475C4.9568 3.77804 4.64102 3.77099 4.3498 3.81816C4.21506 3.83997 4.08387 3.87557 3.95161 3.90679C3.88939 3.92148 3.82552 3.9309 3.76693 3.95396C3.70092 3.97992 3.63467 4.00528 3.56858 4.03102C3.67851 3.92986 3.81712 3.87616 3.96454 3.83537C4.1268 3.7905 4.29236 3.75601 4.45898 3.72746C4.46904 3.72575 4.47901 3.72405 4.48906 3.72242C4.62001 3.70054 4.75178 3.68237 4.88371 3.66627C4.94749 3.65848 5.01144 3.64981 5.07547 3.6441C5.10695 3.64128 5.16504 3.62763 5.19364 3.64187C5.04827 3.56956 4.88412 3.52825 4.71823 3.52202C5.05964 3.50303 5.40172 3.53433 5.74197 3.56563C5.86731 3.57712 5.99257 3.58869 6.11783 3.60019C6.12261 3.55895 6.10086 3.51801 6.06929 3.4879C6.03765 3.45779 5.99694 3.43688 5.95615 3.41767C5.77625 3.33304 5.5821 3.27289 5.38243 3.23996C5.73785 3.27942 6.08751 3.36078 6.41961 3.48138C6.44153 3.48931 6.46402 3.49754 6.48767 3.49762C6.51132 3.49762 6.53662 3.48738 6.5456 3.46773C6.55689 3.44303 6.53934 3.41574 6.52096 3.39482C6.4257 3.28602 6.29089 3.20978 6.14824 3.15771C6.00568 3.10572 5.85438 3.07628 5.7039 3.04713C5.48214 3.00412 5.26031 2.9611 5.03855 2.91808C5.35087 2.90325 5.66904 2.88894 5.97164 2.95991C6.09665 2.98921 6.21688 3.03267 6.33679 3.07598C6.39159 3.09579 6.44639 3.11559 6.50119 3.13539C6.50316 3.02251 6.42603 2.97096 6.34684 2.89939C6.26847 2.82849 6.19216 2.76782 6.09064 2.72266C6.14783 2.74817 6.23196 2.73905 6.2936 2.75722C6.35673 2.77561 6.4215 2.80164 6.48462 2.82263Z" fill="#FF8500"/>
<path d="M10.9462 2.83386C11.2221 3.11792 11.4881 3.41013 11.769 3.69004C11.9607 3.88109 12.1863 4.10322 11.883 4.32423C11.767 4.40878 11.6181 4.44572 11.4739 4.48057C10.9242 4.61333 10.3775 4.77397 9.81356 4.83501C9.10717 4.91155 8.3627 4.84814 7.73996 4.53857C7.11721 4.229 6.63859 3.6448 6.62046 3.00467C6.60802 2.56472 6.81618 2.12484 7.17193 1.82283C7.52759 1.52083 8.0241 1.35974 8.51252 1.38073C9.01298 1.40216 9.48698 1.60545 9.88541 1.87883C10.2838 2.15228 10.6165 2.49433 10.9462 2.83386Z" fill="#FFE600"/>
<path d="M8.17449 1.65499C8.11656 1.65425 8.05863 1.65573 8.0007 1.65967C7.58372 1.688 7.17004 1.85072 6.90197 2.13959C7.11375 1.91138 7.27807 1.70832 7.58108 1.56466C7.86432 1.43034 8.19246 1.36708 8.51195 1.38073C9.0124 1.40216 9.48641 1.60545 9.88484 1.87883C10.2833 2.1522 10.616 2.49433 10.9457 2.83386C11.1023 2.99517 11.2556 3.15908 11.4104 3.3218C11.4878 3.40316 11.5655 3.4843 11.6442 3.56462C11.6937 3.61505 11.7997 3.67884 11.7785 3.75612C11.7856 3.72994 11.5804 3.56885 11.5533 3.54304C11.4738 3.46761 11.3942 3.39226 11.3134 3.31794C11.1565 3.17347 10.9962 3.03055 10.8246 2.90009C10.0886 2.34044 9.18777 1.66812 8.17449 1.65499Z" fill="#FFE888"/>
<path d="M8.04333 2.30844C7.84663 2.36199 7.66706 2.46456 7.53455 2.60815C7.32079 2.83984 7.45552 3.26659 7.60896 3.50155C7.78021 3.7638 8.05273 3.96353 8.35145 4.10578C8.76472 4.30255 9.23567 4.38813 9.70152 4.36826C9.93737 4.35817 10.1716 4.32161 10.3979 4.26079C10.4762 4.23973 11.0311 4.09406 10.9027 3.9797C10.8382 3.9223 10.7258 3.89471 10.6506 3.84746C10.544 3.78049 10.441 3.70899 10.3419 3.6332C10.1515 3.48746 9.97585 3.326 9.81821 3.15134C9.69056 3.00991 9.57437 2.85964 9.43551 2.72711C9.16802 2.47176 8.80477 2.28382 8.41523 2.26676C8.28948 2.26127 8.16323 2.27574 8.04333 2.30844Z" fill="#FFAA00"/>
<path d="M8.03056 2.65465C7.8505 2.78711 7.76793 3.01784 7.82817 3.22002C7.82323 3.00271 7.96991 2.78844 8.18788 2.69477C8.40576 2.6011 8.68314 2.63299 8.8679 2.77294C8.65216 2.6769 8.38936 2.67082 8.16835 2.75663C8.42875 2.67237 8.72047 2.76367 8.95467 2.89628C9.27243 3.07621 9.48727 3.33653 9.72468 3.59263C9.37429 3.40654 9.02925 3.2123 8.68998 3.01027C9.04483 3.43606 9.54248 3.76402 10.1006 3.93995C9.65941 4.1379 9.13086 4.17194 8.66279 4.03273C8.8412 4.08605 9.02142 4.15414 9.20387 4.19441C9.37058 4.2312 9.56217 4.21087 9.73317 4.20887C10.0259 4.20539 10.3184 4.1907 10.6097 4.16482C10.6812 4.15844 11.0392 4.10044 10.9029 3.97911C10.8384 3.9217 10.726 3.89411 10.6508 3.84687C10.5442 3.7799 10.4412 3.7084 10.3422 3.6326C10.1517 3.48687 9.9761 3.32541 9.81846 3.15074C9.69081 3.00931 9.57462 2.85912 9.43576 2.72651C9.10506 2.41079 8.59348 2.18681 8.10827 2.31326C7.9128 2.36421 7.7348 2.46782 7.60205 2.60651C7.46097 2.75396 7.45264 2.89851 7.44597 3.08444C7.45437 2.84933 7.63682 2.62713 7.88404 2.55082C7.73547 2.66874 7.63913 2.83858 7.62026 3.01613C7.60139 3.19361 7.66014 3.37688 7.78112 3.51801C7.67885 3.37799 7.64597 3.19858 7.69286 3.03638C7.73975 2.87418 7.86542 2.73208 8.03056 2.65465Z" fill="#FF8500"/>
<path d="M12.0029 3.83594L20.4609 5.32356V6.71736L12.0029 5.58937V3.83594Z" fill="#ED373F"/>
<path d="M17.7678 4.98828L20.2461 5.44485V6.5807C20.2461 6.5807 19.9803 5.50144 17.7678 4.98828Z" fill="#ED373F"/>
<path d="M12.0029 5.58984L20.4609 6.71784L12.0029 7.84583L3.54481 6.71784L12.0029 5.58984Z" fill="#8C0D0D"/>
<path d="M12.0023 5.71484L19.5234 6.71786L12.0023 7.72089L4.48124 6.71786L12.0023 5.71484Z" fill="#701216"/>
<path d="M12.0023 7.71982V6.7168L15.4963 6.17969L19.5234 6.7168L12.0023 7.71982Z" fill="#C11414"/>
<path d="M12.0039 7.71982V6.7168L8.50994 6.17969L4.48281 6.7168L12.0039 7.71982Z" fill="#E2575E"/>
<path d="M12.0039 5.58937V3.83594L3.54584 5.32356V6.71736L12.0039 5.58937Z" fill="#FC5C63"/>
<path d="M9.01172 12.2309L8.51893 12.1629L2.87275 8.34766L9.01172 12.2309Z" fill="url(#paint0_radial_3054_48013)"/>
<path d="M7.49219 12.0216L6.96314 11.9485L2.09438 9.44922L7.49219 12.0216Z" fill="url(#paint1_radial_3054_48013)"/>
<path d="M8.33984 12.1396L7.99843 12.0925L4.40237 9.94141L8.33984 12.1396Z" fill="url(#paint2_radial_3054_48013)"/>
<path d="M4.25781 11.5742L3.93634 11.568L1.47823 10.6289L4.25781 11.5742Z" fill="url(#paint3_radial_3054_48013)"/>
<path d="M6.24219 11.8478L5.97206 11.8105L3.83533 10.8555L6.24219 11.8478Z" fill="url(#paint4_radial_3054_48013)"/>
<path d="M9.44163 12.2676L3.79405 7.3422L9.90739 12.3488L5.8918 8.33365L9.76772 11.9728L4.85067 6.44924L10.2185 12.1059L6.79374 7.66949L10.1324 11.7172L6.02324 5.68244L10.561 11.9L7.78114 7.11228L10.5297 11.5046L7.29337 5.05403L10.9295 11.7345L8.83825 6.67085L10.9535 11.3386L8.64097 4.5738L11.3182 11.6117L9.94852 6.35216L11.3971 11.2218L10.0448 4.2494L11.7208 11.5338L11.0945 6.16125L11.8534 11.1557L11.4828 4.08594L12.1312 11.502L12.258 6.10103L12.3154 11.1419L12.9323 4.08594L12.5428 11.5166L13.4206 6.1726L12.7756 11.1801L14.3702 4.2494L12.949 11.5775L14.5641 6.3747L13.2269 11.27L15.7741 4.5738L13.3436 11.6839L15.6705 6.70422L13.6622 11.4101L17.1218 5.05403L13.7203 11.8338L16.7223 7.15597L14.0744 11.5981L18.3919 5.68244L14.0731 12.0251L17.7028 7.72274L14.4572 11.8312L19.5645 6.44924L14.3965 12.2547L18.5968 8.39573L14.8046 12.1057L20.6211 7.3422L14.9905 12.2527L12.0006 12.6435L9.15016 12.25L5.0894 9.0943L9.44163 12.2676Z" fill="url(#paint5_radial_3054_48013)"/>
<path d="M17.5 11.9256L16.987 11.9927L22.3242 9.44922L17.5 11.9256Z" fill="url(#paint6_radial_3054_48013)"/>
<path d="M18.7274 11.7644L18.4854 11.796L20.6289 10.9375L18.7274 11.7644Z" fill="url(#paint7_radial_3054_48013)"/>
<path d="M20.5252 11.5297L20.1481 11.5789L22.9414 10.6289L20.5252 11.5297Z" fill="url(#paint8_radial_3054_48013)"/>
<path d="M15.3979 12.1995L15.0746 12.2417L19.3906 9.16406L15.3979 12.1995Z" fill="url(#paint9_radial_3054_48013)"/>
<path d="M16.6021 12.0418L16.2725 12.0849L20.0703 10.0156L16.6021 12.0418Z" fill="url(#paint10_radial_3054_48013)"/>
<path d="M15.9529 12.1276L15.4719 12.1904L21.5469 8.34766L15.9529 12.1276Z" fill="url(#paint11_radial_3054_48013)"/>
<path d="M17.2741 5.66373C17.3247 6.07357 17.1557 6.47622 17.0847 6.88361C16.9297 7.77412 17.2749 8.7236 17.9849 9.35935C18.2012 8.8812 18.4175 8.40312 18.6339 7.92497C18.6226 7.94982 18.9158 8.14636 18.9482 8.16935C19.2543 8.38688 19.659 8.68206 20.0547 8.73954C19.9697 8.72693 19.8741 8.51259 19.8301 8.45015C19.6314 8.16809 19.4463 7.87803 19.2883 7.5761C19.0698 7.15839 18.9331 6.71985 18.9239 6.25572C18.9163 5.8748 18.9537 5.47994 18.8091 5.1143C18.4305 4.15652 17.2017 4.07924 16.2817 4.37628C16.1356 4.42345 15.9962 4.4836 15.8424 4.50911C16.0271 4.55339 16.2195 4.56243 16.3991 4.62978C16.8646 4.80422 17.2182 5.21072 17.2741 5.66373Z" fill="#FFE600"/>
<path d="M18.1611 4.94836C18.2212 5.00948 18.2766 5.07437 18.3265 5.1426C18.273 4.91098 18.1238 4.69835 17.9144 4.55543C18.1692 4.69561 18.3449 4.93427 18.4341 5.19074C18.5042 5.39225 18.5247 5.60503 18.5191 5.81536C18.5177 5.86483 18.5067 5.91868 18.5144 5.96778C18.5203 6.00464 18.53 6.03482 18.5292 6.07331C18.5273 6.16713 18.5339 6.30353 18.4927 6.39097C18.721 5.90651 18.744 5.34634 18.5561 4.84802C18.6259 4.93027 18.6958 5.01259 18.7656 5.09484C18.7434 5.06859 18.7399 5.00006 18.7269 4.96705C18.711 4.92686 18.6918 4.88777 18.6695 4.85009C18.3365 4.28777 17.3634 4.07209 16.7499 4.34272C16.9383 4.30675 17.1222 4.29548 17.3138 4.31365C17.41 4.32277 17.5055 4.33738 17.5997 4.35733C17.6867 4.3758 17.7716 4.41096 17.8583 4.42698C17.5875 4.37691 17.3091 4.35978 17.0332 4.37625C17.4664 4.44537 17.8697 4.65237 18.1611 4.94836Z" fill="#FFE888"/>
<path d="M17.2786 5.66103C17.2801 5.66585 17.2817 5.67067 17.2833 5.67542C17.3554 5.26291 17.1348 4.82081 16.7444 4.59519C16.6545 4.5432 16.5456 4.48773 16.5329 4.39227C16.6879 4.33576 16.8429 4.27917 16.9978 4.22266C16.7617 4.23489 16.5059 4.30231 16.283 4.37433C16.1369 4.4215 15.9975 4.48164 15.8437 4.50716C16.0285 4.55143 16.2208 4.56048 16.4004 4.62783C16.633 4.71504 16.8374 4.86004 16.9907 5.03952C17.0697 5.13201 17.1354 5.23391 17.1844 5.34197C17.2317 5.44662 17.2447 5.55498 17.2786 5.66103Z" fill="#FFAA00"/>
<path d="M17.3044 6.00103C17.3075 6.02566 17.3359 6.11985 17.3218 6.13906C17.6157 5.72336 17.5919 5.14501 17.2646 4.75C17.5814 5.09554 17.7341 5.55908 17.6776 6.00415C17.6328 6.35636 17.4657 6.68581 17.3779 7.03135C17.3101 7.2979 17.3392 7.57855 17.4335 7.83687C17.5006 8.02065 17.7222 8.27934 17.9765 8.1741C18.1152 8.11669 18.1606 7.96258 18.1898 7.82767C18.2798 7.4136 18.3697 6.9996 18.4597 6.58561C18.4431 6.90163 18.5345 7.22158 18.7185 7.49118C18.6839 7.44052 18.7012 7.29167 18.6975 7.22811C18.6918 7.12747 18.6886 7.0266 18.6889 6.92581C18.6894 6.72519 18.7031 6.5245 18.7339 6.32573C18.764 6.13105 18.8185 5.94541 18.8289 5.74879C18.8397 5.54476 18.8291 5.33977 18.7969 5.13759C18.8098 5.15576 18.8226 5.17386 18.8355 5.19203C18.9466 5.53527 18.9168 5.90061 18.9239 6.25431C18.9331 6.71837 19.0698 7.15699 19.2883 7.57469C19.4463 7.87669 19.6314 8.16668 19.8301 8.44874C19.8741 8.51118 19.9697 8.72552 20.0547 8.73813C19.659 8.68065 19.2543 8.38547 18.9482 8.16794C18.9158 8.14495 18.6227 7.94841 18.6339 7.92356C18.4234 8.39229 18.1967 8.85761 18.0103 9.33361C17.9906 9.38389 17.9438 9.31796 17.9236 9.29786C17.7447 9.11949 17.5757 8.92073 17.4478 8.70943C17.3099 8.48181 17.2057 8.23766 17.1383 7.98557C17.0898 7.80416 17.0604 7.61867 17.0512 7.43229C17.0467 7.33914 17.0472 7.24584 17.0529 7.15268C17.0585 7.06346 17.0847 6.97075 17.0847 6.88213C17.1385 6.573 17.2483 6.26655 17.2763 5.95757C17.2848 5.9328 17.2926 5.90781 17.2992 5.88252C17.3023 5.92279 17.2993 5.96076 17.3044 6.00103Z" fill="#FFAA00"/>
<path d="M6.82217 5.64036C6.77157 6.0502 6.94059 6.45285 7.01154 6.86025C7.16663 7.75076 6.82135 8.70023 6.11141 9.33598C5.8951 8.85784 5.67878 8.37976 5.46238 7.90161C5.47367 7.92646 5.18047 8.123 5.14808 8.14599C4.84202 8.36352 4.43732 8.6587 4.0416 8.7161C4.12657 8.7035 4.22216 8.48916 4.26616 8.42671C4.46485 8.14465 4.65001 7.85459 4.80799 7.55266C5.02645 7.13496 5.16316 6.69641 5.17239 6.23228C5.17997 5.85137 5.14256 5.45651 5.28718 5.09087C5.66584 4.13309 6.89461 4.05581 7.8146 4.35284C7.9607 4.40001 8.10014 4.46016 8.25391 4.48567C8.06915 4.52995 7.87673 4.539 7.69717 4.60634C7.23173 4.78085 6.87804 5.18736 6.82217 5.64036Z" fill="#FFE600"/>
<path d="M5.93636 4.92493C5.8762 4.98604 5.82082 5.05093 5.77097 5.11917C5.82445 4.88755 5.97369 4.67491 6.18308 4.53199C5.92828 4.67217 5.75259 4.91083 5.66334 5.1673C5.59321 5.36881 5.5727 5.58159 5.57838 5.79193C5.5797 5.8414 5.59074 5.89524 5.583 5.94434C5.57715 5.9812 5.56742 6.01138 5.56825 6.04988C5.57014 6.1437 5.56355 6.28009 5.60475 6.36753C5.37649 5.88308 5.35341 5.3229 5.54138 4.82458C5.4715 4.90683 5.4017 4.98915 5.33191 5.0714C5.35416 5.04515 5.35761 4.97662 5.37063 4.94362C5.38654 4.90342 5.40574 4.86433 5.42807 4.82666C5.76108 4.26433 6.73414 4.04865 7.34766 4.31929C7.15927 4.28332 6.97534 4.27204 6.78375 4.29021C6.68758 4.29934 6.59199 4.31395 6.49788 4.3339C6.41086 4.35236 6.32598 4.38752 6.2392 4.40354C6.51007 4.35348 6.78836 4.33634 7.06434 4.35281C6.63105 4.42193 6.22775 4.62886 5.93636 4.92493Z" fill="#FFE888"/>
<path d="M6.81896 5.6376C6.81739 5.64242 6.81583 5.64724 6.81426 5.65198C6.74224 5.23947 6.96284 4.79737 7.3532 4.57175C7.44311 4.51976 7.55197 4.46429 7.56474 4.36884C7.40973 4.31232 7.25472 4.25573 7.0998 4.19922C7.33589 4.21146 7.59169 4.27887 7.8146 4.35089C7.9607 4.39806 8.10014 4.45821 8.25391 4.48372C8.06915 4.528 7.87673 4.53704 7.69717 4.60439C7.46461 4.69161 7.26025 4.8366 7.10689 5.01608C7.02786 5.10857 6.96218 5.21047 6.91331 5.31853C6.86585 5.42318 6.85283 5.53154 6.81896 5.6376Z" fill="#FFAA00"/>
<path d="M6.79051 5.97767C6.78746 6.00229 6.75895 6.09648 6.77321 6.11569C6.47926 5.69999 6.50308 5.12165 6.83032 4.72656C6.51346 5.0721 6.36085 5.53564 6.41738 5.98071C6.46204 6.33285 6.62924 6.66237 6.71709 7.00791C6.78483 7.27446 6.75582 7.55511 6.66155 7.81343C6.59447 7.99721 6.37279 8.2559 6.11857 8.15066C5.97988 8.09326 5.93447 7.93914 5.90522 7.80423C5.81523 7.39016 5.72533 6.97617 5.63534 6.56217C5.6519 6.87819 5.56051 7.19815 5.37658 7.46774C5.41111 7.41708 5.39389 7.26823 5.39751 7.20467C5.40328 7.10403 5.40641 7.00316 5.40616 6.90237C5.40567 6.70175 5.39199 6.50106 5.36117 6.30229C5.33101 6.10761 5.27654 5.92197 5.26616 5.72536C5.25536 5.52133 5.26591 5.31633 5.29813 5.11415C5.28527 5.13232 5.27242 5.15042 5.25956 5.16859C5.1484 5.51183 5.17823 5.87717 5.17114 6.23087C5.16191 6.69493 5.02528 7.13355 4.80674 7.55125C4.64876 7.85325 4.46368 8.14324 4.26491 8.4253C4.22091 8.48775 4.12532 8.70209 4.04036 8.71469C4.43607 8.65722 4.84077 8.36203 5.14683 8.14451C5.17922 8.12151 5.47234 7.92497 5.46113 7.90013C5.67168 8.36886 5.8983 8.83417 6.0847 9.31017C6.1044 9.36046 6.1512 9.29452 6.17139 9.27443C6.35038 9.09606 6.51932 8.89729 6.64729 8.68599C6.78516 8.45838 6.88932 8.21422 6.95673 7.96213C7.00527 7.78072 7.03469 7.59523 7.04383 7.40885C7.04836 7.3157 7.04787 7.2224 7.0421 7.12925C7.03658 7.04002 7.01037 6.94732 7.01037 6.85869C6.95656 6.54956 6.84663 6.24311 6.8187 5.93413C6.81021 5.90936 6.80246 5.88437 6.79587 5.85908C6.79266 5.89942 6.79562 5.9374 6.79051 5.97767Z" fill="#FFAA00"/>
<path opacity="0.3" d="M7.64844 12.5162L3.83366 12.0117V18.0454C3.83366 18.0454 3.88278 12.0418 7.64844 12.5162Z" fill="#FFEBBE"/>
<path opacity="0.3" d="M6.20703 4.98828L3.72873 5.44485V6.5807C3.72873 6.5807 3.99449 5.50144 6.20703 4.98828Z" fill="#FFEBBE"/>
<path d="M8.77525 4.52974L11.7409 4.03906L11.8047 5.50644C11.8047 5.50644 11.6686 4.22485 8.77525 4.52974Z" fill="#ED373F"/>
<path d="M15.1641 4.51021L12.1984 4.01953L12.1346 5.48691C12.1346 5.48691 12.2708 4.20532 15.1641 4.51021Z" fill="#FC5C63"/>
<path d="M16.1211 12.4219L12.3793 12.9049V18.9386C12.3793 18.9386 12.4883 12.8908 16.1211 12.4219Z" fill="#FC5C63"/>
<g filter="url(#filter0_d_3054_48013)">
<path d="M7.9196 21.127L11.7344 21.9556V15.9219C11.7344 15.9219 11.6852 21.6014 7.9196 21.127Z" fill="#ED373F"/>
</g>
<path d="M16.3298 21.1701L20.1445 20.3735V14.3398C20.1445 14.3398 19.9575 20.4126 16.3298 21.1701Z" fill="#ED373F"/>
<g opacity="0.1">
<path d="M15.4846 8.90385L15.0883 9.15824C15.0611 9.17567 15.0262 9.17997 14.9949 9.16974L14.5373 9.02014C14.4584 8.99433 14.3808 9.06123 14.4061 9.13332L14.5524 9.55117C14.5625 9.5798 14.5562 9.61102 14.5357 9.63476L14.2362 9.98015C14.1846 10.0398 14.2313 10.1268 14.3153 10.1275L14.802 10.1313C14.8354 10.1316 14.8665 10.1466 14.8852 10.1715L15.1576 10.5346C15.2047 10.5973 15.3111 10.5842 15.3378 10.5125L15.4922 10.097C15.5027 10.0686 15.5283 10.0466 15.5603 10.0383L16.0282 9.91726C16.1089 9.89634 16.128 9.80126 16.0605 9.75624L15.6691 9.49562C15.6423 9.47775 15.627 9.44919 15.6281 9.41916L15.6447 8.98128C15.6477 8.9057 15.553 8.85994 15.4846 8.90385Z" fill="#344054"/>
<path d="M9.56533 10.0709L9.5561 10.4552C9.55519 10.4922 9.53418 10.5264 9.4999 10.5467L9.14291 10.7578C9.05646 10.8089 9.0727 10.9269 9.17027 10.9576L9.57357 11.0843C9.6123 11.0965 9.64197 11.125 9.65276 11.1607L9.76549 11.5315C9.79277 11.6212 9.92256 11.6439 9.98511 11.5698L10.2435 11.2638C10.2684 11.2343 10.3077 11.2178 10.3488 11.2196L10.7754 11.2377C10.8786 11.2421 10.9427 11.1379 10.8838 11.0615L10.6402 10.7457C10.6168 10.7154 10.6115 10.6766 10.626 10.6421L10.777 10.2825C10.8135 10.1954 10.7233 10.1084 10.6243 10.1353L10.2153 10.2462C10.176 10.2568 10.1334 10.2493 10.1013 10.2263L9.76797 9.9859C9.68737 9.92754 9.56755 9.97789 9.56533 10.0709Z" fill="#344054"/>
<path d="M5.15275 9.81743L5.15151 9.86943C5.15077 9.89991 5.13339 9.92817 5.10504 9.94493L5.05675 9.97348C4.98538 10.0157 4.99873 10.1132 5.07941 10.1385L5.13396 10.1556C5.16602 10.1656 5.19041 10.1893 5.1994 10.2187L5.21464 10.2688C5.23714 10.3429 5.34435 10.3617 5.39602 10.3005L5.43096 10.2591C5.45148 10.2348 5.48394 10.2211 5.51781 10.2226L5.5755 10.2251C5.66079 10.2287 5.71369 10.1427 5.66499 10.0795L5.63203 10.0368C5.61266 10.0118 5.60829 9.97971 5.62033 9.95116L5.64076 9.9025C5.67093 9.83064 5.59643 9.75877 5.51468 9.78094L5.45939 9.79593C5.42692 9.80475 5.39173 9.7986 5.36528 9.77954L5.3202 9.74705C5.25353 9.69907 5.15456 9.7406 5.15275 9.81743Z" fill="#344054"/>
<path d="M7.31316 8.5848L7.31036 8.70332C7.30987 8.72528 7.29734 8.74552 7.27699 8.75761L7.16689 8.82273C7.11564 8.85306 7.12519 8.92315 7.18313 8.94132L7.30748 8.98041C7.33047 8.9876 7.3481 9.00458 7.35453 9.02572L7.38931 9.14009C7.40554 9.19334 7.48251 9.20676 7.51967 9.16285L7.59936 9.06844C7.61411 9.05101 7.63743 9.04115 7.66183 9.04219L7.79343 9.04775C7.85474 9.05034 7.89273 8.98856 7.85771 8.94317L7.78263 8.84579C7.76871 8.82777 7.76558 8.80478 7.77423 8.78424L7.82079 8.67336C7.84246 8.62166 7.7889 8.57005 7.73014 8.58599L7.60398 8.62018C7.58066 8.62649 7.55536 8.62211 7.53632 8.60839L7.43356 8.5343C7.3856 8.49974 7.31448 8.52962 7.31316 8.5848Z" fill="#344054"/>
<path d="M3.85976 10.9626L3.85787 11.0436C3.85721 11.0703 3.84196 11.0951 3.81708 11.1098L3.74192 11.1542C3.67929 11.1912 3.69099 11.2768 3.76178 11.2991L3.84666 11.3257C3.87476 11.3345 3.89627 11.3552 3.9041 11.3811L3.92783 11.4592C3.94761 11.5242 4.04172 11.5407 4.08704 11.4869L4.14143 11.4225C4.15939 11.4011 4.1879 11.3892 4.21765 11.3904L4.30748 11.3942C4.3823 11.3974 4.42878 11.3219 4.38601 11.2665L4.33476 11.2001C4.31778 11.178 4.31391 11.1499 4.32445 11.1248L4.35626 11.0491C4.3828 10.986 4.31737 10.923 4.24559 10.9424L4.15947 10.9658C4.13096 10.9735 4.10006 10.9681 4.07682 10.9514L4.00661 10.9008C3.94819 10.8587 3.86133 10.8952 3.85976 10.9626Z" fill="#344054"/>
<path d="M7.3109 11.1125L7.3095 11.1693C7.30875 11.1992 7.29178 11.2268 7.26401 11.2432L7.21127 11.2745C7.14139 11.3158 7.15441 11.4114 7.23343 11.4361L7.29301 11.4548C7.32441 11.4647 7.34839 11.4878 7.35713 11.5166L7.37377 11.5714C7.39586 11.644 7.50085 11.6624 7.55144 11.6024L7.58968 11.5572C7.60979 11.5334 7.6416 11.52 7.67481 11.5214L7.73785 11.5241C7.82141 11.5277 7.87324 11.4434 7.82553 11.3816L7.78952 11.3349C7.77056 11.3104 7.76628 11.279 7.77806 11.251L7.80039 11.1978C7.82998 11.1275 7.75697 11.0571 7.67687 11.0787L7.61646 11.0951C7.58465 11.1037 7.55021 11.0977 7.52425 11.079L7.47497 11.0435C7.40962 10.9965 7.31271 11.0372 7.3109 11.1125Z" fill="#344054"/>
<path d="M9.7144 8.52935L9.69297 8.64297C9.68885 8.665 9.67286 8.68384 9.65037 8.69326L9.53426 8.74184C9.47748 8.76557 9.47558 8.83759 9.53104 8.86369L9.64452 8.91709C9.66652 8.92747 9.68143 8.94691 9.68448 8.96908L9.69989 9.08345C9.70739 9.13937 9.78296 9.16325 9.82762 9.12379L9.9191 9.04317C9.93681 9.02752 9.96203 9.02078 9.98642 9.02508L10.1121 9.04725C10.1735 9.05808 10.222 9.00082 10.1943 8.95039L10.1374 8.84715C10.1263 8.82713 10.1269 8.80347 10.139 8.78396L10.2013 8.68325C10.2317 8.63407 10.1862 8.57481 10.1243 8.58297L9.99763 8.59973C9.97307 8.603 9.94827 8.59514 9.93137 8.57875L9.84419 8.49434C9.8015 8.45318 9.72486 8.4738 9.7144 8.52935Z" fill="#344054"/>
<path d="M12.6312 8.63579L12.5711 8.72168C12.5568 8.74207 12.5323 8.75483 12.5055 8.75579L12.3928 8.75987C12.3253 8.76232 12.2902 8.8333 12.3334 8.88002L12.4056 8.95805C12.4228 8.97659 12.4287 9.00158 12.4214 9.02479L12.3909 9.12255C12.3727 9.18106 12.4369 9.23298 12.4996 9.21043L12.6043 9.17276C12.6292 9.16378 12.6574 9.16645 12.6797 9.17988L12.7736 9.23617C12.8298 9.26984 12.9045 9.23098 12.9001 9.17038L12.8926 9.06907C12.8909 9.04497 12.9024 9.02168 12.9235 9.0067L13.012 8.94373C13.065 8.90605 13.0469 8.83011 12.9815 8.81513L12.8721 8.79013C12.8462 8.7842 12.8251 8.76714 12.8158 8.74452L12.7766 8.64929C12.7531 8.59248 12.6673 8.5844 12.6312 8.63579Z" fill="#344054"/>
<path d="M17.2124 10.9388L17.1181 10.9977C17.0962 11.0113 17.0684 11.0143 17.0436 11.0059L16.9363 10.9692C16.8737 10.9479 16.8112 11.0004 16.8304 11.058L16.8634 11.157C16.871 11.1799 16.8656 11.2046 16.849 11.2233L16.7772 11.3039C16.7353 11.3508 16.7714 11.4206 16.8382 11.422L16.9529 11.4243C16.9795 11.4248 17.004 11.4372 17.0186 11.4571L17.0815 11.5435C17.1182 11.5939 17.203 11.5845 17.2251 11.5277L17.263 11.4303C17.2718 11.4077 17.2924 11.3905 17.318 11.3842L17.4287 11.3571C17.4933 11.3413 17.5097 11.2657 17.4564 11.2292L17.3651 11.1666C17.344 11.1521 17.3322 11.1292 17.3334 11.1053L17.3389 11.0022C17.3422 10.942 17.2674 10.9046 17.2124 10.9388Z" fill="#344054"/>
<path d="M19.5478 10.3673L19.3596 10.4846C19.3398 10.4969 19.3147 10.4997 19.2922 10.492L19.0781 10.419C19.0216 10.3997 18.965 10.4471 18.9823 10.4992L19.0481 10.6966C19.055 10.7173 19.0502 10.7398 19.0351 10.7566L18.8917 10.9172C18.8539 10.9597 18.8865 11.0228 18.9469 11.024L19.1758 11.0286C19.1998 11.0292 19.2221 11.0402 19.2352 11.0583L19.3607 11.2307C19.3938 11.2762 19.4705 11.2677 19.4906 11.2163L19.5662 11.0219C19.5741 11.0015 19.5927 10.9859 19.6159 10.9802L19.8368 10.9261C19.8952 10.9117 19.9099 10.8434 19.8619 10.8105L19.6798 10.6856C19.6606 10.6725 19.6499 10.6518 19.6511 10.6302L19.6621 10.4244C19.6651 10.37 19.5975 10.3363 19.5478 10.3673Z" fill="#344054"/>
<path d="M13.6591 11.3187L13.5618 11.3859C13.537 11.4031 13.5043 11.4082 13.4745 11.3995L13.3578 11.3655C13.2828 11.3437 13.2125 11.4088 13.2388 11.4757L13.2799 11.5797C13.2903 11.6063 13.2856 11.6358 13.2673 11.6586L13.1952 11.7481C13.1489 11.8056 13.196 11.8859 13.2748 11.884L13.3975 11.881C13.4288 11.8803 13.4585 11.8934 13.4769 11.9162L13.5491 12.0054C13.5955 12.0628 13.695 12.0473 13.7173 11.9793L13.7521 11.8734C13.761 11.8464 13.784 11.825 13.8138 11.8163L13.9304 11.7821C14.0054 11.76 14.0198 11.6702 13.9548 11.63L13.8536 11.5675C13.8278 11.5515 13.8123 11.5251 13.8123 11.497L13.8121 11.3865C13.8121 11.3155 13.7217 11.2754 13.6591 11.3187Z" fill="#344054"/>
</g>
<path d="M15.4275 8.7727L15.0992 8.98348C15.0633 9.00655 15.0171 9.01218 14.9756 8.99869L14.5965 8.87475C14.492 8.84064 14.3894 8.92904 14.4229 9.0245L14.5442 9.3707C14.5575 9.4086 14.5492 9.44991 14.522 9.48121L14.2739 9.76742C14.2055 9.84626 14.2673 9.96144 14.3785 9.96233L14.7818 9.96551C14.8259 9.96589 14.867 9.98576 14.8917 10.0186L15.1175 10.3194C15.1797 10.4024 15.3205 10.3851 15.3557 10.2902L15.4837 9.94601C15.4977 9.90833 15.5314 9.87926 15.5739 9.86828L15.9615 9.76801C16.0683 9.74035 16.0935 9.61449 16.0042 9.55501L15.68 9.33911C15.6445 9.31545 15.6242 9.2777 15.6258 9.23795L15.6396 8.8752C15.6433 8.77508 15.518 8.71456 15.4275 8.7727Z" fill="#FFE600"/>
<path d="M9.56485 9.90268L9.55562 10.2877C9.55471 10.3245 9.53378 10.3587 9.4995 10.3789L9.14194 10.5903C9.05574 10.6412 9.07189 10.7591 9.1693 10.7897L9.57325 10.9166C9.6119 10.9288 9.64149 10.9572 9.65228 10.9928L9.76518 11.3643C9.79237 11.4539 9.92192 11.4764 9.98438 11.4025L10.2433 11.096C10.2681 11.0666 10.3073 11.0502 10.3483 11.0519L10.7757 11.0701C10.8787 11.0744 10.9426 10.9705 10.8838 10.8943L10.6398 10.578C10.6165 10.5477 10.6112 10.509 10.6257 10.4745L10.7769 10.1144C10.8134 10.0275 10.7233 9.94073 10.6245 9.9675L10.2149 10.0785C10.1756 10.0891 10.1331 10.0817 10.1012 10.0587L9.76724 9.81791C9.68665 9.75961 9.56707 9.8099 9.56485 9.90268Z" fill="#FFE600"/>
<path d="M5.14977 9.63506L5.14812 9.70418C5.14746 9.73251 5.13131 9.75862 5.10502 9.77419L5.04074 9.81217C4.97457 9.85125 4.98693 9.94173 5.06176 9.96525L5.13428 9.98801C5.16394 9.99736 5.18669 10.0192 5.19493 10.0465L5.2152 10.1133C5.23613 10.182 5.33551 10.1994 5.38339 10.1427L5.42987 10.0875C5.4489 10.065 5.47906 10.0523 5.51046 10.0537L5.58726 10.0569C5.66637 10.0603 5.71541 9.98052 5.67025 9.92201L5.62641 9.8652C5.60844 9.84191 5.60441 9.81224 5.61553 9.78576L5.64272 9.72109C5.67074 9.65442 5.6016 9.58781 5.52579 9.60836L5.4522 9.62831C5.42212 9.63647 5.38941 9.63076 5.36493 9.6131L5.30494 9.56987C5.24322 9.52522 5.1515 9.56378 5.14977 9.63506Z" fill="#FFE600"/>
<path d="M7.31624 8.41607L7.31336 8.53682C7.31286 8.55847 7.3005 8.5785 7.28039 8.59036L7.16824 8.65667C7.11764 8.68663 7.12712 8.75583 7.18431 8.77378L7.31097 8.81353C7.33371 8.82065 7.35102 8.83741 7.35736 8.85825L7.3928 8.97469C7.40878 9.02728 7.48485 9.04055 7.52152 8.99717L7.60269 8.90105C7.61727 8.88384 7.64027 8.87412 7.66433 8.87516L7.79832 8.88087C7.85881 8.88347 7.89639 8.82243 7.86178 8.77763L7.7853 8.6784C7.77162 8.6606 7.76849 8.6379 7.77698 8.61766L7.82444 8.5047C7.84587 8.45368 7.79297 8.40272 7.73495 8.41845L7.60648 8.45323C7.5834 8.45946 7.55852 8.45508 7.53973 8.44159L7.43499 8.36609C7.38769 8.33204 7.31748 8.36156 7.31624 8.41607Z" fill="#FFE600"/>
<path d="M3.86098 10.8033L3.85933 10.8717C3.85868 10.9001 3.84252 10.9264 3.81615 10.942L3.75262 10.9795C3.6862 11.0187 3.69864 11.1095 3.77363 11.1331L3.84541 11.1556C3.87524 11.165 3.89798 11.1869 3.90631 11.2144L3.92633 11.2804C3.94726 11.3493 4.04706 11.3668 4.0951 11.3098L4.14108 11.2554C4.1602 11.2328 4.19044 11.2201 4.22192 11.2214L4.29782 11.2247C4.37718 11.228 4.42646 11.1481 4.38113 11.0892L4.33779 11.033C4.31982 11.0097 4.3157 10.9798 4.32683 10.9533L4.35369 10.8893C4.38179 10.8224 4.31241 10.7556 4.23635 10.7762L4.16358 10.7959C4.13334 10.8042 4.10062 10.7984 4.07598 10.7806L4.01665 10.7378C3.95476 10.6931 3.86271 10.7318 3.86098 10.8033Z" fill="#FFE600"/>
<path d="M7.31416 10.9174L7.31185 11.0142C7.31127 11.0389 7.29718 11.0618 7.27427 11.0754L7.18429 11.1286C7.12644 11.1628 7.13731 11.2418 7.20258 11.2623L7.30427 11.2942C7.33023 11.3024 7.35001 11.3214 7.35726 11.3453L7.38569 11.4388C7.4039 11.4988 7.49076 11.514 7.53262 11.4644L7.5978 11.3873C7.61445 11.3676 7.64074 11.3565 7.66818 11.3577L7.77572 11.3622C7.84486 11.3652 7.88763 11.2955 7.84824 11.2444L7.78684 11.1648C7.77119 11.1445 7.76764 11.1185 7.77737 11.0954L7.81544 11.0047C7.83991 10.9465 7.77951 10.8883 7.71325 10.9062L7.61016 10.9342C7.58388 10.9413 7.55536 10.9364 7.53385 10.9209L7.4498 10.8603C7.39582 10.8215 7.31564 10.8551 7.31416 10.9174Z" fill="#FFE600"/>
<path d="M9.71298 8.35939L9.69048 8.47887C9.68644 8.50016 9.67103 8.51833 9.64936 8.52745L9.52723 8.57848C9.47243 8.60139 9.47062 8.67089 9.5241 8.6961L9.64343 8.75225C9.66469 8.76226 9.67911 8.78102 9.68199 8.80246L9.69823 8.92276C9.70548 8.97675 9.77841 8.99981 9.82159 8.96177L9.91784 8.87699C9.93498 8.86186 9.95929 8.85534 9.98286 8.85949L10.115 8.88278C10.1743 8.89324 10.2211 8.83798 10.1943 8.78926L10.1345 8.68068C10.1239 8.66132 10.1244 8.63848 10.1361 8.61964L10.2016 8.51373C10.231 8.46619 10.187 8.40901 10.1272 8.41694L9.99407 8.43459C9.97033 8.43771 9.94635 8.43014 9.93004 8.41435L9.8384 8.32564C9.79711 8.28589 9.72303 8.30577 9.71298 8.35939Z" fill="#FFE600"/>
<path d="M12.6102 8.49456L12.5733 8.54714C12.556 8.57184 12.5263 8.58734 12.4939 8.58845L12.4248 8.59097C12.3432 8.59394 12.3007 8.6799 12.3531 8.73641L12.3972 8.78417C12.418 8.80665 12.4252 8.83683 12.4164 8.86494L12.3977 8.92479C12.3756 8.99562 12.4533 9.05852 12.5292 9.03122L12.5933 9.00816C12.6234 8.99733 12.6576 9.00052 12.6845 9.01676L12.7419 9.05125C12.8099 9.09204 12.9004 9.04494 12.8951 8.97159L12.8905 8.90959C12.8884 8.88044 12.9023 8.85226 12.9278 8.83409L12.982 8.79552C13.0461 8.74991 13.0244 8.65794 12.9451 8.63985L12.8782 8.62457C12.8467 8.61738 12.8212 8.59676 12.8099 8.56931L12.786 8.51102C12.7577 8.44212 12.6538 8.43233 12.6102 8.49456Z" fill="#FFE600"/>
<path d="M17.2401 10.7523L17.1077 10.8349C17.0908 10.8454 17.0692 10.8478 17.0499 10.8412L16.8993 10.7898C16.8508 10.7733 16.8023 10.8139 16.8172 10.8587L16.8635 10.9976C16.8694 11.0153 16.8652 11.0345 16.8524 11.049L16.7515 11.162C16.719 11.1983 16.747 11.2524 16.7988 11.2535L16.9599 11.2568C16.9805 11.2572 16.9995 11.2667 17.0107 11.2822L17.0991 11.4035C17.1275 11.4425 17.1933 11.4352 17.2104 11.3913L17.2637 11.2544C17.2705 11.2369 17.2864 11.2236 17.3063 11.2187L17.4617 11.1806C17.5117 11.1684 17.5244 11.1099 17.4831 11.0815L17.355 10.9936C17.3386 10.9824 17.3294 10.9646 17.3304 10.9462L17.3382 10.8013C17.3406 10.7547 17.2827 10.7258 17.2401 10.7523Z" fill="#FFE600"/>
<path opacity="0.2" d="M20.5445 7.04822L20.4501 7.10703C20.4283 7.1206 20.4004 7.12372 20.3756 7.11519L20.2683 7.07855C20.2058 7.05719 20.1432 7.1097 20.1624 7.16732L20.1954 7.26626C20.203 7.28918 20.1976 7.31395 20.181 7.33257L20.1092 7.41311C20.0673 7.46006 20.1034 7.52985 20.1703 7.53118L20.285 7.53356C20.3115 7.53408 20.3361 7.54639 20.3506 7.56634L20.4135 7.65274C20.4502 7.7031 20.5351 7.69376 20.5572 7.63694L20.5951 7.53949C20.6039 7.51694 20.6244 7.49974 20.65 7.49343L20.7608 7.46629C20.8253 7.45049 20.8417 7.37492 20.7885 7.33843L20.6972 7.27583C20.6761 7.26137 20.6642 7.23845 20.6654 7.21457L20.671 7.1114C20.6743 7.05133 20.5994 7.01395 20.5445 7.04822Z" fill="#344054"/>
<path d="M20.576 6.86168L20.4436 6.94422C20.4267 6.95475 20.405 6.95713 20.3858 6.9506L20.2352 6.8992C20.1867 6.88267 20.1383 6.92331 20.1531 6.96803L20.1994 7.10694C20.2054 7.12467 20.2012 7.14388 20.1883 7.15834L20.0874 7.27137C20.055 7.30771 20.083 7.36178 20.1347 7.36289L20.2958 7.36615C20.3164 7.3666 20.3355 7.37609 20.3467 7.39159L20.435 7.51285C20.4635 7.55187 20.5292 7.5446 20.5464 7.50062L20.5996 7.36378C20.6064 7.34628 20.6223 7.33293 20.6422 7.32811L20.7976 7.28998C20.8476 7.27775 20.8603 7.21916 20.819 7.1909L20.6909 7.10301C20.6745 7.09181 20.6654 7.07401 20.6663 7.05555L20.6741 6.9107C20.6766 6.86412 20.6186 6.83512 20.576 6.86168Z" fill="#FFE600"/>
<path opacity="0.2" d="M2.48424 8.96227L2.57859 9.02109C2.60043 9.03473 2.62828 9.03778 2.65317 9.02932L2.76046 8.99268C2.82301 8.97132 2.88556 9.02383 2.86636 9.08146L2.8334 9.1804C2.82573 9.20331 2.83117 9.22809 2.84773 9.24678L2.91959 9.32732C2.96145 9.37427 2.92536 9.44406 2.85853 9.44539L2.74382 9.44776C2.71728 9.44828 2.69273 9.4606 2.67814 9.48055L2.61526 9.56695C2.57859 9.61731 2.49371 9.60796 2.47163 9.55115L2.43372 9.4537C2.42499 9.43115 2.40438 9.41395 2.37876 9.40764L2.268 9.3805C2.20348 9.3647 2.18708 9.28912 2.24031 9.25263L2.33162 9.19004C2.35272 9.17558 2.36458 9.15266 2.36335 9.12878L2.35782 9.02561C2.35445 8.96539 2.42927 8.92801 2.48424 8.96227Z" fill="#344054"/>
<path d="M2.45456 8.77965L2.58698 8.86219C2.60388 8.87272 2.62547 8.8751 2.64475 8.86857L2.79539 8.81717C2.84384 8.80063 2.89238 8.84128 2.87747 8.88593L2.83115 9.02484C2.82522 9.04256 2.82942 9.06177 2.84228 9.07624L2.94314 9.18926C2.97561 9.22561 2.94759 9.27967 2.89584 9.28078L2.73474 9.28405C2.71414 9.28449 2.69518 9.29399 2.68389 9.30949L2.59555 9.43075C2.56712 9.46976 2.50136 9.46249 2.48422 9.41851L2.43099 9.28168C2.42423 9.26417 2.40824 9.25082 2.38838 9.246L2.23296 9.20788C2.18294 9.19564 2.17025 9.13713 2.21154 9.10879L2.33968 9.02091C2.35608 9.00971 2.36523 8.99191 2.36424 8.97344L2.35649 8.82859C2.35402 8.78209 2.41195 8.75309 2.45456 8.77965Z" fill="#FFE600"/>
<path opacity="0.2" d="M4.07408 7.14591L4.16844 7.20473C4.19027 7.21837 4.21813 7.22141 4.24301 7.21296L4.35031 7.17632C4.41285 7.15496 4.4754 7.20747 4.4562 7.2651L4.42324 7.36403C4.41566 7.38695 4.42101 7.41172 4.43758 7.43041L4.50944 7.51096C4.5513 7.5579 4.5152 7.62769 4.44837 7.62903L4.33366 7.6314C4.30713 7.63192 4.28257 7.64423 4.26798 7.66418L4.20511 7.75059C4.16844 7.80095 4.08356 7.7916 4.06147 7.73479L4.02357 7.63734C4.01475 7.61479 3.99423 7.59758 3.9686 7.59128L3.85784 7.56413C3.79332 7.54834 3.77692 7.47276 3.83016 7.43627L3.92146 7.37368C3.94256 7.35921 3.95443 7.3363 3.95319 7.31241L3.94767 7.20925C3.94437 7.14895 4.01911 7.11157 4.07408 7.14591Z" fill="#344054"/>
<path d="M4.0444 6.95934L4.17683 7.04189C4.19372 7.05242 4.21531 7.05479 4.23459 7.04827L4.38523 6.99687C4.43369 6.98033 4.48223 7.02098 4.46731 7.0657L4.421 7.20461C4.41506 7.22234 4.41927 7.24154 4.43212 7.25601L4.53299 7.36904C4.56546 7.40538 4.53744 7.45945 4.48569 7.46056L4.32458 7.46382C4.30398 7.46427 4.28503 7.47376 4.27374 7.48926L4.1854 7.61052C4.15697 7.64953 4.09121 7.64234 4.07407 7.59828L4.02083 7.46145C4.01407 7.44394 3.99809 7.43059 3.97823 7.42577L3.82281 7.38765C3.77279 7.37541 3.7601 7.3169 3.80138 7.28857L3.92952 7.20068C3.94592 7.18948 3.95507 7.17168 3.95408 7.15321L3.94634 7.00837C3.94386 6.96172 4.0018 6.93279 4.0444 6.95934Z" fill="#FFE600"/>
<path opacity="0.2" d="M12.8777 7.109L12.7677 7.17753C12.7422 7.1934 12.7097 7.19696 12.6808 7.18709L12.5557 7.14438C12.4829 7.11953 12.4098 7.18064 12.4323 7.24784L12.4707 7.36316C12.4796 7.38986 12.4734 7.41879 12.454 7.44045L12.3702 7.53434C12.3214 7.58907 12.3635 7.67036 12.4414 7.67199L12.5752 7.67474C12.6061 7.67533 12.6347 7.68964 12.6517 7.71293L12.7251 7.81365C12.7677 7.87232 12.8667 7.86149 12.8925 7.79526L12.9368 7.68163C12.947 7.6553 12.971 7.63528 13.0008 7.62794L13.1298 7.59634C13.2051 7.57788 13.2241 7.48984 13.1621 7.44734L13.0557 7.37436C13.0311 7.35745 13.0173 7.33075 13.0188 7.30294L13.0253 7.18264C13.0289 7.11256 12.9418 7.06902 12.8777 7.109Z" fill="#344054"/>
<path d="M12.907 6.89069L12.7525 6.98688C12.7328 6.99919 12.7076 7.00194 12.6852 6.9943L12.5096 6.93437C12.4531 6.91509 12.3966 6.96248 12.4139 7.01455L12.4679 7.17645C12.4748 7.19714 12.47 7.21954 12.4549 7.23638L12.3373 7.36817C12.2995 7.41059 12.3321 7.47356 12.3924 7.47482L12.5801 7.47868C12.6041 7.4792 12.6263 7.49025 12.6395 7.50834L12.7424 7.64971C12.7755 7.69517 12.8522 7.68671 12.8721 7.63547L12.9342 7.47593C12.9421 7.45554 12.9606 7.43996 12.9838 7.43433L13.165 7.3899C13.2232 7.37559 13.2381 7.30735 13.19 7.27443L13.0406 7.172C13.0216 7.15895 13.0109 7.13818 13.012 7.11667L13.0211 6.94787C13.0241 6.89351 12.9566 6.85976 12.907 6.89069Z" fill="#FFE600"/>
<path d="M19.5424 10.2036L19.3596 10.3176C19.3391 10.3304 19.3131 10.3332 19.2898 10.3252L19.0818 10.2543C19.0233 10.2343 18.9647 10.2834 18.9828 10.3373L19.0467 10.5291C19.0539 10.5506 19.0489 10.5738 19.0333 10.5912L18.894 10.7473C18.8549 10.7912 18.8886 10.8565 18.9512 10.8578L19.1736 10.8624C19.1985 10.8629 19.2214 10.8744 19.235 10.8931L19.357 11.0605C19.3913 11.1076 19.4707 11.0989 19.4914 11.0458L19.5649 10.8568C19.5732 10.8357 19.5924 10.8196 19.6163 10.8137L19.831 10.7611C19.8914 10.7463 19.9067 10.6756 19.8569 10.6415L19.68 10.5202C19.6602 10.5066 19.6491 10.4852 19.6503 10.4628L19.661 10.2629C19.6639 10.2065 19.5939 10.1716 19.5424 10.2036Z" fill="#FFE600"/>
<path d="M13.6745 11.1409L13.5559 11.2229C13.5338 11.2382 13.5048 11.2427 13.4783 11.235L13.336 11.1935C13.2692 11.1741 13.2067 11.2319 13.2302 11.2914L13.2802 11.4183C13.2895 11.442 13.2853 11.4682 13.269 11.4885L13.1812 11.5975C13.1401 11.6486 13.1819 11.72 13.252 11.7183L13.4015 11.7148C13.4294 11.7141 13.4558 11.7258 13.4722 11.7461L13.5603 11.8549C13.6016 11.9059 13.69 11.8922 13.7099 11.8317L13.7523 11.7025C13.7602 11.6785 13.7807 11.6595 13.8072 11.6517L13.9494 11.61C14.0161 11.5904 14.0289 11.5105 13.9711 11.4748L13.8478 11.3986C13.8248 11.3844 13.8111 11.3609 13.8111 11.3359L13.8109 11.2012C13.8107 11.1381 13.7302 11.1025 13.6745 11.1409Z" fill="#FFE600"/>
<path d="M20.4255 13.0473C20.3715 13.0473 20.3276 13.0079 20.3276 12.9592C20.3276 12.9105 20.3715 12.8711 20.4255 12.8711C20.4796 12.8711 20.5234 12.9105 20.5234 12.9592C20.5234 13.0079 20.4796 13.0473 20.4255 13.0473Z" fill="white"/>
<path d="M21.016 9.10727C21.016 9.19456 21.0946 9.26532 21.1916 9.26532C21.2886 9.26532 21.3672 9.19456 21.3672 9.10727C21.3672 9.01997 21.2886 8.94922 21.1916 8.94922C21.0946 8.94922 21.016 9.01997 21.016 9.10727Z" fill="#FFE600"/>
<path d="M16.1097 7.31116C16.1097 7.41403 16.2023 7.49739 16.3166 7.49739C16.4309 7.49739 16.5234 7.41403 16.5234 7.31116C16.5234 7.20829 16.4308 7.125 16.3166 7.125C16.2023 7.12493 16.1097 7.20829 16.1097 7.31116Z" fill="white"/>
<path d="M9.2566 7.41695C9.2566 7.4639 9.29887 7.50187 9.35096 7.50187C9.40312 7.50187 9.44531 7.46382 9.44531 7.41695C9.44531 7.37008 9.40304 7.33203 9.35096 7.33203C9.29887 7.33203 9.2566 7.37 9.2566 7.41695Z" fill="#FC5C63"/>
<path d="M2.30569 9.75736C2.30569 9.81536 2.35793 9.86238 2.42237 9.86238C2.48682 9.86238 2.53906 9.81536 2.53906 9.75736C2.53906 9.69937 2.48682 9.65234 2.42237 9.65234C2.35793 9.65234 2.30569 9.69937 2.30569 9.75736Z" fill="white"/>
<path d="M6.48412 9.65988C6.48412 9.72018 6.53843 9.76898 6.60534 9.76898C6.67234 9.76898 6.72656 9.7201 6.72656 9.65988C6.72656 9.59958 6.67226 9.55078 6.60534 9.55078C6.53843 9.55071 6.48412 9.59958 6.48412 9.65988Z" fill="#FC5C63"/>
<path d="M0.102456 12.1687C0.0447014 12.1687 -0.00211906 12.1266 -0.00211906 12.0746C-0.00211906 12.0226 0.0447014 11.9805 0.102456 11.9805C0.160211 11.9805 0.207031 12.0226 0.207031 12.0746C0.207031 12.1266 0.160211 12.1687 0.102456 12.1687Z" fill="#FFE600"/>
<path d="M1.9458 7.97413C1.87703 7.97413 1.82128 7.92396 1.82128 7.86207C1.82128 7.80017 1.87703 7.75 1.9458 7.75C2.01457 7.75 2.07031 7.80017 2.07031 7.86207C2.07031 7.92396 2.01457 7.97413 1.9458 7.97413Z" fill="#FC5C63"/>
<path d="M6.97665 7.80953C6.97665 7.85321 7.01596 7.88859 7.0645 7.88859C7.11303 7.88859 7.15234 7.85314 7.15234 7.80953C7.15234 7.76585 7.11303 7.73047 7.0645 7.73047C7.01596 7.73047 6.97665 7.76585 6.97665 7.80953Z" fill="white"/>
<path d="M18.0782 7.781C18.0782 7.83047 18.1228 7.87059 18.1778 7.87059C18.2328 7.87059 18.2773 7.83047 18.2773 7.781C18.2773 7.73153 18.2328 7.69141 18.1778 7.69141C18.1228 7.69141 18.0782 7.73153 18.0782 7.781Z" fill="#FC5C63"/>
<path d="M16.064 10.5778C16.0173 10.5778 15.9795 10.5438 15.9795 10.5018C15.9795 10.4598 16.0173 10.4258 16.064 10.4258C16.1106 10.4258 16.1484 10.4598 16.1484 10.5018C16.1484 10.5438 16.1106 10.5778 16.064 10.5778Z" fill="#FC5C63"/>
<path d="M10.6631 9.61899C10.6631 9.6804 10.7184 9.73016 10.7866 9.73016C10.8549 9.73016 10.9102 9.6804 10.9102 9.61899C10.9102 9.55758 10.8549 9.50781 10.7866 9.50781C10.7184 9.50781 10.6631 9.55758 10.6631 9.61899Z" fill="#FC5C63"/>
<path d="M9.10742 11.6702C9.10742 11.7125 9.14549 11.7467 9.19238 11.7467C9.23935 11.7467 9.27734 11.7124 9.27734 11.6702C9.27734 11.6279 9.23927 11.5938 9.19238 11.5938C9.14549 11.5938 9.10742 11.6279 9.10742 11.6702Z" fill="#FFE600"/>
<path d="M22.7757 8.11656C22.7757 8.17234 22.8259 8.21751 22.8878 8.21751C22.9498 8.21751 23 8.17234 23 8.11656C23 8.06079 22.9498 8.01563 22.8878 8.01563C22.8259 8.01562 22.7757 8.06079 22.7757 8.11656Z" fill="#FFE600"/>
<path d="M22.9075 12.5165C22.8629 12.5165 22.8268 12.4839 22.8268 12.4438C22.8268 12.4036 22.8629 12.3711 22.9075 12.3711C22.9521 12.3711 22.9883 12.4036 22.9883 12.4438C22.9883 12.4839 22.9521 12.5165 22.9075 12.5165Z" fill="white"/>
<path d="M0.897059 8.66703C0.897059 8.71397 0.939336 8.75202 0.9915 8.75202C1.04366 8.75202 1.08594 8.71397 1.08594 8.66703C1.08594 8.62008 1.04366 8.58203 0.9915 8.58203C0.939336 8.58203 0.897059 8.62008 0.897059 8.66703Z" fill="#FFE600"/>
<defs>
<filter id="filter0_d_3054_48013" x="3.91797" y="15.9219" width="11.8164" height="14.0352" filterUnits="userSpaceOnUse" color-interpolation-filters="sRGB">
<feFlood flood-opacity="0" result="BackgroundImageFix"/>
<feColorMatrix in="SourceAlpha" type="matrix" values="0 0 0 0 0 0 0 0 0 0 0 0 0 0 0 0 0 0 127 0" result="hardAlpha"/>
<feOffset dy="4"/>
<feGaussianBlur stdDeviation="2"/>
<feComposite in2="hardAlpha" operator="out"/>
<feColorMatrix type="matrix" values="0 0 0 0 0 0 0 0 0 0 0 0 0 0 0 0 0 0 0.25 0"/>
<feBlend mode="normal" in2="BackgroundImageFix" result="effect1_dropShadow_3054_48013"/>
<feBlend mode="normal" in="SourceGraphic" in2="effect1_dropShadow_3054_48013" result="shape"/>
</filter>
<radialGradient id="paint0_radial_3054_48013" cx="0" cy="0" r="1" gradientUnits="userSpaceOnUse" gradientTransform="translate(11.9467 12.6192) rotate(180) scale(10.7048 9.63434)">
<stop stop-color="white"/>
<stop offset="1" stop-color="white" stop-opacity="0"/>
</radialGradient>
<radialGradient id="paint1_radial_3054_48013" cx="0" cy="0" r="1" gradientUnits="userSpaceOnUse" gradientTransform="translate(11.945 12.6194) rotate(180) scale(10.7048 9.6343)">
<stop stop-color="white"/>
<stop offset="1" stop-color="white" stop-opacity="0"/>
</radialGradient>
<radialGradient id="paint2_radial_3054_48013" cx="0" cy="0" r="1" gradientUnits="userSpaceOnUse" gradientTransform="translate(11.9472 12.6208) rotate(180) scale(10.7048 9.6343)">
<stop stop-color="white"/>
<stop offset="1" stop-color="white" stop-opacity="0"/>
</radialGradient>
<radialGradient id="paint3_radial_3054_48013" cx="0" cy="0" r="1" gradientUnits="userSpaceOnUse" gradientTransform="translate(11.9461 12.6188) rotate(180) scale(10.7048 9.63434)">
<stop stop-color="white"/>
<stop offset="1" stop-color="white" stop-opacity="0"/>
</radialGradient>
<radialGradient id="paint4_radial_3054_48013" cx="0" cy="0" r="1" gradientUnits="userSpaceOnUse" gradientTransform="translate(11.9471 12.6185) rotate(180) scale(10.7048 9.63432)">
<stop stop-color="white"/>
<stop offset="1" stop-color="white" stop-opacity="0"/>
</radialGradient>
<radialGradient id="paint5_radial_3054_48013" cx="0" cy="0" r="1" gradientUnits="userSpaceOnUse" gradientTransform="translate(11.9442 12.6189) rotate(180) scale(10.7048 9.63434)">
<stop stop-color="white"/>
<stop offset="1" stop-color="white" stop-opacity="0"/>
</radialGradient>
<radialGradient id="paint6_radial_3054_48013" cx="0" cy="0" r="1" gradientUnits="userSpaceOnUse" gradientTransform="translate(11.9468 12.6194) rotate(180) scale(10.7048 9.63432)">
<stop stop-color="white"/>
<stop offset="1" stop-color="white" stop-opacity="0"/>
</radialGradient>
<radialGradient id="paint7_radial_3054_48013" cx="0" cy="0" r="1" gradientUnits="userSpaceOnUse" gradientTransform="translate(11.9474 12.6185) rotate(180) scale(10.7048 9.63431)">
<stop stop-color="white"/>
<stop offset="1" stop-color="white" stop-opacity="0"/>
</radialGradient>
<radialGradient id="paint8_radial_3054_48013" cx="0" cy="0" r="1" gradientUnits="userSpaceOnUse" gradientTransform="translate(11.9469 12.6188) rotate(180) scale(10.7048 9.6343)">
<stop stop-color="white"/>
<stop offset="1" stop-color="white" stop-opacity="0"/>
</radialGradient>
<radialGradient id="paint9_radial_3054_48013" cx="0" cy="0" r="1" gradientUnits="userSpaceOnUse" gradientTransform="translate(11.9448 12.6188) rotate(180) scale(10.7048 9.63436)">
<stop stop-color="white"/>
<stop offset="1" stop-color="white" stop-opacity="0"/>
</radialGradient>
<radialGradient id="paint10_radial_3054_48013" cx="0" cy="0" r="1" gradientUnits="userSpaceOnUse" gradientTransform="translate(11.9447 12.6185) rotate(180) scale(10.7048 9.6343)">
<stop stop-color="white"/>
<stop offset="1" stop-color="white" stop-opacity="0"/>
</radialGradient>
<radialGradient id="paint11_radial_3054_48013" cx="0" cy="0" r="1" gradientUnits="userSpaceOnUse" gradientTransform="translate(11.9461 12.6192) rotate(180) scale(10.7047 9.63426)">
<stop stop-color="white"/>
<stop offset="1" stop-color="white" stop-opacity="0"/>
</radialGradient>
</defs>
</svg>
