<svg width="162" height="171" viewBox="0 0 162 171" fill="none" xmlns="http://www.w3.org/2000/svg">
<path d="M31.5346 28.7708C36.3297 31.1368 43.3023 33.3401 48.4399 30.5652C49.6633 29.9044 50.7532 28.9259 51.0562 27.698C51.3545 26.4884 50.6343 24.9738 49.1972 24.5831C48.2913 24.3368 47.1172 24.4438 46.1665 24.3318C45.2042 24.2183 44.2478 24.0632 43.3035 23.8651C36.1689 22.3682 29.5816 18.1516 26.4916 12.2582C26.0134 11.3466 25.7389 10.3524 25.357 9.40071C24.9148 11.1373 24.4725 12.8744 24.0303 14.611C21.4818 13.4546 19.465 11.4332 18.5021 9.07031C18.6229 9.36625 18.4093 10.021 18.3959 10.3468C18.375 10.851 18.3791 11.3557 18.4081 11.8594C18.4627 12.8283 18.6084 13.7931 18.8411 14.7417C20.3245 20.7927 25.4748 25.7805 31.5346 28.7708Z" fill="#FFAA00"/>
<path d="M31.5348 28.7693C36.3299 31.1353 43.3025 33.3386 48.4401 30.5637C49.6635 29.9029 50.7534 28.9244 51.0564 27.6966C51.3547 26.487 50.6345 24.9723 49.1974 24.5816C48.2915 24.3354 47.1174 24.4423 46.1667 24.3303C45.2044 24.2168 44.248 24.0617 43.3037 23.8636C41.1139 23.3948 38.9979 22.6955 37.0106 21.7642C35.9451 21.265 34.9219 20.7264 33.8569 20.2318C35.5788 21.9856 37.7971 23.3655 40.2579 24.2137C38.4709 24.4575 36.6258 24.1925 34.9317 23.6386C33.2376 23.0847 31.681 22.2516 30.204 21.34C30.9695 22.5151 32.0902 23.5119 33.4216 24.2021C31.7321 23.5849 30.1384 22.7675 28.6985 21.7789C27.4193 20.9007 26.2417 19.8644 25.5226 18.59C26.1883 19.9597 26.8569 21.3344 27.7373 22.6084C28.6184 23.8818 29.7251 25.06 31.1297 25.9017C30.7199 25.6559 30.1482 25.5237 29.7025 25.3199C29.2179 25.0985 28.7449 24.8568 28.2864 24.5958C27.4019 24.0931 26.6573 23.4856 25.8499 22.9099C24.262 21.7789 22.8418 20.4684 21.6393 19.0202C20.6051 17.7751 19.7322 16.4277 19.0537 15.0078C18.9904 16.3922 19.9672 17.9905 20.6776 19.2006C21.4809 20.5688 22.4704 21.8513 23.5958 23.033C25.8035 25.3514 28.5319 27.2876 31.5348 28.7693Z" fill="#FF8500"/>
<path d="M72.6407 15.546C74.437 18.2312 76.1375 20.9691 77.9842 23.6275C79.2448 25.4421 80.7323 27.5557 77.8084 28.9214C76.6894 29.4438 75.3812 29.5345 74.116 29.6151C69.2919 29.9217 64.444 30.4578 59.6297 30.1639C53.599 29.796 47.4987 28.2428 42.8516 24.8659C38.2045 21.489 35.2498 16.0907 36.237 10.883C36.9154 7.30387 39.4355 4.03338 42.9409 2.08547C46.4464 0.137569 50.8765 -0.472543 54.9153 0.379285C59.054 1.2524 62.6477 3.56059 65.4869 6.33094C68.3256 9.10179 70.4933 12.3358 72.6407 15.546Z" fill="#FFE600"/>
<path d="M51.6106 2.12739C51.1288 2.04023 50.6419 1.97182 50.1515 1.92267C46.621 1.56947 42.8793 2.3083 40.1289 4.27242C42.3024 2.72027 44.0349 1.30597 46.8189 0.566636C49.4214 -0.124556 52.2722 -0.178778 54.9147 0.378634C59.0533 1.25175 62.647 3.55994 65.4863 6.33029C68.3255 9.10063 70.4932 12.3351 72.6406 15.5448C73.6609 17.0696 74.6487 18.6106 75.6516 20.1445C76.1531 20.9112 76.6568 21.6769 77.1705 22.4375C77.4932 22.9153 78.2645 23.5797 77.9499 24.1756C78.0567 23.9734 76.6307 22.3823 76.4496 22.136C75.9197 21.4144 75.3899 20.6933 74.8484 19.9783C73.7961 18.5893 72.7114 17.2079 71.5123 15.9122C66.3655 10.3518 60.0435 3.65014 51.6106 2.12739Z" fill="#FFE888"/>
<path d="M49.3476 7.22097C47.6111 7.38009 45.9292 7.95878 44.5682 8.93679C42.372 10.5138 42.7377 14.1572 43.6001 16.2739C44.563 18.6363 46.4817 20.6343 48.7219 22.2032C51.8206 24.3736 55.5994 25.7245 59.5222 26.2151C61.5083 26.4634 63.5286 26.4948 65.5245 26.3184C66.2163 26.2571 71.106 25.8533 70.2372 24.7486C69.8013 24.1937 68.9116 23.8131 68.3689 23.3261C67.5982 22.635 66.8658 21.9118 66.174 21.1598C64.8437 19.7136 63.665 18.161 62.6603 16.5267C61.8466 15.2031 61.1444 13.8248 60.221 12.5569C58.4433 10.1155 55.7451 8.08597 52.5252 7.4039C51.4857 7.18297 50.4062 7.12368 49.3476 7.22097Z" fill="#FFAA00"/>
<path d="M48.6247 10.0112C46.8864 10.8322 45.7866 12.585 45.93 14.3059C46.2753 12.5394 47.8806 11.01 49.8655 10.556C51.851 10.1019 54.1087 10.7475 55.4018 12.1395C53.7715 11.0607 51.5898 10.6437 49.5927 11.0298C51.916 10.7116 54.1876 11.8583 55.9067 13.2594C58.2386 15.1602 59.5683 17.5682 61.0941 19.9732C58.501 17.9772 55.9665 15.9223 53.4946 13.8123C55.6983 17.7552 59.2688 21.1063 63.6135 23.3106C59.5793 24.2962 55.1075 23.8336 51.4494 22.0519C52.8434 22.7329 54.2265 23.5361 55.6774 24.1173C57.0036 24.6484 58.6385 24.7513 60.0686 24.9737C62.5178 25.3548 64.985 25.6446 67.462 25.8423C68.0691 25.8909 71.1608 25.9213 70.2391 24.7487C69.8033 24.1938 68.9136 23.8133 68.3709 23.3263C67.6002 22.6351 66.8677 21.912 66.1759 21.16C64.8457 19.7138 63.6669 18.1611 62.6623 16.5269C61.8486 15.2033 61.1463 13.825 60.223 12.5571C58.0251 9.53845 54.1539 7.01033 49.8794 7.35593C48.1575 7.49528 46.4883 8.08513 45.1331 9.02259C43.6932 10.0188 43.367 11.1778 42.9805 12.6736C43.4686 10.782 45.3867 9.23796 47.5858 8.96584C46.136 9.71277 45.0298 10.9538 44.5568 12.364C44.0832 13.7748 44.2474 15.3401 45.0066 16.6526C44.4024 15.3761 44.4471 13.8772 45.1267 12.6301C45.8063 11.383 47.1093 10.4075 48.6247 10.0112Z" fill="#FF8500"/>
<g opacity="0.4">
<path d="M77.4674 170.814L17.8984 160.846L77.4674 150.879L137.036 160.846L77.4674 170.814Z" fill="#003D54"/>
</g>
<path d="M77.4557 148.737L17.8867 136.588V76.0469L77.4557 83.7539V148.737Z" fill="#FF6D73"/>
<path d="M77.4557 83.7538L17.8867 76.0468L77.4557 68.3398L137.025 76.0468L77.4557 83.7538Z" fill="#F24646"/>
<path d="M77.457 83.7539V148.737L137.026 136.588V76.0469L77.457 83.7539Z" fill="#FC5C63"/>
<path d="M24.9648 76.0457L77.4578 69.2539L129.95 76.0457L77.4578 82.837L24.9648 76.0457Z" fill="#C11414"/>
<path d="M77.457 82.837L129.949 76.0457L77.457 69.2539V82.837Z" fill="#E2575E"/>
<path d="M116.356 15.8594C111.191 17.5286 104.761 20.754 103.87 25.9708C103.658 27.2134 103.81 28.5719 104.688 29.5667C105.553 30.5467 107.343 31.0443 108.613 30.3384C109.413 29.8935 110.077 29.0417 110.79 28.4802C111.51 27.9117 112.263 27.3745 113.047 26.8728C118.963 23.0829 126.904 21.4143 134.054 23.16C135.16 23.4301 136.206 23.8887 137.285 24.2484C136.052 22.8321 134.818 21.4158 133.585 19.9994C136.242 19.0473 139.312 19.0077 142 19.892C141.663 19.7815 141.229 19.2165 140.952 18.9966C140.525 18.6571 140.081 18.3343 139.622 18.0277C138.74 17.4389 137.802 16.9124 136.823 16.4553C130.571 13.5375 122.884 13.7503 116.356 15.8594Z" fill="#FFAA00"/>
<path d="M116.356 15.8589C111.191 17.5281 104.761 20.7535 103.87 25.9703C103.658 27.2129 103.81 28.5714 104.688 29.5662C105.553 30.5462 107.343 31.0438 108.613 30.3379C109.413 29.893 110.077 29.0412 110.79 28.4797C111.51 27.9111 112.263 27.374 113.047 26.8723C116.574 24.6128 120.733 23.165 125.059 22.6375C127.116 22.3867 129.34 22.3385 131.391 22.6608C132.34 22.8098 133.264 23.053 134.196 23.2664C134.634 23.3667 135.084 23.4311 135.496 23.5887C135.961 23.766 136.428 23.9393 136.893 24.1152C136.119 23.424 135.143 23.0571 134.105 22.7784C132.962 22.4718 131.796 22.2362 130.622 22.0411C130.552 22.0294 130.481 22.0178 130.41 22.0066C129.488 21.8571 128.56 21.733 127.631 21.623C127.182 21.5698 126.731 21.5105 126.281 21.4715C126.059 21.4523 125.65 21.359 125.448 21.4563C126.472 20.9622 127.628 20.68 128.796 20.6374C126.392 20.5077 123.983 20.7215 121.586 20.9354C120.704 21.0139 119.821 21.093 118.939 21.1715C118.906 20.8898 119.059 20.6101 119.281 20.4043C119.504 20.1986 119.791 20.0557 120.078 19.9244C121.345 19.3462 122.712 18.9353 124.119 18.7103C121.615 18.9799 119.153 19.5358 116.814 20.3597C116.66 20.4139 116.501 20.4702 116.335 20.4707C116.168 20.4707 115.99 20.4008 115.927 20.2665C115.847 20.0977 115.971 19.9113 116.1 19.7684C116.771 19.025 117.72 18.504 118.725 18.1483C119.729 17.7931 120.795 17.5919 121.855 17.3928C123.416 17.0989 124.979 16.805 126.541 16.511C124.341 16.4097 122.1 16.3119 119.969 16.7968C119.088 16.997 118.242 17.294 117.397 17.5899C117.011 17.7252 116.625 17.8605 116.239 17.9958C116.225 17.2245 116.769 16.8723 117.326 16.3833C117.878 15.8989 118.416 15.4844 119.131 15.1758C118.728 15.3501 118.135 15.2878 117.701 15.4119C117.257 15.5376 116.801 15.7155 116.356 15.8589Z" fill="#FF8500"/>
<path d="M84.9072 15.9449C82.9647 17.8857 81.0912 19.8823 79.1127 21.7947C77.7622 23.1 76.1737 24.6177 78.3095 26.1278C79.1267 26.7055 80.1754 26.9579 81.1911 27.196C85.0628 28.1031 88.913 29.2007 92.8845 29.6177C97.8595 30.1407 103.103 29.7074 107.489 27.5923C111.875 25.4772 115.245 21.4856 115.373 17.1119C115.461 14.1059 113.995 11.1005 111.489 9.03703C108.984 6.97359 105.487 5.87295 102.048 6.01636C98.5229 6.16281 95.1846 7.55178 92.3785 9.41962C89.5723 11.288 87.2293 13.625 84.9072 15.9449Z" fill="#FFE600"/>
<path d="M104.425 7.89026C104.833 7.88519 105.241 7.89533 105.649 7.92219C108.586 8.11576 111.5 9.22755 113.388 11.2013C111.896 9.64206 110.739 8.25461 108.605 7.27306C106.61 6.35535 104.299 5.9231 102.049 6.01634C98.524 6.16279 95.1857 7.55176 92.3796 9.4196C89.5734 11.2874 87.2304 13.625 84.9083 15.9449C83.805 17.047 82.7255 18.1669 81.635 19.2787C81.09 19.8346 80.5427 20.389 79.9885 20.9378C79.6402 21.2824 78.8933 21.7182 79.043 22.2462C78.9925 22.0673 80.4377 20.9667 80.6286 20.7903C81.1887 20.275 81.7493 19.7601 82.3181 19.2524C83.4231 18.2652 84.5526 17.2888 85.7609 16.3974C90.9449 12.5735 97.289 7.97995 104.425 7.89026Z" fill="#FFE888"/>
<path d="M105.355 12.3433C106.741 12.7092 108.005 13.41 108.938 14.3911C110.444 15.9741 109.495 18.8899 108.414 20.4952C107.208 22.2871 105.289 23.6517 103.185 24.6236C100.275 25.968 96.9577 26.5528 93.6768 26.417C92.0158 26.3481 90.3658 26.0983 88.7726 25.6827C88.2207 25.5388 84.313 24.5436 85.2172 23.7622C85.6717 23.37 86.4633 23.1815 86.9926 22.8587C87.7436 22.4011 88.4691 21.9126 89.1667 21.3947C90.508 20.399 91.7447 19.2958 92.855 18.1024C93.754 17.1361 94.5724 16.1094 95.5503 15.2039C97.4342 13.4592 99.9925 12.1751 102.736 12.0585C103.622 12.021 104.511 12.1199 105.355 12.3433Z" fill="#FFAA00"/>
<path d="M105.45 14.7146C106.718 15.6197 107.299 17.1961 106.875 18.5775C106.91 17.0928 105.877 15.6288 104.342 14.9888C102.807 14.3488 100.854 14.5667 99.5523 15.5229C101.072 14.8667 102.923 14.8251 104.479 15.4114C102.645 14.8358 100.591 15.4596 98.9412 16.3656C96.7033 17.595 95.1902 19.3736 93.5181 21.1234C95.9859 19.852 98.4159 18.5248 100.805 17.1445C98.3062 20.0536 94.8013 22.2945 90.8704 23.4964C93.9778 24.8489 97.7003 25.0815 100.997 24.1304C99.7404 24.4947 98.4711 24.9599 97.1861 25.2351C96.012 25.4864 94.6626 25.3475 93.4583 25.3339C91.3968 25.3101 89.3365 25.2097 87.2848 25.0329C86.7817 24.9893 84.2599 24.593 85.2199 23.764C85.6743 23.3718 86.4659 23.1833 86.9952 22.8605C87.7463 22.4029 88.4717 21.9144 89.1693 21.3965C90.5106 20.4008 91.7474 19.2976 92.8576 18.1042C93.7567 17.1379 94.575 16.1117 95.5529 15.2057C97.882 13.0485 101.485 11.5181 104.902 12.3821C106.279 12.7303 107.533 13.4382 108.468 14.3858C109.461 15.3932 109.52 16.3808 109.567 17.6512C109.508 16.0448 108.223 14.5267 106.481 14.0052C107.528 14.8109 108.206 15.9714 108.339 17.1845C108.472 18.3971 108.058 19.6493 107.206 20.6136C107.927 19.6569 108.158 18.4311 107.828 17.3228C107.498 16.2146 106.613 15.2437 105.45 14.7146Z" fill="#FF8500"/>
<path d="M77.4557 22.7852L17.8867 32.9493V42.4725L77.4557 34.7655V22.7852Z" fill="#ED373F"/>
<path d="M36.841 30.668L19.3867 33.7875V41.5482C19.3867 41.5482 21.2584 34.1741 36.841 30.668Z" fill="#ED373F"/>
<path d="M77.4557 34.7656L17.8867 42.4726L77.4557 50.1796L137.025 42.4726L77.4557 34.7656Z" fill="#8C0D0D"/>
<path d="M77.4583 35.6172L24.4883 42.4703L77.4583 49.3235L130.428 42.4703L77.4583 35.6172Z" fill="#701216"/>
<path d="M77.4583 49.3237V42.4706L52.8508 38.8008L24.4883 42.4706L77.4583 49.3237Z" fill="#C11414"/>
<path d="M77.457 49.3237V42.4706L102.065 38.8008L130.427 42.4706L77.457 49.3237Z" fill="#E2575E"/>
<path d="M77.457 34.7655V22.7852L137.026 32.9493V42.4725L77.457 34.7655Z" fill="#FC5C63"/>
<path d="M98.5234 80.1534L101.994 79.6888L141.759 53.6211L98.5234 80.1534Z" fill="url(#paint0_radial_3054_49788)"/>
<path d="M109.215 78.7203L112.941 78.2211L147.231 61.1445L109.215 78.7203Z" fill="url(#paint1_radial_3054_49788)"/>
<path d="M103.262 79.5192L105.666 79.1974L130.993 64.5L103.262 79.5192Z" fill="url(#paint2_radial_3054_49788)"/>
<path d="M132 75.6698L134.264 75.6273L151.576 69.2109L132 75.6698Z" fill="url(#paint3_radial_3054_49788)"/>
<path d="M118.031 77.5419L119.934 77.287L134.982 70.7617L118.031 77.5419Z" fill="url(#paint4_radial_3054_49788)"/>
<path d="M95.4776 80.4048L135.253 46.7523L92.1973 80.9597L120.479 53.5264L93.181 78.3905L127.811 40.6511L90.0064 79.3001L114.126 48.9885L90.6129 76.6443L119.553 35.412L87.5937 77.8934L107.172 45.1814L87.8143 75.192L110.607 31.1184L84.9988 76.7624L99.7271 42.1653L84.8294 74.0579L101.117 27.8372L82.2612 75.9237L91.9077 39.9878L81.7058 73.2593L91.2292 25.6208L79.4255 75.3916L83.8369 38.6835L78.4916 72.8083L81.1016 24.5039L76.5352 75.1738L75.6426 38.272L75.238 72.7135L70.8933 24.5039L73.6368 75.2736L67.454 38.761L71.9966 72.975L60.7663 25.6208L70.7755 75.6901L59.4006 40.1419L68.8185 73.5887L50.8789 27.8372L67.9966 76.4168L51.6085 42.3933L65.7529 74.5459L41.3874 31.1184L65.3437 77.4414L44.2011 45.4799L62.8498 75.831L32.442 35.412L62.8591 78.7483L37.2952 49.3524L60.1534 77.4237L24.1838 40.6511L60.5811 80.3166L30.9992 53.9505L57.7071 79.2991L16.7422 46.7523L56.3978 80.3035L77.4551 82.9735L97.5304 80.2847L126.13 58.7235L95.4776 80.4048Z" fill="url(#paint5_radial_3054_49788)"/>
<path d="M38.7455 78.0645L42.359 78.5231L4.76953 61.1445L38.7455 78.0645Z" fill="url(#paint6_radial_3054_49788)"/>
<path d="M30.1032 76.9699L31.8072 77.1858L16.7109 71.3203L30.1032 76.9699Z" fill="url(#paint7_radial_3054_49788)"/>
<path d="M17.4392 75.3653L20.0944 75.7018L0.421875 69.2109L17.4392 75.3653Z" fill="url(#paint8_radial_3054_49788)"/>
<path d="M53.5346 79.9424L55.8114 80.2313L25.4141 59.2031L53.5346 79.9424Z" fill="url(#paint9_radial_3054_49788)"/>
<path d="M45.0553 78.867L47.3763 79.1614L20.6289 65.0234L45.0553 78.867Z" fill="url(#paint10_radial_3054_49788)"/>
<path d="M49.6362 79.4476L53.0238 79.8768L10.2383 53.6211L49.6362 79.4476Z" fill="url(#paint11_radial_3054_49788)"/>
<path d="M40.3293 35.2914C39.9729 38.0916 41.1633 40.8427 41.663 43.6263C42.7552 49.7107 40.324 56.1979 35.3235 60.5417C33.8 57.2748 32.2765 54.0083 30.7524 50.7414C30.8319 50.9111 28.7669 52.254 28.5388 52.4111C26.3833 53.8973 23.5331 55.9142 20.7461 56.3069C21.3445 56.2207 22.0177 54.7563 22.3276 54.3296C23.7275 52.4025 25.031 50.4206 26.1436 48.3577C27.6828 45.5037 28.6451 42.5074 28.7101 39.3362C28.7635 36.7336 28.5 34.0357 29.5185 31.5375C32.1854 24.9935 40.8394 24.4654 47.3188 26.4949C48.3478 26.8172 49.3298 27.2282 50.4128 27.4025C49.1115 27.705 47.7569 27.7668 46.4917 28.227C43.2137 29.4188 40.7227 32.1962 40.3293 35.2914Z" fill="#FFE600"/>
<path d="M34.0936 30.4083C33.6699 30.8258 33.2799 31.2692 32.9288 31.7354C33.3055 30.1529 34.3565 28.7 35.8313 27.7236C34.0367 28.6813 32.7994 30.312 32.1708 32.0643C31.6769 33.4411 31.5324 34.8949 31.5724 36.332C31.5817 36.67 31.6595 37.0379 31.6049 37.3734C31.5637 37.6252 31.4952 37.8315 31.501 38.0945C31.5144 38.7355 31.468 39.6674 31.7582 40.2648C30.1505 36.9548 29.988 33.1274 31.3113 29.7226C30.8197 30.2846 30.3275 30.8471 29.8359 31.4091C29.9926 31.2297 30.017 30.7615 30.1087 30.536C30.2207 30.2613 30.356 29.9943 30.5132 29.7368C32.8586 25.8947 39.7117 24.4211 44.0326 26.2702C42.7058 26.0245 41.4104 25.9474 40.0611 26.0716C39.3838 26.1339 38.7105 26.2337 38.0477 26.3701C37.4348 26.4962 36.8371 26.7364 36.2259 26.8459C38.1336 26.5038 40.0941 26.3868 42.0373 26.4993C38.9862 26.9716 36.1458 28.3859 34.0936 30.4083Z" fill="#FFE888"/>
<path d="M40.3087 35.2847C40.2976 35.3177 40.2866 35.3506 40.275 35.383C39.7678 32.5646 41.3214 29.5439 44.0707 28.0024C44.7039 27.6472 45.4706 27.2681 45.5605 26.6159C44.4688 26.2298 43.3771 25.8432 42.286 25.457C43.9488 25.5406 45.7503 26.0013 47.3202 26.4933C48.3492 26.8156 49.3312 27.2266 50.4142 27.4009C49.113 27.7034 47.7584 27.7652 46.4932 28.2253C44.8554 28.8213 43.416 29.812 42.3359 31.0383C41.7793 31.6702 41.3168 32.3664 40.972 33.1047C40.6389 33.8198 40.5472 34.5601 40.3087 35.2847Z" fill="#FFAA00"/>
<path d="M40.1157 37.6063C40.0942 37.7745 39.894 38.4181 39.9938 38.5493C37.9236 35.709 38.0913 31.7575 40.396 29.0586C38.165 31.4195 37.0896 34.5866 37.4877 37.6276C37.8029 40.0341 38.9799 42.285 39.5986 44.6459C40.0756 46.4671 39.8708 48.3846 39.2068 50.1496C38.7344 51.4053 37.1731 53.1728 35.3827 52.4537C34.4059 52.0615 34.0861 51.0085 33.8801 50.0867C33.2463 47.2576 32.6131 44.429 31.9793 41.6004C32.096 43.7596 31.4523 45.9457 30.1569 47.7877C30.4001 47.4416 30.2788 46.4245 30.3044 45.9903C30.345 45.3026 30.367 44.6135 30.3653 43.9248C30.3618 42.5541 30.2655 41.1828 30.0484 39.8248C29.836 38.4946 29.4524 37.2262 29.3792 35.8828C29.3032 34.4888 29.3775 33.0882 29.6044 31.7068C29.5139 31.831 29.4233 31.9546 29.3328 32.0788C28.5499 34.4239 28.76 36.9201 28.7101 39.3368C28.6451 42.5074 27.6828 45.5043 26.1436 48.3583C25.031 50.4217 23.7275 52.403 22.3276 54.3302C22.0177 54.7568 21.3445 56.2213 20.7461 56.3075C23.5331 55.9147 26.3833 53.8979 28.5388 52.4117C28.7669 52.2546 30.8313 50.9117 30.7524 50.742C32.2353 53.9445 33.8313 57.1238 35.1441 60.3761C35.2829 60.7196 35.6125 60.2691 35.7547 60.1318C37.0153 58.9131 38.2051 57.5551 39.1064 56.1114C40.0774 54.5562 40.811 52.888 41.2857 51.1656C41.6276 49.9261 41.8348 48.6588 41.8992 47.3853C41.9311 46.7489 41.9276 46.1114 41.887 45.4749C41.8481 44.8653 41.6635 44.2319 41.6635 43.6263C41.2846 41.5142 40.5109 39.4204 40.3136 37.3093C40.2538 37.1401 40.1993 36.9693 40.1528 36.7965C40.1308 37.0717 40.1517 37.3311 40.1157 37.6063Z" fill="#FFAA00"/>
<path d="M113.931 35.1357C114.288 37.9359 113.097 40.687 112.597 43.4705C111.505 49.5549 113.937 56.0422 118.937 60.386C120.46 57.119 121.984 53.8526 123.508 50.5856C123.428 50.7554 125.493 52.0982 125.722 52.2553C127.877 53.7416 130.727 55.7584 133.514 56.1506C132.916 56.0645 132.243 54.6 131.933 54.1733C130.533 52.2462 129.229 50.2644 128.117 48.2014C126.578 45.3475 125.615 42.3511 125.55 39.18C125.497 36.5773 125.76 33.8795 124.742 31.3812C122.075 24.8372 113.421 24.3092 106.942 26.3387C105.913 26.661 104.931 27.0719 103.848 27.2462C105.149 27.5488 106.504 27.6106 107.769 28.0707C111.047 29.2631 113.538 32.0405 113.931 35.1357Z" fill="#FFE600"/>
<path d="M120.17 30.252C120.594 30.6696 120.984 31.113 121.335 31.5792C120.958 29.9966 119.907 28.5438 118.432 27.5673C120.227 28.525 121.464 30.1557 122.093 31.908C122.587 33.2848 122.731 34.7387 122.691 36.1758C122.682 36.5138 122.604 36.8817 122.659 37.2171C122.7 37.469 122.768 37.6752 122.763 37.9382C122.749 38.5793 122.796 39.5111 122.506 40.1086C124.113 36.7986 124.276 32.9712 122.952 29.5664C123.444 30.1284 123.936 30.6908 124.427 31.2528C124.27 31.0734 124.246 30.6052 124.154 30.3797C124.042 30.1051 123.907 29.838 123.75 29.5806C121.405 25.7385 114.551 24.2649 110.23 26.114C111.557 25.8682 112.853 25.7912 114.202 25.9153C114.879 25.9777 115.553 26.0775 116.215 26.2138C116.828 26.34 117.426 26.5802 118.037 26.6896C116.129 26.3476 114.17 26.2305 112.226 26.343C115.277 26.8153 118.118 28.2291 120.17 30.252Z" fill="#FFE888"/>
<path d="M113.954 35.1324C113.965 35.1653 113.976 35.1983 113.987 35.2307C114.494 32.4122 112.94 29.3915 110.191 27.85C109.558 27.4948 108.791 27.1158 108.701 26.4636C109.793 26.0775 110.885 25.6908 111.976 25.3047C110.313 25.3883 108.512 25.8489 106.942 26.341C105.913 26.6633 104.931 27.0742 103.848 27.2485C105.149 27.5511 106.504 27.6129 107.769 28.073C109.407 28.6689 110.846 29.6596 111.926 30.8859C112.483 31.5178 112.945 32.2141 113.289 32.9524C113.624 33.6674 113.715 34.4077 113.954 35.1324Z" fill="#FFAA00"/>
<path d="M114.145 37.4505C114.167 37.6188 114.368 38.2623 114.267 38.3936C116.337 35.5533 116.17 31.6017 113.865 28.9023C116.097 31.2632 117.171 34.4304 116.773 37.4713C116.459 39.8773 115.281 42.1287 114.662 44.4896C114.185 46.3109 114.39 48.2284 115.054 49.9933C115.526 51.249 117.087 53.0165 118.878 52.2975C119.855 51.9052 120.174 50.8523 120.38 49.9305C121.014 47.1014 121.647 44.2727 122.281 41.4441C122.164 43.6033 122.808 45.7894 124.104 47.6314C123.86 47.2853 123.982 46.2683 123.956 45.834C123.915 45.1464 123.893 44.4572 123.895 43.7685C123.899 42.3978 123.995 41.0266 124.212 39.6685C124.424 38.3383 124.808 37.07 124.881 35.7266C124.957 34.3326 124.883 32.9319 124.656 31.5506C124.747 31.6747 124.837 31.7984 124.928 31.9225C125.711 34.2677 125.5 36.7639 125.55 39.1805C125.615 42.3512 126.578 45.348 128.117 48.202C129.229 50.2654 130.533 52.2468 131.933 54.1739C132.243 54.6006 132.916 56.0651 133.514 56.1512C130.727 55.7585 127.877 53.7417 125.722 52.2554C125.494 52.0983 123.429 50.7555 123.508 50.5857C122.025 53.7883 120.429 56.9676 119.116 60.2198C118.978 60.5634 118.648 60.1129 118.506 59.9756C117.245 58.7569 116.055 57.3988 115.154 55.9551C114.183 54.3999 113.449 52.7317 112.975 51.0093C112.633 49.7699 112.426 48.5025 112.361 47.2291C112.329 46.5926 112.333 45.9551 112.373 45.3187C112.412 44.709 112.597 44.0756 112.597 43.4701C112.976 41.358 113.75 39.2641 113.947 37.1531C114.007 36.9838 114.061 36.813 114.108 36.6402C114.13 36.9159 114.109 37.1754 114.145 37.4505Z" fill="#FFAA00"/>
<path opacity="0.3" d="M108.117 82.1109L134.984 78.6641V119.889C134.984 119.889 134.638 78.8693 108.117 82.1109Z" fill="#FFEBBE"/>
<path opacity="0.3" d="M118.277 30.668L135.732 33.7875V41.5482C135.732 41.5482 133.86 34.1741 118.277 30.668Z" fill="#FFEBBE"/>
<path d="M100.18 27.5284L79.293 24.1758L78.8438 34.2016C78.8438 34.2016 79.802 25.4452 100.18 27.5284Z" fill="#ED373F"/>
<path d="M55.1758 27.3956L76.0625 24.043L76.5117 34.0688C76.5117 34.0688 75.5529 25.3123 55.1758 27.3956Z" fill="#FC5C63"/>
<path d="M48.4609 81.4453L74.8136 84.7457V125.971C74.8136 125.971 74.0464 84.6494 48.4609 81.4453Z" fill="#FC5C63"/>
<g filter="url(#filter0_d_3054_49788)">
<path d="M106.215 140.923L79.3477 146.585V105.359C79.3477 105.359 79.6941 144.165 106.215 140.923Z" fill="#ED373F"/>
</g>
<path d="M46.9607 141.238L20.0938 135.796V94.5703C20.0938 94.5703 21.4112 136.063 46.9607 141.238Z" fill="#ED373F"/>
<g opacity="0.1">
<path d="M52.9349 57.4257L55.726 59.1638C55.9175 59.2828 56.1636 59.3122 56.3841 59.2423L59.6064 58.2202C60.1624 58.0439 60.7091 58.5009 60.5309 58.9935L59.5002 61.8485C59.4294 62.0441 59.4735 62.2574 59.618 62.4196L61.7271 64.7794C62.091 65.1869 61.7619 65.7818 61.1705 65.7863L57.7422 65.8122C57.5072 65.8142 57.2884 65.9166 57.1566 66.0868L55.2379 68.5678C54.9065 68.996 54.1572 68.9068 53.9692 68.4168L52.8815 65.5781C52.8073 65.3835 52.6273 65.2335 52.4016 65.1767L49.1068 64.3497C48.538 64.2068 48.4039 63.5572 48.8793 63.2496L51.6355 61.4689C51.8241 61.3468 51.932 61.1517 51.9245 60.9465L51.8073 57.9547C51.7864 57.4383 52.4532 57.1257 52.9349 57.4257Z" fill="black"/>
<path d="M94.6119 65.388L94.6769 68.0139C94.6833 68.2663 94.8313 68.4999 95.0727 68.6388L97.5869 70.0809C98.1958 70.4301 98.0814 71.2368 97.3942 71.4466L94.5539 72.3121C94.2811 72.3952 94.0722 72.5903 93.9961 72.8341L93.2022 75.3672C93.0101 75.9804 92.096 76.1355 91.6555 75.6292L89.8354 73.5384C89.6601 73.3372 89.3833 73.2242 89.0942 73.2364L86.0896 73.36C85.3624 73.3899 84.9115 72.6785 85.3264 72.1565L87.0414 69.9988C87.2063 69.7916 87.244 69.5266 87.1418 69.2904L86.0786 66.8338C85.8209 66.2388 86.4564 65.6444 87.154 65.8279L90.0345 66.5855C90.3113 66.6584 90.6114 66.6072 90.8371 66.4496L93.1847 64.8073C93.7524 64.4085 94.5962 64.7526 94.6119 65.388Z" fill="black"/>
<path d="M125.703 63.6482L125.712 64.0035C125.717 64.2117 125.84 64.4048 126.04 64.5193L126.38 64.7144C126.882 65.0027 126.788 65.6691 126.22 65.8419L125.836 65.959C125.61 66.0274 125.438 66.189 125.375 66.3897L125.268 66.7322C125.109 67.2385 124.354 67.3667 123.99 66.9486L123.744 66.6659C123.6 66.4996 123.371 66.4064 123.132 66.4165L122.726 66.4333C122.125 66.4581 121.753 65.8708 122.096 65.439L122.328 65.1472C122.464 64.9759 122.495 64.757 122.41 64.5619L122.266 64.2295C122.054 63.7384 122.579 63.2474 123.154 63.3989L123.544 63.5013C123.773 63.5616 124.02 63.5195 124.207 63.3893L124.524 63.1673C124.994 62.8395 125.691 63.1232 125.703 63.6482Z" fill="black"/>
<path d="M110.476 55.2389L110.496 56.0487C110.5 56.1987 110.588 56.337 110.731 56.4196L111.506 56.8646C111.867 57.0718 111.8 57.5507 111.392 57.6748L110.516 57.9419C110.354 57.991 110.23 58.1071 110.185 58.2515L109.94 59.0329C109.826 59.3967 109.284 59.4885 109.022 59.1885L108.461 58.5434C108.357 58.4243 108.193 58.3569 108.021 58.364L107.094 58.402C106.662 58.4197 106.394 57.9976 106.641 57.6875L107.17 57.0222C107.268 56.899 107.29 56.7419 107.229 56.6016L106.901 55.844C106.749 55.4908 107.126 55.1381 107.54 55.2471L108.428 55.4807C108.592 55.5237 108.771 55.4938 108.905 55.4001L109.628 54.8939C109.966 54.6577 110.467 54.8619 110.476 55.2389Z" fill="black"/>
<path d="M134.786 71.4752L134.8 72.028C134.804 72.2109 134.912 72.3802 135.087 72.4805L135.616 72.7841C136.057 73.0369 135.975 73.6217 135.476 73.7737L134.878 73.9556C134.681 74.0159 134.529 74.1573 134.474 74.3342L134.307 74.8678C134.167 75.3122 133.505 75.4247 133.185 75.0573L132.802 74.6169C132.676 74.471 132.475 74.3894 132.266 74.398L131.633 74.4239C131.106 74.4457 130.779 73.9298 131.08 73.5513L131.441 73.0972C131.56 72.9467 131.588 72.7547 131.513 72.5834L131.289 72.066C131.103 71.6348 131.563 71.204 132.069 71.3368L132.675 71.4964C132.876 71.5491 133.094 71.5121 133.257 71.3981L133.752 71.0525C134.163 70.7647 134.775 71.014 134.786 71.4752Z" fill="black"/>
<path d="M110.483 72.5225L110.493 72.9106C110.498 73.1149 110.618 73.3039 110.814 73.4159L111.185 73.6292C111.677 73.9114 111.585 74.5646 111.029 74.7339L110.609 74.8616C110.388 74.929 110.219 75.0866 110.158 75.2837L110.04 75.6582C109.885 76.1543 109.145 76.2794 108.789 75.87L108.52 75.5609C108.378 75.3982 108.154 75.307 107.92 75.3166L107.476 75.3349C106.888 75.3592 106.523 74.7835 106.859 74.3609L107.112 74.0422C107.246 73.8745 107.276 73.6601 107.193 73.4691L107.036 73.1057C106.827 72.6248 107.342 72.1439 107.906 72.2919L108.331 72.4039C108.555 72.4627 108.798 72.4216 108.981 72.2939L109.328 72.0512C109.788 71.7299 110.471 72.0081 110.483 72.5225Z" fill="black"/>
<path d="M93.5713 54.86L93.7222 55.6364C93.7512 55.7869 93.8638 55.9156 94.0222 55.9799L94.84 56.3118C95.2399 56.474 95.2532 56.966 94.8626 57.1444L94.0634 57.5093C93.9085 57.5802 93.8034 57.713 93.782 57.8645L93.6734 58.6459C93.6206 59.028 93.0884 59.1911 92.7739 58.9215L92.1296 58.3707C92.0048 58.2638 91.8273 58.2177 91.6555 58.2471L90.7704 58.3986C90.338 58.4726 89.9962 58.0814 90.1917 57.7368L90.5922 57.0314C90.67 56.8946 90.6659 56.7329 90.5806 56.5997L90.1424 55.9115C89.9283 55.5755 90.2486 55.1707 90.6845 55.2264L91.5765 55.3409C91.7495 55.3632 91.9242 55.3095 92.0432 55.1975L92.6572 54.6208C92.9578 54.3396 93.4976 54.4805 93.5713 54.86Z" fill="black"/>
<path d="M73.0247 55.5854L73.4484 56.1722C73.5488 56.3116 73.7217 56.3988 73.9104 56.4054L74.7043 56.4332C75.1796 56.4499 75.4263 56.9349 75.1222 57.2541L74.6138 57.7872C74.4931 57.9139 74.4513 58.0847 74.5023 58.2433L74.7171 58.9112C74.8459 59.311 74.3938 59.6657 73.9521 59.5117L73.2145 59.2542C73.0392 59.1929 72.8407 59.2112 72.6834 59.3029L72.0224 59.6875C71.6266 59.9176 71.1002 59.652 71.1315 59.238L71.1837 58.5458C71.1959 58.3811 71.1152 58.222 70.9667 58.1196L70.3433 57.6894C69.9702 57.432 70.0973 56.9131 70.5581 56.8107L71.3282 56.64C71.5111 56.5994 71.6596 56.4829 71.7252 56.3283L72.0009 55.6777C72.1663 55.2895 72.7711 55.2343 73.0247 55.5854Z" fill="black"/>
<path d="M40.7592 71.3119L41.4237 71.7137C41.5775 71.8069 41.7737 71.8277 41.9484 71.7699L42.704 71.5196C43.1446 71.3737 43.5851 71.7325 43.4498 72.1262L43.2177 72.8022C43.1637 72.9588 43.202 73.128 43.3187 73.2557L43.8248 73.806C44.1196 74.1268 43.8654 74.6036 43.3947 74.6128L42.5868 74.629C42.3999 74.6325 42.227 74.7166 42.1242 74.8529L41.6814 75.4433C41.4231 75.7874 40.8254 75.7235 40.6698 75.3354L40.4028 74.6695C40.3407 74.5155 40.1962 74.3979 40.0157 74.3548L39.2357 74.1694C38.7813 74.0614 38.6658 73.5451 39.0407 73.2957L39.6838 72.8681C39.8323 72.7692 39.9159 72.6127 39.9072 72.4495L39.8683 71.7446C39.8451 71.3331 40.3721 71.0777 40.7592 71.3119Z" fill="black"/>
<path d="M24.3088 67.4089L25.6344 68.2106C25.7737 68.2947 25.9507 68.3135 26.1092 68.2613L27.617 67.7621C28.0151 67.6304 28.4139 67.9542 28.2914 68.3104L27.8283 69.6589C27.7795 69.8002 27.8137 69.9538 27.92 70.0688L28.9298 71.1664C29.1962 71.4563 28.9664 71.8875 28.541 71.8956L26.9287 71.9275C26.7598 71.9311 26.6031 72.0066 26.5108 72.1302L25.6269 73.3079C25.3936 73.619 24.8532 73.5613 24.7122 73.2101L24.1794 71.8814C24.1237 71.7421 23.9925 71.6356 23.8294 71.5966L22.2734 71.2267C21.8625 71.1289 21.7587 70.6622 22.097 70.4372L23.3796 69.5839C23.5143 69.4942 23.5897 69.3528 23.5816 69.2053L23.5039 67.7991C23.483 67.4277 23.9589 67.1971 24.3088 67.4089Z" fill="black"/>
<path d="M65.7796 73.9191L66.465 74.3787C66.6397 74.4962 66.8695 74.5307 67.0796 74.4714L67.9015 74.2393C68.4302 74.0898 68.9252 74.5348 68.7395 74.9918L68.4505 75.7028C68.3768 75.8842 68.4099 76.0859 68.5393 76.242L69.0465 76.8531C69.3727 77.2458 69.0413 77.7946 68.4859 77.7814L67.6223 77.7612C67.4018 77.7561 67.1922 77.8458 67.0628 78.0019L66.5544 78.6115C66.2276 79.0037 65.5271 78.8978 65.3698 78.4331L65.1249 77.7095C65.0622 77.5245 64.8997 77.3786 64.6902 77.3193L63.869 77.0852C63.3408 76.9347 63.2393 76.321 63.6972 76.0464L64.4099 75.6192C64.5916 75.5102 64.7007 75.3298 64.7007 75.1373L64.7018 74.3827C64.7018 73.8973 65.3391 73.6236 65.7796 73.9191Z" fill="black"/>
</g>
<path d="M53.3156 56.5223L55.6279 57.9625C55.8809 58.12 56.2065 58.1586 56.4984 58.0663L59.1682 57.2196C59.9041 56.9865 60.6267 57.5905 60.391 58.2427L59.5367 60.6081C59.4433 60.8671 59.5013 61.1493 59.6928 61.3632L61.4404 63.3187C61.9221 63.8573 61.4868 64.6443 60.7039 64.6504L57.8635 64.6722C57.553 64.6747 57.2634 64.8105 57.0893 65.035L55.499 67.0903C55.0608 67.6569 54.0695 67.5388 53.8211 66.8907L52.9198 64.5389C52.8212 64.2815 52.5838 64.0828 52.2849 64.0078L49.5548 63.3227C48.8026 63.1337 48.625 62.2738 49.2541 61.8674L51.5374 60.3923C51.7875 60.2306 51.9303 59.9727 51.9192 59.7011L51.8217 57.2226C51.7962 56.5385 52.6784 56.125 53.3156 56.5223Z" fill="#FFE600"/>
<path d="M94.6114 64.2418L94.6764 66.8723C94.6827 67.1241 94.8302 67.3572 95.0716 67.4956L97.5899 68.9398C98.1969 69.2879 98.0832 70.0931 97.3972 70.3024L94.5522 71.1694C94.28 71.2525 94.0716 71.4471 93.9956 71.6904L93.2005 74.2281C93.0089 74.8402 92.0966 74.9943 91.6566 74.4896L89.8331 72.3952C89.6584 72.1946 89.3821 72.0821 89.0937 72.0937L86.0839 72.2179C85.3578 72.2478 84.908 71.5378 85.3224 71.0169L87.0403 68.8556C87.2046 68.6489 87.2423 68.3844 87.1401 68.1488L86.0751 65.688C85.818 65.0946 86.4524 64.5017 87.1483 64.6847L90.0333 65.4433C90.3096 65.5157 90.6091 65.4651 90.8343 65.3075L93.186 63.6626C93.7536 63.2643 94.5957 63.6079 94.6114 64.2418Z" fill="#FFE600"/>
<path d="M125.701 62.4157L125.713 62.8879C125.717 63.0815 125.831 63.2599 126.016 63.3663L126.469 63.6258C126.935 63.8928 126.848 64.511 126.321 64.6717L125.81 64.8272C125.601 64.8911 125.441 65.0406 125.383 65.2271L125.24 65.6831C125.093 66.1529 124.393 66.2714 124.056 65.8838L123.729 65.5073C123.594 65.3532 123.382 65.2666 123.161 65.2757L122.62 65.298C122.063 65.3208 121.718 64.7761 122.036 64.3762L122.344 63.9881C122.471 63.829 122.499 63.6263 122.421 63.4454L122.229 63.0035C122.032 62.5479 122.519 62.0929 123.053 62.2332L123.571 62.3695C123.783 62.4253 124.014 62.3863 124.186 62.2657L124.608 61.9702C125.043 61.6652 125.689 61.9287 125.701 62.4157Z" fill="#FFE600"/>
<path d="M110.478 54.0892L110.499 54.9142C110.502 55.0622 110.589 55.199 110.731 55.28L111.521 55.7331C111.877 55.9378 111.81 56.4106 111.407 56.5332L110.515 56.8048C110.355 56.8535 110.233 56.968 110.189 57.1104L109.939 57.906C109.826 58.2652 109.291 58.356 109.032 58.0595L108.461 57.4028C108.358 57.2852 108.196 57.2188 108.027 57.2259L107.083 57.2649C106.657 57.2827 106.392 56.8656 106.636 56.5596L107.175 55.8815C107.271 55.7599 107.293 55.6049 107.233 55.4665L106.899 54.6948C106.748 54.3461 107.121 53.998 107.529 54.1054L108.434 54.3431C108.597 54.3857 108.772 54.3558 108.904 54.2635L109.642 53.7477C109.975 53.5151 110.47 53.7168 110.478 54.0892Z" fill="#FFE600"/>
<path d="M134.785 70.4021L134.797 70.8694C134.801 71.0634 134.915 71.2428 135.101 71.3492L135.548 71.6057C136.016 71.8737 135.929 72.494 135.4 72.6551L134.895 72.8092C134.685 72.873 134.525 73.023 134.466 73.2105L134.325 73.6615C134.178 74.1328 133.475 74.2518 133.136 73.8627L132.813 73.4907C132.678 73.3362 132.465 73.2495 132.243 73.2586L131.709 73.2809C131.15 73.3037 130.803 72.7575 131.122 72.3556L131.427 71.9715C131.554 71.8119 131.583 71.6082 131.504 71.4268L131.315 70.9895C131.117 70.5324 131.606 70.0758 132.142 70.2167L132.654 70.3515C132.867 70.4077 133.097 70.3682 133.271 70.2471L133.689 69.9547C134.125 69.6491 134.773 69.9137 134.785 70.4021Z" fill="#FFE600"/>
<path d="M110.481 71.1632L110.497 71.825C110.501 71.9937 110.6 72.1503 110.762 72.243L111.395 72.6064C111.803 72.84 111.726 73.3796 111.267 73.52L110.55 73.7379C110.367 73.7936 110.228 73.9239 110.177 74.087L109.977 74.7255C109.849 75.136 109.237 75.2394 108.942 74.9009L108.483 74.3739C108.366 74.2396 108.181 74.1636 107.987 74.1717L107.23 74.2026C106.743 74.2229 106.442 73.7465 106.719 73.3974L107.152 72.8536C107.262 72.7148 107.287 72.5374 107.218 72.3793L106.95 71.7601C106.778 71.3623 107.203 70.9645 107.67 71.0872L108.396 71.2782C108.581 71.3268 108.782 71.2929 108.933 71.1875L109.525 70.7735C109.906 70.5079 110.47 70.738 110.481 71.1632Z" fill="#FFE600"/>
<path d="M93.5656 53.6863L93.7241 54.5026C93.7525 54.648 93.8611 54.7722 94.0137 54.8345L94.8738 55.1832C95.2598 55.3397 95.2726 55.8146 94.8959 55.9868L94.0555 56.3705C93.9058 56.4389 93.8042 56.5671 93.7839 56.7135L93.6695 57.5354C93.6185 57.9043 93.1048 58.0619 92.8007 57.802L92.1228 57.2228C92.0021 57.1194 91.8309 57.0748 91.6649 57.1032L90.7346 57.2623C90.3167 57.3338 89.987 56.9562 90.1757 56.6233L90.597 55.8815C90.6719 55.7492 90.6678 55.5931 90.5854 55.4644L90.1246 54.7408C89.9174 54.416 90.2273 54.0253 90.6481 54.0795L91.586 54.2001C91.7531 54.2214 91.922 54.1697 92.0369 54.0618L92.6823 53.4557C92.9731 53.1841 93.4948 53.3199 93.5656 53.6863Z" fill="#FFE600"/>
<path d="M73.1564 54.6229L73.4159 54.9822C73.5378 55.1509 73.7473 55.2569 73.9754 55.2645L74.4617 55.2817C75.0369 55.302 75.3358 55.8893 74.9672 56.2754L74.6561 56.6017C74.5099 56.7553 74.4594 56.9615 74.5215 57.1536L74.6532 57.5625C74.8088 58.0464 74.2615 58.4762 73.727 58.2897L73.2754 58.1321C73.063 58.0581 72.8227 58.0799 72.6329 58.1909L72.2284 58.4265C71.7496 58.7052 71.1123 58.3834 71.1501 57.8823L71.182 57.4586C71.1971 57.2595 71.099 57.0669 70.9197 56.9428L70.5378 56.6793C70.0862 56.3676 70.2395 55.7393 70.7978 55.6156L71.2691 55.5112C71.4908 55.4621 71.6701 55.3212 71.7496 55.1337L71.9185 54.7354C72.1176 54.2647 72.8494 54.1978 73.1564 54.6229Z" fill="#FFE600"/>
<path d="M40.5457 70.0418L41.4784 70.6058C41.5974 70.6778 41.7494 70.694 41.8852 70.6494L42.9462 70.2982C43.2874 70.1852 43.6287 70.4629 43.5242 70.7685L43.1981 71.7176C43.1563 71.8387 43.1859 71.97 43.2764 72.0688L43.9868 72.8411C44.2155 73.0894 44.0181 73.4588 43.6536 73.4664L42.519 73.4887C42.3739 73.4917 42.2404 73.5566 42.1609 73.6625L41.5387 74.491C41.3385 74.7575 40.8754 74.7079 40.7547 74.4074L40.3797 73.4725C40.3316 73.3529 40.2195 73.2616 40.0797 73.2287L38.9851 72.9683C38.6328 72.8846 38.5434 72.4848 38.8342 72.2912L39.7367 71.6908C39.8522 71.6142 39.9166 71.4926 39.9096 71.3665L39.8551 70.3768C39.8377 70.058 40.2457 69.8604 40.5457 70.0418Z" fill="#FFE600"/>
<path opacity="0.2" d="M17.2748 44.7298L17.9394 45.1317C18.0932 45.2244 18.2893 45.2457 18.464 45.1874L19.2197 44.9371C19.6602 44.7912 20.1007 45.1499 19.9655 45.5437L19.7333 46.2197C19.6793 46.3762 19.7176 46.5455 19.8343 46.6727L20.3404 47.223C20.6352 47.5438 20.381 48.0206 19.9103 48.0297L19.1024 48.0459C18.9156 48.0495 18.7426 48.1336 18.6399 48.2699L18.197 48.8603C17.9388 49.2044 17.341 49.1405 17.1854 48.7523L16.9185 48.0865C16.8564 47.9324 16.7119 47.8149 16.5314 47.7718L15.7513 47.5863C15.2969 47.4784 15.1814 46.962 15.5563 46.7127L16.1994 46.285C16.348 46.1862 16.4315 46.0296 16.4228 45.8665L16.3839 45.1616C16.3607 44.7511 16.8877 44.4957 17.2748 44.7298Z" fill="black"/>
<path d="M17.0652 43.4597L17.9979 44.0237C18.1169 44.0957 18.2695 44.1119 18.4048 44.0673L19.4657 43.7161C19.807 43.6031 20.1482 43.8808 20.0438 44.1864L19.7176 45.1355C19.6758 45.2566 19.7054 45.3879 19.7959 45.4867L20.5063 46.2589C20.735 46.5072 20.5377 46.8767 20.1732 46.8843L19.0385 46.9066C18.8934 46.9096 18.7594 46.9745 18.6804 47.0804L18.0583 47.9089C17.858 48.1754 17.3949 48.1258 17.2742 47.8253L16.8993 46.8903C16.8511 46.7708 16.7391 46.6795 16.5992 46.6466L15.5046 46.3861C15.1523 46.3025 15.0629 45.9022 15.3537 45.7091L16.2562 45.1087C16.3717 45.0321 16.4361 44.9105 16.4292 44.7843L16.3746 43.7947C16.3572 43.4764 16.7652 43.2783 17.0652 43.4597Z" fill="#FFE600"/>
<path opacity="0.2" d="M144.47 57.8236L143.805 58.2254C143.651 58.3187 143.455 58.3394 143.28 58.2817L142.524 58.0313C142.084 57.8854 141.643 58.2442 141.778 58.6379L142.011 59.3139C142.065 59.4705 142.026 59.6397 141.91 59.7674L141.403 60.3177C141.109 60.6385 141.363 61.1154 141.834 61.1245L142.641 61.1407C142.828 61.1442 143.001 61.2284 143.104 61.3647L143.547 61.955C143.805 62.2991 144.403 62.2353 144.558 61.8471L144.825 61.1812C144.887 61.0272 145.032 60.9096 145.213 60.8665L145.993 60.6811C146.447 60.5731 146.562 60.0568 146.188 59.8075L145.544 59.3798C145.396 59.281 145.312 59.1244 145.321 58.9612L145.36 58.2563C145.384 57.8449 144.857 57.5895 144.47 57.8236Z" fill="black"/>
<path d="M144.687 56.5535L143.755 57.1175C143.636 57.1894 143.484 57.2056 143.348 57.1611L142.287 56.8099C141.946 56.6969 141.604 56.9746 141.709 57.2796L142.035 58.2288C142.077 58.3499 142.047 58.4811 141.957 58.5799L141.246 59.3522C141.018 59.6005 141.215 59.9699 141.579 59.9775L142.714 59.9998C142.859 60.0029 142.993 60.0677 143.072 60.1736L143.694 61.0021C143.895 61.2687 144.358 61.219 144.478 60.9185L144.853 59.9836C144.901 59.864 145.013 59.7728 145.153 59.7399L146.248 59.4794C146.6 59.3958 146.69 58.996 146.399 58.8024L145.496 58.2019C145.381 58.1254 145.316 58.0038 145.323 57.8776L145.378 56.8879C145.395 56.5702 144.987 56.3721 144.687 56.5535Z" fill="#FFE600"/>
<path opacity="0.2" d="M133.278 45.402L132.614 45.8038C132.46 45.8971 132.264 45.9179 132.088 45.8601L131.333 45.6098C130.892 45.4638 130.452 45.8226 130.587 46.2163L130.819 46.8923C130.873 47.0489 130.835 47.2182 130.718 47.3458L130.212 47.8962C129.917 48.2169 130.171 48.6938 130.642 48.7029L131.45 48.7191C131.637 48.7227 131.81 48.8068 131.913 48.9431L132.355 49.5334C132.614 49.8775 133.211 49.8137 133.367 49.4255L133.634 48.7596C133.696 48.6056 133.841 48.488 134.021 48.445L134.801 48.2595C135.256 48.1516 135.371 47.6352 134.996 47.3859L134.353 46.9582C134.204 46.8594 134.121 46.7028 134.13 46.5396L134.169 45.8347C134.192 45.4228 133.665 45.1674 133.278 45.402Z" fill="black"/>
<path d="M133.492 44.1356L132.559 44.6996C132.44 44.7715 132.288 44.7878 132.152 44.7432L131.092 44.392C130.75 44.279 130.408 44.5567 130.513 44.8622L130.84 45.8114C130.881 45.9325 130.852 46.0637 130.761 46.1625L130.051 46.9348C129.822 47.1831 130.02 47.5525 130.384 47.5601L131.519 47.5824C131.664 47.5855 131.797 47.6503 131.877 47.7562L132.499 48.5847C132.699 48.8513 133.162 48.8021 133.283 48.5011L133.658 47.5662C133.706 47.4466 133.818 47.3554 133.958 47.3225L135.053 47.062C135.405 46.9784 135.494 46.5786 135.204 46.385L134.301 45.7845C134.186 45.708 134.121 45.5864 134.128 45.4602L134.183 44.4705C134.2 44.1518 133.792 43.9542 133.492 44.1356Z" fill="#FFE600"/>
<path opacity="0.2" d="M71.3115 45.1511L72.0863 45.6193C72.2657 45.7277 72.4943 45.752 72.698 45.6846L73.579 45.3928C74.0921 45.223 74.6063 45.6406 74.4485 46.0997L74.1774 46.8877C74.1147 47.0701 74.1589 47.2677 74.2952 47.4157L74.8855 48.0572C75.2291 48.4312 74.9331 48.9866 74.384 48.9977L73.4421 49.0165C73.2244 49.0205 73.0225 49.1183 72.9029 49.2774L72.3864 49.9656C72.0857 50.3664 71.3887 50.2924 71.207 49.8399L70.8954 49.0636C70.8234 48.8837 70.6545 48.7469 70.4444 48.6967L69.5355 48.4808C69.0057 48.3547 68.8716 47.7532 69.308 47.4628L70.0573 46.9642C70.2308 46.8486 70.3278 46.6662 70.3173 46.4762L70.272 45.6542C70.2465 45.1754 70.86 44.8779 71.3115 45.1511Z" fill="black"/>
<path d="M71.0631 43.6703L72.1507 44.3276C72.2894 44.4117 72.467 44.4305 72.6249 44.3783L73.8617 43.9688C74.2593 43.8371 74.6574 44.1609 74.5355 44.5166L74.1554 45.6228C74.1066 45.7642 74.1409 45.9172 74.2471 46.0323L75.0753 46.9327C75.3417 47.2226 75.1118 47.6528 74.687 47.6614L73.3649 47.6878C73.196 47.6913 73.0399 47.7668 72.947 47.8905L72.2221 48.8563C71.9888 49.167 71.4491 49.1092 71.3086 48.759L70.8716 47.669C70.8159 47.5297 70.6853 47.4233 70.5222 47.3847L69.2459 47.0812C68.8356 46.9834 68.7311 46.5172 69.0695 46.2922L70.1217 45.5924C70.2558 45.5032 70.3312 45.3613 70.3231 45.2144L70.2593 44.0611C70.2378 43.6896 70.7137 43.459 71.0631 43.6703Z" fill="#FFE600"/>
<path d="M24.3389 66.2866L25.6268 67.0654C25.7707 67.1526 25.9541 67.1718 26.1178 67.1176L27.5827 66.6327C27.9947 66.4963 28.4074 66.8318 28.2803 67.2002L27.8299 68.5106C27.7794 68.6571 27.8148 68.8157 27.9245 68.9348L28.9054 70.0015C29.181 70.3014 28.9437 70.7474 28.5026 70.7565L26.9361 70.7874C26.7614 70.791 26.5995 70.8695 26.5037 70.9972L25.6448 72.1414C25.4033 72.4632 24.8439 72.4034 24.6982 72.0406L24.1805 70.7494C24.1224 70.605 23.9872 70.495 23.8183 70.455L22.3064 70.0957C21.881 69.9944 21.7731 69.5114 22.1242 69.2783L23.3703 68.4493C23.5096 68.3566 23.5873 68.2101 23.5792 68.0576L23.5038 66.6914C23.4835 66.3063 23.9762 66.0676 24.3389 66.2866Z" fill="#FFE600"/>
<path d="M65.6599 72.6983L66.495 73.2588C66.6506 73.3631 66.8549 73.394 67.0417 73.3413L68.0441 73.0581C68.5142 72.9253 68.9547 73.3206 68.7893 73.727L68.437 74.594C68.3714 74.7557 68.401 74.9345 68.5159 75.0734L69.134 75.8183C69.4236 76.1674 69.1294 76.6554 68.6355 76.6438L67.5827 76.6194C67.3865 76.6149 67.2002 76.6949 67.0847 76.8333L66.4643 77.5767C66.1735 77.9253 65.5507 77.8316 65.4109 77.4181L65.112 76.5358C65.0563 76.3716 64.9118 76.2419 64.7255 76.1887L63.7237 75.9034C63.2542 75.7696 63.1642 75.2239 63.5711 74.9796L64.4393 74.4592C64.6013 74.3624 64.6976 74.2018 64.6982 74.0305L64.6993 73.1108C64.7011 72.6795 65.2675 72.4358 65.6599 72.6983Z" fill="#FFE600"/>
<path d="M18.127 85.7431C18.5078 85.7431 18.8165 85.4735 18.8165 85.1411C18.8165 84.8086 18.5078 84.5391 18.127 84.5391C17.7462 84.5391 17.4375 84.8086 17.4375 85.1411C17.4375 85.4735 17.7462 85.7431 18.127 85.7431Z" fill="white"/>
<path d="M13.9697 58.826C13.9697 59.4224 13.416 59.9058 12.7329 59.9058C12.0498 59.9058 11.4961 59.4224 11.4961 58.826C11.4961 58.2295 12.0498 57.7461 12.7329 57.7461C13.416 57.7461 13.9697 58.2295 13.9697 58.826Z" fill="#FFE600"/>
<path d="M48.5078 46.5454C48.5078 47.2482 47.8555 47.8178 47.0505 47.8178C46.2455 47.8178 45.5938 47.2482 45.5938 46.5454C45.5938 45.8425 46.2461 45.2734 47.0505 45.2734C47.8555 45.2729 48.5078 45.8425 48.5078 46.5454Z" fill="white"/>
<path d="M96.8095 47.2677C96.8095 47.5885 96.5118 47.8479 96.145 47.8479C95.7776 47.8479 95.4805 47.588 95.4805 47.2677C95.4805 46.9475 95.7782 46.6875 96.145 46.6875C96.5118 46.6875 96.8095 46.947 96.8095 47.2677Z" fill="#FC5C63"/>
<path d="M145.749 63.2566C145.749 63.6529 145.381 63.9741 144.927 63.9741C144.473 63.9741 144.105 63.6529 144.105 63.2566C144.105 62.8603 144.473 62.5391 144.927 62.5391C145.381 62.5391 145.749 62.8603 145.749 63.2566Z" fill="white"/>
<path d="M116.278 62.5814C116.278 62.9933 115.895 63.3268 115.424 63.3268C114.952 63.3268 114.57 62.9928 114.57 62.5814C114.57 62.1694 114.953 61.8359 115.424 61.8359C115.895 61.8354 116.278 62.1694 116.278 62.5814Z" fill="#FC5C63"/>
<path d="M161.252 79.7392C161.659 79.7392 161.989 79.4513 161.989 79.0962C161.989 78.741 161.659 78.4531 161.252 78.4531C160.845 78.4531 160.516 78.741 160.516 79.0962C160.516 79.4513 160.845 79.7392 161.252 79.7392Z" fill="#FFE600"/>
<path d="M148.303 51.0861C148.787 51.0861 149.18 50.7432 149.18 50.3204C149.18 49.8975 148.787 49.5547 148.303 49.5547C147.818 49.5547 147.426 49.8975 147.426 50.3204C147.426 50.7432 147.818 51.0861 148.303 51.0861Z" fill="#FC5C63"/>
<path d="M112.851 49.9464C112.851 50.2449 112.574 50.4866 112.232 50.4866C111.89 50.4866 111.613 50.2444 111.613 49.9464C111.613 49.648 111.89 49.4062 112.232 49.4062C112.574 49.4062 112.851 49.648 112.851 49.9464Z" fill="white"/>
<path d="M34.6756 49.7606C34.6756 50.0986 34.3617 50.3727 33.9745 50.3727C33.5874 50.3727 33.2734 50.0986 33.2734 49.7606C33.2734 49.4226 33.5874 49.1484 33.9745 49.1484C34.3617 49.1484 34.6756 49.4226 34.6756 49.7606Z" fill="#FC5C63"/>
<path d="M48.8683 68.8591C49.1969 68.8591 49.4632 68.6266 49.4632 68.3397C49.4632 68.0529 49.1969 67.8203 48.8683 67.8203C48.5398 67.8203 48.2734 68.0529 48.2734 68.3397C48.2734 68.6266 48.5398 68.8591 48.8683 68.8591Z" fill="#FC5C63"/>
<path d="M86.908 62.3143C86.908 62.7339 86.5185 63.0739 86.038 63.0739C85.5574 63.0739 85.168 62.7339 85.168 62.3143C85.168 61.8947 85.5574 61.5547 86.038 61.5547C86.5185 61.5547 86.908 61.8947 86.908 62.3143Z" fill="#FC5C63"/>
<path d="M97.8413 76.331C97.8413 76.6199 97.5731 76.8535 97.2429 76.8535C96.9121 76.8535 96.6445 76.6194 96.6445 76.331C96.6445 76.0422 96.9127 75.8086 97.2429 75.8086C97.5731 75.8086 97.8413 76.0422 97.8413 76.331Z" fill="#FFE600"/>
<path d="M1.57979 52.0373C1.57979 52.4184 1.22634 52.727 0.789896 52.727C0.353451 52.727 0 52.4184 0 52.0373C0 51.6563 0.353451 51.3477 0.789896 51.3477C1.22634 51.3477 1.57979 51.6563 1.57979 52.0373Z" fill="#FFE600"/>
<path d="M0.623461 82.1143C0.937585 82.1143 1.19223 81.892 1.19223 81.6177C1.19223 81.3434 0.937585 81.1211 0.623461 81.1211C0.309337 81.1211 0.0546875 81.3434 0.0546875 81.6177C0.0546875 81.892 0.309337 82.1143 0.623461 82.1143Z" fill="white"/>
<path d="M155.682 55.8151C155.682 56.1359 155.384 56.3958 155.017 56.3958C154.649 56.3958 154.352 56.1359 154.352 55.8151C154.352 55.4943 154.649 55.2344 155.017 55.2344C155.384 55.2344 155.682 55.4943 155.682 55.8151Z" fill="#FFE600"/>
<defs>
<filter id="filter0_d_3054_49788" x="75.3477" y="105.359" width="34.8672" height="49.2266" filterUnits="userSpaceOnUse" color-interpolation-filters="sRGB">
<feFlood flood-opacity="0" result="BackgroundImageFix"/>
<feColorMatrix in="SourceAlpha" type="matrix" values="0 0 0 0 0 0 0 0 0 0 0 0 0 0 0 0 0 0 127 0" result="hardAlpha"/>
<feOffset dy="4"/>
<feGaussianBlur stdDeviation="2"/>
<feComposite in2="hardAlpha" operator="out"/>
<feColorMatrix type="matrix" values="0 0 0 0 0 0 0 0 0 0 0 0 0 0 0 0 0 0 0.25 0"/>
<feBlend mode="normal" in2="BackgroundImageFix" result="effect1_dropShadow_3054_49788"/>
<feBlend mode="normal" in="SourceGraphic" in2="effect1_dropShadow_3054_49788" result="shape"/>
</filter>
<radialGradient id="paint0_radial_3054_49788" cx="0" cy="0" r="1" gradientUnits="userSpaceOnUse" gradientTransform="translate(77.8526 82.8067) scale(75.3926 65.8266)">
<stop stop-color="white"/>
<stop offset="1" stop-color="white" stop-opacity="0"/>
</radialGradient>
<radialGradient id="paint1_radial_3054_49788" cx="0" cy="0" r="1" gradientUnits="userSpaceOnUse" gradientTransform="translate(77.8542 82.805) scale(75.3923 65.8263)">
<stop stop-color="white"/>
<stop offset="1" stop-color="white" stop-opacity="0"/>
</radialGradient>
<radialGradient id="paint2_radial_3054_49788" cx="0" cy="0" r="1" gradientUnits="userSpaceOnUse" gradientTransform="translate(77.8557 82.8069) scale(75.3923 65.8263)">
<stop stop-color="white"/>
<stop offset="1" stop-color="white" stop-opacity="0"/>
</radialGradient>
<radialGradient id="paint3_radial_3054_49788" cx="0" cy="0" r="1" gradientUnits="userSpaceOnUse" gradientTransform="translate(77.8528 82.8066) scale(75.3926 65.8266)">
<stop stop-color="white"/>
<stop offset="1" stop-color="white" stop-opacity="0"/>
</radialGradient>
<radialGradient id="paint4_radial_3054_49788" cx="0" cy="0" r="1" gradientUnits="userSpaceOnUse" gradientTransform="translate(77.8524 82.8078) scale(75.3924 65.8264)">
<stop stop-color="white"/>
<stop offset="1" stop-color="white" stop-opacity="0"/>
</radialGradient>
<radialGradient id="paint5_radial_3054_49788" cx="0" cy="0" r="1" gradientUnits="userSpaceOnUse" gradientTransform="translate(77.8526 82.8052) scale(75.3926 65.8266)">
<stop stop-color="white"/>
<stop offset="1" stop-color="white" stop-opacity="0"/>
</radialGradient>
<radialGradient id="paint6_radial_3054_49788" cx="0" cy="0" r="1" gradientUnits="userSpaceOnUse" gradientTransform="translate(77.8562 82.805) scale(75.3924 65.8264)">
<stop stop-color="white"/>
<stop offset="1" stop-color="white" stop-opacity="0"/>
</radialGradient>
<radialGradient id="paint7_radial_3054_49788" cx="0" cy="0" r="1" gradientUnits="userSpaceOnUse" gradientTransform="translate(77.8533 82.8055) scale(75.3923 65.8263)">
<stop stop-color="white"/>
<stop offset="1" stop-color="white" stop-opacity="0"/>
</radialGradient>
<radialGradient id="paint8_radial_3054_49788" cx="0" cy="0" r="1" gradientUnits="userSpaceOnUse" gradientTransform="translate(77.8549 82.8068) scale(75.3923 65.8263)">
<stop stop-color="white"/>
<stop offset="1" stop-color="white" stop-opacity="0"/>
</radialGradient>
<radialGradient id="paint9_radial_3054_49788" cx="0" cy="0" r="1" gradientUnits="userSpaceOnUse" gradientTransform="translate(77.8538 82.8075) scale(75.3928 65.8267)">
<stop stop-color="white"/>
<stop offset="1" stop-color="white" stop-opacity="0"/>
</radialGradient>
<radialGradient id="paint10_radial_3054_49788" cx="0" cy="0" r="1" gradientUnits="userSpaceOnUse" gradientTransform="translate(77.8566 82.8074) scale(75.3923 65.8263)">
<stop stop-color="white"/>
<stop offset="1" stop-color="white" stop-opacity="0"/>
</radialGradient>
<radialGradient id="paint11_radial_3054_49788" cx="0" cy="0" r="1" gradientUnits="userSpaceOnUse" gradientTransform="translate(77.8553 82.8067) scale(75.392 65.826)">
<stop stop-color="white"/>
<stop offset="1" stop-color="white" stop-opacity="0"/>
</radialGradient>
</defs>
</svg>
