<svg width="24" height="24" viewBox="0 0 24 24" fill="none" xmlns="http://www.w3.org/2000/svg">
<rect width="24" height="24" rx="8" fill="white" fill-opacity="0.6"/>
<g clip-path="url(#clip0_5571_35850)">
<g clip-path="url(#clip1_5571_35850)">
<path d="M12 23.4844C18.3426 23.4844 23.4844 18.3426 23.4844 12C23.4844 5.65735 18.3426 0.515625 12 0.515625C5.65735 0.515625 0.515625 5.65735 0.515625 12C0.515625 18.3426 5.65735 23.4844 12 23.4844Z" fill="#A6A6A6"/>
<path d="M17.835 21.8942C16.0682 22.939 14.0526 23.4885 12 23.4852C5.65735 23.4852 0.515635 18.3434 0.515635 12.0008C0.513723 10.521 0.798831 9.05484 1.35517 7.68359C4.15454 14.758 10.297 20.1444 17.835 21.8942Z" fill="#7B7B7B"/>
<path d="M12 23.7656C11.9254 23.7656 11.8539 23.736 11.8011 23.6832C11.7484 23.6305 11.7188 23.559 11.7188 23.4844V20.2031C11.7188 20.1285 11.7484 20.057 11.8011 20.0043C11.8539 19.9515 11.9254 19.9219 12 19.9219C12.0746 19.9219 12.1461 19.9515 12.1989 20.0043C12.2516 20.057 12.2812 20.1285 12.2812 20.2031V23.4844C12.2812 23.559 12.2516 23.6305 12.1989 23.6832C12.1461 23.736 12.0746 23.7656 12 23.7656Z" fill="#F7F5FB"/>
<path d="M12 4.07812C11.9254 4.07812 11.8539 4.04849 11.8011 3.99575C11.7484 3.943 11.7188 3.87147 11.7188 3.79688V0.515625C11.7188 0.441033 11.7484 0.369496 11.8011 0.316751C11.8539 0.264007 11.9254 0.234375 12 0.234375C12.0746 0.234375 12.1461 0.264007 12.1989 0.316751C12.2516 0.369496 12.2812 0.441033 12.2812 0.515625V3.79688C12.2812 3.87147 12.2516 3.943 12.1989 3.99575C12.1461 4.04849 12.0746 4.07812 12 4.07812Z" fill="#F7F5FB"/>
<path d="M23.4844 12.2812H20.2031C20.1285 12.2812 20.057 12.2516 20.0043 12.1989C19.9515 12.1461 19.9219 12.0746 19.9219 12C19.9219 11.9254 19.9515 11.8539 20.0043 11.8011C20.057 11.7484 20.1285 11.7188 20.2031 11.7188H23.4844C23.559 11.7188 23.6305 11.7484 23.6832 11.8011C23.736 11.8539 23.7656 11.9254 23.7656 12C23.7656 12.0746 23.736 12.1461 23.6832 12.1989C23.6305 12.2516 23.559 12.2812 23.4844 12.2812Z" fill="#F7F5FB"/>
<path d="M3.79688 12.2812H0.515625C0.441033 12.2812 0.369496 12.2516 0.316751 12.1989C0.264007 12.1461 0.234375 12.0746 0.234375 12C0.234375 11.9254 0.264007 11.8539 0.316751 11.8011C0.369496 11.7484 0.441033 11.7188 0.515625 11.7188H3.79688C3.87147 11.7188 3.943 11.7484 3.99575 11.8011C4.04849 11.8539 4.07812 11.9254 4.07812 12C4.07812 12.0746 4.04849 12.1461 3.99575 12.1989C3.943 12.2516 3.87147 12.2812 3.79688 12.2812Z" fill="#F7F5FB"/>
<path d="M20.1203 20.402C20.0458 20.402 19.9743 20.3723 19.9216 20.3195L17.5989 17.9964C17.5492 17.9431 17.5222 17.8726 17.5235 17.7997C17.5248 17.7269 17.5543 17.6573 17.6058 17.6058C17.6573 17.5543 17.7269 17.5248 17.7997 17.5235C17.8726 17.5222 17.9431 17.5492 17.9964 17.5989L20.3191 19.922C20.3584 19.9614 20.3851 20.0115 20.3959 20.066C20.4068 20.1205 20.4012 20.177 20.3799 20.2284C20.3587 20.2798 20.3227 20.3237 20.2765 20.3546C20.2302 20.3855 20.1759 20.402 20.1203 20.402Z" fill="#F7F5FB"/>
<path d="M6.20318 6.48466C6.12861 6.4846 6.05712 6.45492 6.00443 6.40216L3.68177 4.0795C3.65529 4.05348 3.63423 4.02247 3.61979 3.98827C3.60535 3.95406 3.59783 3.91734 3.59766 3.88021C3.59749 3.84309 3.60467 3.8063 3.61878 3.77196C3.6329 3.73762 3.65368 3.70642 3.67992 3.68015C3.70615 3.65388 3.73733 3.63307 3.77165 3.61891C3.80597 3.60475 3.84276 3.59753 3.87988 3.59766C3.91701 3.59779 3.95374 3.60527 3.98796 3.61966C4.02219 3.63406 4.05322 3.65509 4.07927 3.68154L6.40193 6.00466C6.44121 6.04399 6.46796 6.09409 6.47879 6.14861C6.48962 6.20313 6.48405 6.25965 6.46279 6.31101C6.44152 6.36237 6.40551 6.40628 6.3593 6.43718C6.3131 6.46809 6.25877 6.48461 6.20318 6.48466Z" fill="#F7F5FB"/>
<path d="M17.7966 6.48143C17.741 6.48138 17.6867 6.46486 17.6405 6.43395C17.5943 6.40305 17.5583 6.35914 17.537 6.30778C17.5158 6.25642 17.5102 6.19991 17.521 6.14538C17.5318 6.09086 17.5586 6.04077 17.5979 6.00143L19.9205 3.67831C19.9735 3.6263 20.0448 3.59731 20.119 3.59766C20.1932 3.598 20.2642 3.62765 20.3167 3.68015C20.3691 3.73265 20.3987 3.80373 20.3989 3.87793C20.3992 3.95213 20.3701 4.02342 20.318 4.07628L17.9954 6.3994C17.9426 6.45199 17.8711 6.48149 17.7966 6.48143Z" fill="#F7F5FB"/>
<path d="M3.87866 20.402C3.82307 20.402 3.76874 20.3855 3.72253 20.3546C3.67633 20.3237 3.64032 20.2798 3.61905 20.2284C3.59778 20.177 3.59222 20.1205 3.60305 20.066C3.61388 20.0115 3.64063 19.9614 3.67991 19.922L6.00257 17.5989C6.05588 17.5492 6.1264 17.5222 6.19926 17.5235C6.27212 17.5248 6.34164 17.5543 6.39317 17.6058C6.4447 17.6573 6.47422 17.7269 6.47551 17.7997C6.47679 17.8726 6.44975 17.9431 6.40007 17.9964L4.07741 20.3195C4.02471 20.3723 3.95323 20.402 3.87866 20.402Z" fill="#F7F5FB"/>
<path d="M12 20.2031C16.5305 20.2031 20.2031 16.5305 20.2031 12C20.2031 7.46954 16.5305 3.79688 12 3.79688C7.46954 3.79688 3.79688 7.46954 3.79688 12C3.79688 16.5305 7.46954 20.2031 12 20.2031Z" fill="#E0E0E0"/>
<path d="M8.41016 13.7773H15.5933C15.5933 14.1422 15.4483 14.4922 15.1903 14.7502C14.9323 15.0082 14.5824 15.1531 14.2175 15.1531H9.78594C9.42106 15.1531 9.07112 15.0082 8.81311 14.7502C8.5551 14.4922 8.41016 14.1422 8.41016 13.7773Z" fill="#E0E0E0"/>
<path d="M16.8802 9.18979C16.6783 9.18979 16.4848 9.26993 16.342 9.41259C16.1993 9.55525 16.119 9.74876 16.1189 9.95057C16.1189 10.1381 16.2998 10.4432 16.2998 10.4428L14.4544 12.1209L12.398 10.2515C12.5373 10.1645 12.6447 10.0348 12.7043 9.88174C12.7638 9.72869 12.7724 9.56048 12.7285 9.4022C12.6847 9.24391 12.5909 9.10404 12.4611 9.00342C12.3313 8.9028 12.1724 8.84684 12.0082 8.84387C11.844 8.84091 11.6832 8.8911 11.5498 8.98696C11.4165 9.08282 11.3177 9.21921 11.2682 9.37581C11.2186 9.5324 11.2211 9.70081 11.2751 9.85592C11.3291 10.011 11.4317 10.1445 11.5678 10.2365L9.53344 12.1209L7.66266 10.4198C7.66266 10.4198 7.88391 10.0917 7.88391 9.88354C7.88372 9.72365 7.83313 9.56789 7.73933 9.4384C7.64554 9.30892 7.51331 9.21229 7.36144 9.16228C7.20958 9.11226 7.04581 9.11139 6.89342 9.15979C6.74103 9.2082 6.60778 9.30341 6.51262 9.4319C6.41745 9.56038 6.36522 9.7156 6.36333 9.87548C6.36145 10.0354 6.41002 10.1918 6.50214 10.3225C6.59425 10.4531 6.72522 10.5515 6.87642 10.6034C7.02763 10.6554 7.19137 10.6584 7.34437 10.612L7.86469 12.1209L8.43562 13.777H15.6192L16.1616 12.1209C16.1616 12.1209 16.6303 10.6678 16.6266 10.6678C16.731 10.7045 16.8422 10.718 16.9524 10.7073C17.0625 10.6967 17.1691 10.6621 17.2645 10.606C17.36 10.5499 17.442 10.4737 17.5049 10.3826C17.5679 10.2915 17.6102 10.1878 17.6289 10.0787C17.6476 9.96961 17.6423 9.85774 17.6133 9.7509C17.5843 9.64406 17.5324 9.54483 17.4611 9.46015C17.3898 9.37546 17.3009 9.30735 17.2005 9.26057C17.1002 9.2138 16.9909 9.18948 16.8802 9.18932V9.18979Z" fill="#A6A6A6"/>
<path d="M12.918 20.1531C12.6127 20.1872 12.3059 20.2043 11.9987 20.2042C7.57047 20.2042 3.95078 16.6773 3.80078 12.2852C6.10601 15.6542 9.24794 18.3656 12.918 20.1531Z" fill="#EBEBEB"/>
</g>
</g>
<defs>
<clipPath id="clip0_5571_35850">
<rect width="24" height="24" rx="8" fill="white"/>
</clipPath>
<clipPath id="clip1_5571_35850">
<rect width="24" height="24" fill="white"/>
</clipPath>
</defs>
</svg>
