<svg width="30" height="33" viewBox="0 0 30 33" fill="none" xmlns="http://www.w3.org/2000/svg">
    <circle cx="14.5898" cy="16.5" r="14" fill="#FC5C63"/>
    <path d="M16.344 19.18C16.5607 19.18 16.7318 19.2407 16.8575 19.362C16.9832 19.479 17.046 19.635 17.046 19.83V21H10.39V20.35C10.39 20.2243 10.416 20.09 10.468 19.947C10.52 19.804 10.611 19.674 10.741 19.557L13.471 16.8075C13.705 16.5735 13.9087 16.3503 14.082 16.138C14.2553 15.9257 14.3983 15.7177 14.511 15.514C14.6237 15.306 14.7082 15.1002 14.7645 14.8965C14.8208 14.6885 14.849 14.4697 14.849 14.24C14.849 13.863 14.758 13.5748 14.576 13.3755C14.3983 13.1718 14.1253 13.07 13.757 13.07C13.458 13.07 13.2045 13.1502 12.9965 13.3105C12.7928 13.4665 12.652 13.6615 12.574 13.8955C12.483 14.1338 12.3638 14.292 12.2165 14.37C12.0692 14.448 11.859 14.4653 11.586 14.422L10.52 14.2335C10.5893 13.7612 10.7215 13.3495 10.9165 12.9985C11.1158 12.6475 11.3607 12.355 11.651 12.121C11.9457 11.887 12.2815 11.7137 12.6585 11.601C13.0355 11.484 13.4407 11.4255 13.874 11.4255C14.342 11.4255 14.7623 11.4948 15.135 11.6335C15.512 11.7678 15.8327 11.9563 16.097 12.199C16.3613 12.4417 16.5628 12.732 16.7015 13.07C16.8445 13.4037 16.916 13.772 16.916 14.175C16.916 14.5217 16.8662 14.8423 16.7665 15.137C16.6712 15.4317 16.539 15.7133 16.37 15.982C16.201 16.2463 16.0038 16.5042 15.7785 16.7555C15.5575 17.0025 15.3213 17.2538 15.07 17.5095L13.2175 19.4075C13.4558 19.3338 13.692 19.2775 13.926 19.2385C14.16 19.1995 14.3767 19.18 14.576 19.18H16.344Z" fill="white"/>
    </svg>
    
