<svg width="134" height="100" viewBox="0 0 134 100" fill="none" xmlns="http://www.w3.org/2000/svg">
<g filter="url(#filter0_dd_4957_33933)">
<path fill-rule="evenodd" clip-rule="evenodd" d="M68.2207 12.5807C67.5949 11.8064 66.4144 11.8064 65.7886 12.5807L59.584 20.2569C59.391 20.4957 59.2828 20.7618 59.2469 21.0294H28.6909C26.1002 21.0294 24 23.1296 24 25.7203V58.5567C24 61.1474 26.1002 63.2476 28.6909 63.2476H105.309C107.9 63.2476 110 61.1474 110 58.5567V25.7203C110 23.1296 107.9 21.0294 105.309 21.0294H74.7624C74.7266 20.7618 74.6183 20.4957 74.4253 20.2569L68.2207 12.5807Z" fill="white"/>
</g>
<path d="M48.224 33.456C49.024 33.456 49.756 33.576 50.42 33.816C51.084 34.048 51.652 34.38 52.124 34.812C52.596 35.244 52.964 35.764 53.228 36.372C53.492 36.98 53.624 37.656 53.624 38.4C53.624 39.04 53.528 39.632 53.336 40.176C53.152 40.72 52.9 41.24 52.58 41.736C52.268 42.232 51.9 42.712 51.476 43.176C51.052 43.64 50.608 44.112 50.144 44.592L46.232 48.588C46.616 48.476 46.992 48.392 47.36 48.336C47.728 48.272 48.08 48.24 48.416 48.24H52.868C53.188 48.24 53.44 48.332 53.624 48.516C53.816 48.692 53.912 48.928 53.912 49.224V51H42.008V50.016C42.008 49.816 42.048 49.608 42.128 49.392C42.216 49.176 42.352 48.976 42.536 48.792L47.804 43.512C48.244 43.064 48.636 42.636 48.98 42.228C49.332 41.82 49.624 41.416 49.856 41.016C50.096 40.616 50.276 40.212 50.396 39.804C50.524 39.388 50.588 38.952 50.588 38.496C50.588 38.08 50.528 37.716 50.408 37.404C50.288 37.084 50.116 36.816 49.892 36.6C49.668 36.384 49.4 36.224 49.088 36.12C48.784 36.008 48.44 35.952 48.056 35.952C47.344 35.952 46.756 36.132 46.292 36.492C45.836 36.852 45.516 37.336 45.332 37.944C45.244 38.248 45.112 38.468 44.936 38.604C44.76 38.732 44.536 38.796 44.264 38.796C44.144 38.796 44.012 38.784 43.868 38.76L42.308 38.484C42.428 37.652 42.66 36.924 43.004 36.3C43.348 35.668 43.776 35.144 44.288 34.728C44.808 34.304 45.4 33.988 46.064 33.78C46.736 33.564 47.456 33.456 48.224 33.456ZM67.7619 42.324C67.7619 43.836 67.5979 45.152 67.2699 46.272C66.9499 47.384 66.5019 48.304 65.9259 49.032C65.3579 49.76 64.6819 50.304 63.8979 50.664C63.1219 51.016 62.2819 51.192 61.3779 51.192C60.4739 51.192 59.6339 51.016 58.8579 50.664C58.0899 50.304 57.4219 49.76 56.8539 49.032C56.2859 48.304 55.8419 47.384 55.5219 46.272C55.2019 45.152 55.0419 43.836 55.0419 42.324C55.0419 40.804 55.2019 39.488 55.5219 38.376C55.8419 37.264 56.2859 36.344 56.8539 35.616C57.4219 34.888 58.0899 34.348 58.8579 33.996C59.6339 33.636 60.4739 33.456 61.3779 33.456C62.2819 33.456 63.1219 33.636 63.8979 33.996C64.6819 34.348 65.3579 34.888 65.9259 35.616C66.5019 36.344 66.9499 37.264 67.2699 38.376C67.5979 39.488 67.7619 40.804 67.7619 42.324ZM64.7019 42.324C64.7019 41.068 64.6099 40.028 64.4259 39.204C64.2419 38.38 63.9939 37.724 63.6819 37.236C63.3779 36.748 63.0259 36.408 62.6259 36.216C62.2259 36.016 61.8099 35.916 61.3779 35.916C60.9539 35.916 60.5419 36.016 60.1419 36.216C59.7499 36.408 59.4019 36.748 59.0979 37.236C58.7939 37.724 58.5499 38.38 58.3659 39.204C58.1899 40.028 58.1019 41.068 58.1019 42.324C58.1019 43.58 58.1899 44.62 58.3659 45.444C58.5499 46.268 58.7939 46.924 59.0979 47.412C59.4019 47.9 59.7499 48.244 60.1419 48.444C60.5419 48.636 60.9539 48.732 61.3779 48.732C61.8099 48.732 62.2259 48.636 62.6259 48.444C63.0259 48.244 63.3779 47.9 63.6819 47.412C63.9939 46.924 64.2419 46.268 64.4259 45.444C64.6099 44.62 64.7019 43.58 64.7019 42.324ZM80.7924 37.848C80.7924 38.504 80.6804 39.096 80.4564 39.624C80.2404 40.152 79.9484 40.604 79.5804 40.98C79.2124 41.348 78.7844 41.632 78.2964 41.832C77.8084 42.032 77.3004 42.132 76.7724 42.132C76.1964 42.132 75.6644 42.032 75.1764 41.832C74.6884 41.632 74.2644 41.348 73.9044 40.98C73.5524 40.604 73.2764 40.152 73.0764 39.624C72.8764 39.096 72.7764 38.504 72.7764 37.848C72.7764 37.176 72.8764 36.568 73.0764 36.024C73.2764 35.48 73.5524 35.02 73.9044 34.644C74.2644 34.268 74.6884 33.98 75.1764 33.78C75.6644 33.572 76.1964 33.468 76.7724 33.468C77.3484 33.468 77.8804 33.572 78.3684 33.78C78.8644 33.98 79.2924 34.268 79.6524 34.644C80.0124 35.02 80.2924 35.48 80.4924 36.024C80.6924 36.568 80.7924 37.176 80.7924 37.848ZM78.5004 37.848C78.5004 37.384 78.4564 36.996 78.3684 36.684C78.2804 36.372 78.1564 36.12 77.9964 35.928C77.8444 35.736 77.6604 35.6 77.4444 35.52C77.2364 35.432 77.0124 35.388 76.7724 35.388C76.5324 35.388 76.3084 35.432 76.1004 35.52C75.8924 35.6 75.7124 35.736 75.5604 35.928C75.4084 36.12 75.2884 36.372 75.2004 36.684C75.1204 36.996 75.0804 37.384 75.0804 37.848C75.0804 38.296 75.1204 38.672 75.2004 38.976C75.2884 39.272 75.4084 39.512 75.5604 39.696C75.7124 39.88 75.8924 40.012 76.1004 40.092C76.3084 40.172 76.5324 40.212 76.7724 40.212C77.0124 40.212 77.2364 40.172 77.4444 40.092C77.6604 40.012 77.8444 39.88 77.9964 39.696C78.1564 39.512 78.2804 39.272 78.3684 38.976C78.4564 38.672 78.5004 38.296 78.5004 37.848ZM86.5644 34.116C86.6604 33.996 86.7804 33.888 86.9244 33.792C87.0684 33.696 87.2684 33.648 87.5244 33.648H89.6724L76.7844 50.556C76.6884 50.684 76.5644 50.792 76.4124 50.88C76.2684 50.96 76.0924 51 75.8844 51H73.6764L86.5644 34.116ZM90.5844 46.92C90.5844 47.576 90.4724 48.168 90.2484 48.696C90.0324 49.224 89.7404 49.676 89.3724 50.052C89.0044 50.42 88.5764 50.708 88.0884 50.916C87.6004 51.116 87.0924 51.216 86.5644 51.216C85.9884 51.216 85.4564 51.116 84.9684 50.916C84.4804 50.708 84.0564 50.42 83.6964 50.052C83.3444 49.676 83.0684 49.224 82.8684 48.696C82.6684 48.168 82.5684 47.576 82.5684 46.92C82.5684 46.248 82.6684 45.64 82.8684 45.096C83.0684 44.552 83.3444 44.092 83.6964 43.716C84.0564 43.34 84.4804 43.052 84.9684 42.852C85.4564 42.644 85.9884 42.54 86.5644 42.54C87.1404 42.54 87.6724 42.644 88.1604 42.852C88.6564 43.052 89.0844 43.34 89.4444 43.716C89.8044 44.092 90.0844 44.552 90.2844 45.096C90.4844 45.64 90.5844 46.248 90.5844 46.92ZM88.3044 46.92C88.3044 46.456 88.2564 46.068 88.1604 45.756C88.0724 45.444 87.9484 45.192 87.7884 45C87.6364 44.808 87.4524 44.672 87.2364 44.592C87.0284 44.504 86.8044 44.46 86.5644 44.46C86.3244 44.46 86.1004 44.504 85.8924 44.592C85.6844 44.672 85.5044 44.808 85.3524 45C85.2084 45.192 85.0924 45.444 85.0044 45.756C84.9164 46.068 84.8724 46.456 84.8724 46.92C84.8724 47.368 84.9164 47.744 85.0044 48.048C85.0924 48.352 85.2084 48.596 85.3524 48.78C85.5044 48.964 85.6844 49.096 85.8924 49.176C86.1004 49.256 86.3244 49.296 86.5644 49.296C86.8044 49.296 87.0284 49.256 87.2364 49.176C87.4524 49.096 87.6364 48.964 87.7884 48.78C87.9484 48.596 88.0724 48.352 88.1604 48.048C88.2564 47.744 88.3044 47.368 88.3044 46.92Z" fill="#344054"/>
<defs>
<filter id="filter0_dd_4957_33933" x="0" y="0" width="134" height="99.2461" filterUnits="userSpaceOnUse" color-interpolation-filters="sRGB">
<feFlood flood-opacity="0" result="BackgroundImageFix"/>
<feColorMatrix in="SourceAlpha" type="matrix" values="0 0 0 0 0 0 0 0 0 0 0 0 0 0 0 0 0 0 127 0" result="hardAlpha"/>
<feOffset dy="12"/>
<feGaussianBlur stdDeviation="12"/>
<feComposite in2="hardAlpha" operator="out"/>
<feColorMatrix type="matrix" values="0 0 0 0 0.568627 0 0 0 0 0.619608 0 0 0 0 0.670588 0 0 0 0.12 0"/>
<feBlend mode="normal" in2="BackgroundImageFix" result="effect1_dropShadow_4957_33933"/>
<feColorMatrix in="SourceAlpha" type="matrix" values="0 0 0 0 0 0 0 0 0 0 0 0 0 0 0 0 0 0 127 0" result="hardAlpha"/>
<feOffset/>
<feGaussianBlur stdDeviation="1"/>
<feComposite in2="hardAlpha" operator="out"/>
<feColorMatrix type="matrix" values="0 0 0 0 0.568627 0 0 0 0 0.619608 0 0 0 0 0.670588 0 0 0 0.2 0"/>
<feBlend mode="normal" in2="effect1_dropShadow_4957_33933" result="effect2_dropShadow_4957_33933"/>
<feBlend mode="normal" in="SourceGraphic" in2="effect2_dropShadow_4957_33933" result="shape"/>
</filter>
</defs>
</svg>
