<svg width="56" height="55" viewBox="0 0 56 55" fill="none" xmlns="http://www.w3.org/2000/svg">
<path d="M47.0533 55C46.6942 54.9998 46.3355 54.9767 45.9793 54.9308C34.4369 53.434 23.7113 48.1697 15.4666 39.9547C7.24808 31.7098 1.98145 20.9824 0.484187 9.43799C0.331373 8.25343 0.43252 7.04991 0.780901 5.90747C1.12928 4.76503 1.71691 3.70984 2.50472 2.81209C3.28236 1.92878 4.23918 1.22117 5.31154 0.736321C6.38389 0.251472 7.5472 0.000500498 8.72408 0.000100519H17.1024C19.062 -0.00956814 20.9612 0.678553 22.4598 1.94127C23.9584 3.20399 24.9586 4.95885 25.2814 6.89169C25.3727 7.51996 25.4889 8.13716 25.6273 8.7599C25.9022 9.99486 26.2601 11.2099 26.6985 12.3967C27.1632 13.6932 27.1257 15.1167 26.5935 16.387C26.0612 17.6573 25.0728 18.6824 23.8227 19.2606L22.5606 19.8501C25.6422 25.2789 30.1355 29.7729 35.5639 32.8556L36.1562 31.588C36.7335 30.3359 37.7598 29.3462 39.032 28.8147C40.3042 28.2831 41.7296 28.2486 43.026 28.7178C44.2114 29.158 45.4256 29.5159 46.6602 29.7889C47.2765 29.9273 47.8975 30.0426 48.523 30.1349C50.4559 30.4576 52.2109 31.4578 53.4737 32.9563C54.7365 34.4549 55.4246 36.3539 55.4149 38.3135V46.6913C55.4149 47.8679 55.1643 49.0311 54.6799 50.1034C54.1955 51.1756 53.4884 52.1325 52.6056 52.9104C51.0706 54.259 49.0966 55.0019 47.0533 55Z" fill="#11ABEC" fill-opacity="0.3"/>
<path d="M52.7054 19.1589C54.2012 19.1589 55.4137 17.9463 55.4137 16.4505C55.4137 14.9547 54.2012 13.7422 52.7054 13.7422C51.2096 13.7422 49.9971 14.9547 49.9971 16.4505C49.9971 17.9463 51.2096 19.1589 52.7054 19.1589Z" fill="#11ABEC" fill-opacity="0.17"/>
<path d="M44.3743 19.1589C45.8701 19.1589 47.0827 17.9463 47.0827 16.4505C47.0827 14.9547 45.8701 13.7422 44.3743 13.7422C42.8786 13.7422 41.666 14.9547 41.666 16.4505C41.666 17.9463 42.8786 19.1589 44.3743 19.1589Z" fill="#11ABEC" fill-opacity="0.3"/>
<path d="M36.0413 19.1589C37.5371 19.1589 38.7497 17.9463 38.7497 16.4505C38.7497 14.9547 37.5371 13.7422 36.0413 13.7422C34.5456 13.7422 33.333 14.9547 33.333 16.4505C33.333 17.9463 34.5456 19.1589 36.0413 19.1589Z" fill="#11ABEC"/>
</svg>
