<svg width="674" height="116" viewBox="0 0 674 116" fill="none" xmlns="http://www.w3.org/2000/svg">
    <rect width="674" height="10" rx="5" fill="#EAECF0"/>
    <rect width="217.051" height="10" rx="5" fill="#FC5C63"/>
    <g filter="url(#filter0_dd_1913_17981)">
    <path fill-rule="evenodd" clip-rule="evenodd" d="M218.221 28.5807C217.595 27.8064 216.414 27.8064 215.789 28.5807L209.584 36.2569C209.391 36.4957 209.283 36.7618 209.247 37.0294H178.691C176.1 37.0294 174 39.1296 174 41.7203V74.5567C174 77.1474 176.1 79.2476 178.691 79.2476H255.309C257.9 79.2476 260 77.1474 260 74.5567V41.7203C260 39.1296 257.9 37.0294 255.309 37.0294H224.762C224.727 36.7618 224.618 36.4957 224.425 36.2569L218.221 28.5807Z" fill="white"/>
    </g>
    <path d="M198.224 49.456C199.024 49.456 199.756 49.576 200.42 49.816C201.084 50.048 201.652 50.38 202.124 50.812C202.596 51.244 202.964 51.764 203.228 52.372C203.492 52.98 203.624 53.656 203.624 54.4C203.624 55.04 203.528 55.632 203.336 56.176C203.152 56.72 202.9 57.24 202.58 57.736C202.268 58.232 201.9 58.712 201.476 59.176C201.052 59.64 200.608 60.112 200.144 60.592L196.232 64.588C196.616 64.476 196.992 64.392 197.36 64.336C197.728 64.272 198.08 64.24 198.416 64.24H202.868C203.188 64.24 203.44 64.332 203.624 64.516C203.816 64.692 203.912 64.928 203.912 65.224V67H192.008V66.016C192.008 65.816 192.048 65.608 192.128 65.392C192.216 65.176 192.352 64.976 192.536 64.792L197.804 59.512C198.244 59.064 198.636 58.636 198.98 58.228C199.332 57.82 199.624 57.416 199.856 57.016C200.096 56.616 200.276 56.212 200.396 55.804C200.524 55.388 200.588 54.952 200.588 54.496C200.588 54.08 200.528 53.716 200.408 53.404C200.288 53.084 200.116 52.816 199.892 52.6C199.668 52.384 199.4 52.224 199.088 52.12C198.784 52.008 198.44 51.952 198.056 51.952C197.344 51.952 196.756 52.132 196.292 52.492C195.836 52.852 195.516 53.336 195.332 53.944C195.244 54.248 195.112 54.468 194.936 54.604C194.76 54.732 194.536 54.796 194.264 54.796C194.144 54.796 194.012 54.784 193.868 54.76L192.308 54.484C192.428 53.652 192.66 52.924 193.004 52.3C193.348 51.668 193.776 51.144 194.288 50.728C194.808 50.304 195.4 49.988 196.064 49.78C196.736 49.564 197.456 49.456 198.224 49.456ZM217.762 58.324C217.762 59.836 217.598 61.152 217.27 62.272C216.95 63.384 216.502 64.304 215.926 65.032C215.358 65.76 214.682 66.304 213.898 66.664C213.122 67.016 212.282 67.192 211.378 67.192C210.474 67.192 209.634 67.016 208.858 66.664C208.09 66.304 207.422 65.76 206.854 65.032C206.286 64.304 205.842 63.384 205.522 62.272C205.202 61.152 205.042 59.836 205.042 58.324C205.042 56.804 205.202 55.488 205.522 54.376C205.842 53.264 206.286 52.344 206.854 51.616C207.422 50.888 208.09 50.348 208.858 49.996C209.634 49.636 210.474 49.456 211.378 49.456C212.282 49.456 213.122 49.636 213.898 49.996C214.682 50.348 215.358 50.888 215.926 51.616C216.502 52.344 216.95 53.264 217.27 54.376C217.598 55.488 217.762 56.804 217.762 58.324ZM214.702 58.324C214.702 57.068 214.61 56.028 214.426 55.204C214.242 54.38 213.994 53.724 213.682 53.236C213.378 52.748 213.026 52.408 212.626 52.216C212.226 52.016 211.81 51.916 211.378 51.916C210.954 51.916 210.542 52.016 210.142 52.216C209.75 52.408 209.402 52.748 209.098 53.236C208.794 53.724 208.55 54.38 208.366 55.204C208.19 56.028 208.102 57.068 208.102 58.324C208.102 59.58 208.19 60.62 208.366 61.444C208.55 62.268 208.794 62.924 209.098 63.412C209.402 63.9 209.75 64.244 210.142 64.444C210.542 64.636 210.954 64.732 211.378 64.732C211.81 64.732 212.226 64.636 212.626 64.444C213.026 64.244 213.378 63.9 213.682 63.412C213.994 62.924 214.242 62.268 214.426 61.444C214.61 60.62 214.702 59.58 214.702 58.324ZM230.792 53.848C230.792 54.504 230.68 55.096 230.456 55.624C230.24 56.152 229.948 56.604 229.58 56.98C229.212 57.348 228.784 57.632 228.296 57.832C227.808 58.032 227.3 58.132 226.772 58.132C226.196 58.132 225.664 58.032 225.176 57.832C224.688 57.632 224.264 57.348 223.904 56.98C223.552 56.604 223.276 56.152 223.076 55.624C222.876 55.096 222.776 54.504 222.776 53.848C222.776 53.176 222.876 52.568 223.076 52.024C223.276 51.48 223.552 51.02 223.904 50.644C224.264 50.268 224.688 49.98 225.176 49.78C225.664 49.572 226.196 49.468 226.772 49.468C227.348 49.468 227.88 49.572 228.368 49.78C228.864 49.98 229.292 50.268 229.652 50.644C230.012 51.02 230.292 51.48 230.492 52.024C230.692 52.568 230.792 53.176 230.792 53.848ZM228.5 53.848C228.5 53.384 228.456 52.996 228.368 52.684C228.28 52.372 228.156 52.12 227.996 51.928C227.844 51.736 227.66 51.6 227.444 51.52C227.236 51.432 227.012 51.388 226.772 51.388C226.532 51.388 226.308 51.432 226.1 51.52C225.892 51.6 225.712 51.736 225.56 51.928C225.408 52.12 225.288 52.372 225.2 52.684C225.12 52.996 225.08 53.384 225.08 53.848C225.08 54.296 225.12 54.672 225.2 54.976C225.288 55.272 225.408 55.512 225.56 55.696C225.712 55.88 225.892 56.012 226.1 56.092C226.308 56.172 226.532 56.212 226.772 56.212C227.012 56.212 227.236 56.172 227.444 56.092C227.66 56.012 227.844 55.88 227.996 55.696C228.156 55.512 228.28 55.272 228.368 54.976C228.456 54.672 228.5 54.296 228.5 53.848ZM236.564 50.116C236.66 49.996 236.78 49.888 236.924 49.792C237.068 49.696 237.268 49.648 237.524 49.648H239.672L226.784 66.556C226.688 66.684 226.564 66.792 226.412 66.88C226.268 66.96 226.092 67 225.884 67H223.676L236.564 50.116ZM240.584 62.92C240.584 63.576 240.472 64.168 240.248 64.696C240.032 65.224 239.74 65.676 239.372 66.052C239.004 66.42 238.576 66.708 238.088 66.916C237.6 67.116 237.092 67.216 236.564 67.216C235.988 67.216 235.456 67.116 234.968 66.916C234.48 66.708 234.056 66.42 233.696 66.052C233.344 65.676 233.068 65.224 232.868 64.696C232.668 64.168 232.568 63.576 232.568 62.92C232.568 62.248 232.668 61.64 232.868 61.096C233.068 60.552 233.344 60.092 233.696 59.716C234.056 59.34 234.48 59.052 234.968 58.852C235.456 58.644 235.988 58.54 236.564 58.54C237.14 58.54 237.672 58.644 238.16 58.852C238.656 59.052 239.084 59.34 239.444 59.716C239.804 60.092 240.084 60.552 240.284 61.096C240.484 61.64 240.584 62.248 240.584 62.92ZM238.304 62.92C238.304 62.456 238.256 62.068 238.16 61.756C238.072 61.444 237.948 61.192 237.788 61C237.636 60.808 237.452 60.672 237.236 60.592C237.028 60.504 236.804 60.46 236.564 60.46C236.324 60.46 236.1 60.504 235.892 60.592C235.684 60.672 235.504 60.808 235.352 61C235.208 61.192 235.092 61.444 235.004 61.756C234.916 62.068 234.872 62.456 234.872 62.92C234.872 63.368 234.916 63.744 235.004 64.048C235.092 64.352 235.208 64.596 235.352 64.78C235.504 64.964 235.684 65.096 235.892 65.176C236.1 65.256 236.324 65.296 236.564 65.296C236.804 65.296 237.028 65.256 237.236 65.176C237.452 65.096 237.636 64.964 237.788 64.78C237.948 64.596 238.072 64.352 238.16 64.048C238.256 63.744 238.304 63.368 238.304 62.92Z" fill="#344054"/>
    <defs>
    <filter id="filter0_dd_1913_17981" x="150" y="16" width="134" height="99.2461" filterUnits="userSpaceOnUse" color-interpolation-filters="sRGB">
    <feFlood flood-opacity="0" result="BackgroundImageFix"/>
    <feColorMatrix in="SourceAlpha" type="matrix" values="0 0 0 0 0 0 0 0 0 0 0 0 0 0 0 0 0 0 127 0" result="hardAlpha"/>
    <feOffset dy="12"/>
    <feGaussianBlur stdDeviation="12"/>
    <feComposite in2="hardAlpha" operator="out"/>
    <feColorMatrix type="matrix" values="0 0 0 0 0.568627 0 0 0 0 0.619608 0 0 0 0 0.670588 0 0 0 0.12 0"/>
    <feBlend mode="normal" in2="BackgroundImageFix" result="effect1_dropShadow_1913_17981"/>
    <feColorMatrix in="SourceAlpha" type="matrix" values="0 0 0 0 0 0 0 0 0 0 0 0 0 0 0 0 0 0 127 0" result="hardAlpha"/>
    <feOffset/>
    <feGaussianBlur stdDeviation="1"/>
    <feComposite in2="hardAlpha" operator="out"/>
    <feColorMatrix type="matrix" values="0 0 0 0 0.568627 0 0 0 0 0.619608 0 0 0 0 0.670588 0 0 0 0.2 0"/>
    <feBlend mode="normal" in2="effect1_dropShadow_1913_17981" result="effect2_dropShadow_1913_17981"/>
    <feBlend mode="normal" in="SourceGraphic" in2="effect2_dropShadow_1913_17981" result="shape"/>
    </filter>
    </defs>
    </svg>
    