<svg width="17" height="22" viewBox="0 0 17 22" fill="none" xmlns="http://www.w3.org/2000/svg">
    <path d="M15.7857 22C15.5726 22 15.3632 21.9399 15.1786 21.8258L8.5 17.7022L1.82143 21.8258C1.63684 21.9399 1.42744 22 1.21429 22C1.00114 22 0.79175 21.9399 0.607156 21.8258C0.422562 21.7117 0.269273 21.5476 0.162695 21.35C0.0561169 21.1524 5.41475e-06 20.9282 0 20.7V-0.1C0.000964404 -1.13403 0.385074 -2.12541 1.06803 -2.85658C1.75099 -3.58774 2.67701 -3.99897 3.64286 -4H13.3571C14.323 -3.99897 15.249 -3.58774 15.932 -2.85658C16.6149 -2.12541 16.999 -1.13403 17 -0.1V20.7C17 21.0448 16.8721 21.3754 16.6443 21.6192C16.4166 21.863 16.1078 22 15.7857 22Z" fill="#11ABEC"/>
    </svg>
    