<svg width="683" height="228" viewBox="0 0 683 228" fill="none" xmlns="http://www.w3.org/2000/svg">
<path d="M167.1 225.45H127.8C123.4 225.45 119.75 224.45 116.85 222.45C114.05 220.35 112.1 217.7 111 214.5L98.1 176.4H15L2.1 214.5C1.1 217.3 -0.849998 219.85 -3.75 222.15C-6.65 224.35 -10.2 225.45 -14.4 225.45H-54L30.6 6.9H82.5L167.1 225.45ZM26.7 141.9H86.4L66.3 82.05C65 78.25 63.45 73.8 61.65 68.7C59.95 63.5 58.25 57.9 56.55 51.9C54.95 58 53.3 63.65 51.6 68.85C49.9 74.05 48.3 78.55 46.8 82.35L26.7 141.9Z" fill="#E8F7FE" fill-opacity="0.5"/>
<path d="M184.891 225.45V69.9H212.491C214.791 69.9 216.691 70.1 218.191 70.5C219.791 70.9 221.091 71.55 222.091 72.45C223.191 73.25 223.991 74.35 224.491 75.75C225.091 77.15 225.591 78.85 225.991 80.85L228.541 95.4C234.241 86.6 240.641 79.65 247.741 74.55C254.841 69.45 262.591 66.9 270.991 66.9C278.091 66.9 283.791 68.6 288.091 72L282.091 106.2C281.691 108.3 280.891 109.8 279.691 110.7C278.491 111.5 276.891 111.9 274.891 111.9C273.191 111.9 271.191 111.7 268.891 111.3C266.591 110.8 263.691 110.55 260.191 110.55C247.991 110.55 238.391 117.05 231.391 130.05V225.45H184.891Z" fill="#E8F7FE" fill-opacity="0.5"/>
<path d="M421.017 106.8C419.617 108.5 418.267 109.85 416.967 110.85C415.667 111.85 413.817 112.35 411.417 112.35C409.117 112.35 407.017 111.8 405.117 110.7C403.317 109.6 401.267 108.4 398.967 107.1C396.667 105.7 393.967 104.45 390.867 103.35C387.767 102.25 383.917 101.7 379.317 101.7C373.617 101.7 368.667 102.75 364.467 104.85C360.367 106.95 356.967 109.95 354.267 113.85C351.567 117.75 349.567 122.55 348.267 128.25C346.967 133.85 346.317 140.2 346.317 147.3C346.317 162.2 349.167 173.65 354.867 181.65C360.667 189.65 368.617 193.65 378.717 193.65C384.117 193.65 388.367 193 391.467 191.7C394.667 190.3 397.367 188.8 399.567 187.2C401.767 185.5 403.767 183.95 405.567 182.55C407.467 181.15 409.817 180.45 412.617 180.45C416.317 180.45 419.117 181.8 421.017 184.5L434.517 201.15C429.717 206.65 424.667 211.15 419.367 214.65C414.067 218.05 408.617 220.75 403.017 222.75C397.517 224.65 391.967 225.95 386.367 226.65C380.767 227.45 375.317 227.85 370.017 227.85C360.517 227.85 351.417 226.05 342.717 222.45C334.117 218.85 326.517 213.65 319.917 206.85C313.417 199.95 308.217 191.5 304.317 181.5C300.517 171.5 298.617 160.1 298.617 147.3C298.617 136.1 300.267 125.65 303.567 115.95C306.967 106.15 311.917 97.7 318.417 90.6C325.017 83.4 333.117 77.75 342.717 73.65C352.417 69.55 363.617 67.5 376.317 67.5C388.517 67.5 399.217 69.45 408.417 73.35C417.617 77.25 425.917 82.95 433.317 90.45L421.017 106.8Z" fill="#E8F7FE" fill-opacity="0.5"/>
<path d="M454.716 225.45V0.899988H501.216V83.55C506.816 78.75 512.866 74.9 519.366 72C525.966 69 533.816 67.5 542.916 67.5C551.416 67.5 558.916 69 565.416 72C572.016 74.9 577.566 79 582.066 84.3C586.566 89.5 589.966 95.75 592.266 103.05C594.566 110.25 595.716 118.1 595.716 126.6V225.45H549.216V126.6C549.216 119 547.466 113.1 543.966 108.9C540.466 104.6 535.316 102.45 528.516 102.45C523.416 102.45 518.616 103.55 514.116 105.75C509.616 107.95 505.316 110.9 501.216 114.6V225.45H454.716Z" fill="#E8F7FE" fill-opacity="0.5"/>
<path d="M676.739 69.9V225.45H630.239V69.9H676.739ZM682.139 27.3C682.139 31 681.389 34.5 679.889 37.8C678.389 41 676.339 43.85 673.739 46.35C671.139 48.75 668.089 50.7 664.589 52.2C661.189 53.6 657.539 54.3 653.639 54.3C649.839 54.3 646.289 53.6 642.989 52.2C639.689 50.7 636.739 48.75 634.139 46.35C631.639 43.85 629.639 41 628.139 37.8C626.739 34.5 626.039 31 626.039 27.3C626.039 23.5 626.739 19.95 628.139 16.65C629.639 13.35 631.639 10.45 634.139 7.95C636.739 5.45 639.689 3.5 642.989 2.09999C646.289 0.699997 649.839 0 653.639 0C657.539 0 661.189 0.699997 664.589 2.09999C668.089 3.5 671.139 5.45 673.739 7.95C676.339 10.45 678.389 13.35 679.889 16.65C681.389 19.95 682.139 23.5 682.139 27.3Z" fill="#E8F7FE" fill-opacity="0.5"/>
</svg>
