<svg width="169" height="60" viewBox="0 0 169 60" fill="none" xmlns="http://www.w3.org/2000/svg">
<path d="M46.7515 53.7266H42.6015L41.8515 56.8516H37.2515L41.8515 42.6016H47.7265L52.1265 56.8516H47.5015L46.7515 53.7266ZM44.6515 45.6766L43.1765 50.9516H46.1515L44.7515 45.6766H44.6515ZM60.7696 45.1016C60.9863 45.1016 61.2113 45.1266 61.4446 45.1766C61.6946 45.2266 61.878 45.2849 61.9946 45.3516C61.9946 45.7182 61.953 46.3266 61.8696 47.1766C61.7863 48.0099 61.7113 48.6016 61.6446 48.9516C61.478 48.9349 61.1696 48.9266 60.7196 48.9266C59.6696 48.9266 58.7363 48.9849 57.9196 49.1016V56.8516H53.6446V45.3516H57.2196L57.7196 47.2016H57.7446C58.228 46.5682 58.7446 46.0599 59.2946 45.6766C59.8446 45.2932 60.3363 45.1016 60.7696 45.1016ZM73.2923 56.5016C71.9423 56.9516 70.434 57.1766 68.7673 57.1766C66.9006 57.1766 65.5006 56.7099 64.5673 55.7766C63.6506 54.8266 63.1923 53.3516 63.1923 51.3516C63.1923 50.3682 63.3256 49.4016 63.5923 48.4516C63.859 47.4849 64.1423 46.8349 64.4423 46.5016C64.7923 46.1182 65.4756 45.7932 66.4923 45.5266C67.5256 45.2599 68.5923 45.1266 69.6923 45.1266C70.8423 45.1266 72.0006 45.2266 73.1673 45.4266C73.134 45.8432 73.0756 46.3349 72.9923 46.9016C72.9256 47.4516 72.8506 47.9432 72.7673 48.3766C71.734 48.3099 70.759 48.2766 69.8423 48.2766C68.9423 48.2766 68.3673 48.3266 68.1173 48.4266C67.984 48.4766 67.859 48.8182 67.7423 49.4516C67.6423 50.0849 67.5923 50.6766 67.5923 51.2266C67.5923 51.9599 67.6923 52.5266 67.8923 52.9266C68.109 53.3099 68.4423 53.5766 68.8923 53.7266C69.3423 53.8766 69.9506 53.9516 70.7173 53.9516C71.0506 53.9516 71.784 53.9182 72.9173 53.8516L73.2923 56.5016ZM86.3507 46.0766C86.5007 46.2599 86.609 46.7182 86.6757 47.4516C86.759 48.1849 86.8007 49.3016 86.8007 50.8016V56.8516H82.5257V50.8516C82.5257 50.7849 82.5257 50.4599 82.5257 49.8766C82.5257 49.2766 82.484 48.9099 82.4007 48.7766C82.3507 48.7099 82.2257 48.6599 82.0257 48.6266C81.8424 48.5932 81.6257 48.5766 81.3757 48.5766L80.9507 48.6016C80.484 48.6182 80.0007 48.7266 79.5007 48.9266V56.8516H75.2257V41.8516L79.5007 41.6766V44.6016C79.5007 45.8016 79.459 46.6016 79.3757 47.0016L79.4007 47.0266C80.534 45.7432 81.8924 45.1016 83.4757 45.1016C84.0757 45.1016 84.634 45.1849 85.1507 45.3516C85.684 45.5182 86.084 45.7599 86.3507 46.0766ZM91.5005 43.9266C90.9338 43.9266 90.4422 43.7349 90.0255 43.3516C89.6255 42.9682 89.4255 42.5099 89.4255 41.9766C89.4255 41.4432 89.6255 40.9849 90.0255 40.6016C90.4422 40.2182 90.9338 40.0266 91.5005 40.0266C92.0672 40.0266 92.5505 40.2182 92.9505 40.6016C93.3505 40.9849 93.5505 41.4432 93.5505 41.9766C93.5505 42.5099 93.3505 42.9682 92.9505 43.3516C92.5505 43.7349 92.0672 43.9266 91.5005 43.9266ZM89.3505 45.3516H93.6255V56.8516H89.3505V45.3516ZM114.22 46.1516C114.487 46.5516 114.62 48.1016 114.62 50.8016V56.8516H110.345V51.2266V49.8766C110.345 49.2599 110.287 48.8932 110.17 48.7766C110.037 48.6432 109.754 48.5766 109.32 48.5766L109.02 48.6016C108.504 48.6349 108.012 48.7516 107.545 48.9516C107.562 49.3016 107.57 49.9182 107.57 50.8016V56.8516H103.295V51.2266V49.7266C103.295 49.2099 103.237 48.8932 103.12 48.7766C102.987 48.6432 102.704 48.5766 102.27 48.5766L101.97 48.6016C101.504 48.6182 101.02 48.7266 100.52 48.9266V56.8516H96.2452V45.3516H99.7202L100.17 47.2266C100.72 46.4932 101.354 45.9599 102.07 45.6266C102.787 45.2766 103.512 45.1016 104.245 45.1016C104.862 45.1016 105.445 45.1932 105.995 45.3766C106.562 45.5599 106.954 45.8182 107.17 46.1516C107.27 46.3016 107.354 46.5766 107.42 46.9766C107.954 46.3266 108.562 45.8516 109.245 45.5516C109.929 45.2516 110.612 45.1016 111.295 45.1016C111.912 45.1016 112.495 45.1932 113.045 45.3766C113.612 45.5599 114.004 45.8182 114.22 46.1516ZM123.957 56.8516L123.557 55.2766C122.79 56.5266 121.723 57.1516 120.357 57.1516C119.24 57.1516 118.323 56.8432 117.607 56.2266C116.907 55.5932 116.557 54.7099 116.557 53.5766C116.557 52.8766 116.757 52.2682 117.157 51.7516C117.573 51.2182 118.14 50.8432 118.857 50.6266C119.79 50.3599 121.232 50.2099 123.182 50.1766C123.182 49.0766 123.132 48.4932 123.032 48.4266C122.948 48.3599 122.682 48.3266 122.232 48.3266C121.948 48.3266 121.557 48.3432 121.057 48.3766C120.257 48.4099 119.173 48.5016 117.807 48.6516C117.673 47.7516 117.573 46.7849 117.507 45.7516C118.39 45.5682 119.315 45.4182 120.282 45.3016C121.248 45.1682 122.115 45.1016 122.882 45.1016C124.215 45.1016 125.215 45.3266 125.882 45.7766C126.548 46.2099 126.982 46.7849 127.182 47.5016C127.382 48.2182 127.473 49.1266 127.457 50.2266L127.432 53.9016L127.507 56.8516H123.957ZM121.807 54.3516C122.24 54.3516 122.698 54.2682 123.182 54.1016V52.2516H122.982C121.748 52.2516 121.065 52.3182 120.932 52.4516C120.848 52.5349 120.782 52.6599 120.732 52.8266C120.698 52.9932 120.682 53.1516 120.682 53.3016C120.682 53.7016 120.773 53.9766 120.957 54.1266C121.14 54.2766 121.423 54.3516 121.807 54.3516ZM135.187 52.1266C135.187 52.4266 135.195 52.7432 135.212 53.0766C135.228 53.3932 135.278 53.5932 135.362 53.6766C135.478 53.7932 135.887 53.8516 136.587 53.8516L137.437 53.8266C137.587 54.6266 137.662 55.5516 137.662 56.6016C137.345 56.7182 136.878 56.8266 136.262 56.9266C135.662 57.0266 135.087 57.0766 134.537 57.0766C133.387 57.0766 132.495 56.8266 131.862 56.3266C131.245 55.8099 130.937 55.0182 130.937 53.9516V47.8016H129.062V45.5266L130.937 45.3516L132.062 42.6016L135.187 42.4266V45.3516H137.837V47.8016H135.187V52.1266ZM149.29 56.5016C147.94 56.9516 146.432 57.1766 144.765 57.1766C142.899 57.1766 141.499 56.7099 140.565 55.7766C139.649 54.8266 139.19 53.3516 139.19 51.3516C139.19 50.3682 139.324 49.4016 139.59 48.4516C139.857 47.4849 140.14 46.8349 140.44 46.5016C140.79 46.1182 141.474 45.7932 142.49 45.5266C143.524 45.2599 144.59 45.1266 145.69 45.1266C146.84 45.1266 147.999 45.2266 149.165 45.4266C149.132 45.8432 149.074 46.3349 148.99 46.9016C148.924 47.4516 148.849 47.9432 148.765 48.3766C147.732 48.3099 146.757 48.2766 145.84 48.2766C144.94 48.2766 144.365 48.3266 144.115 48.4266C143.982 48.4766 143.857 48.8182 143.74 49.4516C143.64 50.0849 143.59 50.6766 143.59 51.2266C143.59 51.9599 143.69 52.5266 143.89 52.9266C144.107 53.3099 144.44 53.5766 144.89 53.7266C145.34 53.8766 145.949 53.9516 146.715 53.9516C147.049 53.9516 147.782 53.9182 148.915 53.8516L149.29 56.5016ZM162.349 46.0766C162.499 46.2599 162.607 46.7182 162.674 47.4516C162.757 48.1849 162.799 49.3016 162.799 50.8016V56.8516H158.524V50.8516C158.524 50.7849 158.524 50.4599 158.524 49.8766C158.524 49.2766 158.482 48.9099 158.399 48.7766C158.349 48.7099 158.224 48.6599 158.024 48.6266C157.84 48.5932 157.624 48.5766 157.374 48.5766L156.949 48.6016C156.482 48.6182 155.999 48.7266 155.499 48.9266V56.8516H151.224V41.8516L155.499 41.6766V44.6016C155.499 45.8016 155.457 46.6016 155.374 47.0016L155.399 47.0266C156.532 45.7432 157.89 45.1016 159.474 45.1016C160.074 45.1016 160.632 45.1849 161.149 45.3516C161.682 45.5182 162.082 45.7599 162.349 46.0766Z" fill="#1B2534"/>
<g clip-path="url(#clip0_3750_35441)">
<path d="M26.0126 21.0674L0.5 0V10.5346L26.0126 31.3445V21.0674Z" fill="#11ABEC"/>
<path d="M26.0119 35.5612V36.3016V42.3903V56.8232H9.06055V37.8112V36.3016V32.8015V31.0343V28.5628V27.9197V21.5625L26.0119 35.5612Z" fill="#ADDEF9"/>
<path d="M17.5314 39.1862V39.6942V46.0153V56.822H0.580078V40.658V39.6942V34.3404V33.3353V32.1878V31.8581V25.1875L9.05575 32.1878L17.5314 39.1862Z" fill="#11ABEC"/>
</g>
<defs>
<clipPath id="clip0_3750_35441">
<rect width="25.5126" height="56.8235" fill="white" transform="translate(0.5)"/>
</clipPath>
</defs>
</svg>
