<svg width="39" height="37" viewBox="0 0 39 37" fill="none" xmlns="http://www.w3.org/2000/svg">
<path d="M27.7129 13.4312C26.6444 13.646 25.5439 13.646 24.4754 13.4312C23.0777 13.1426 22.0611 12.5645 21.5209 12.1797C20.9502 12.5654 19.9336 13.1741 18.5683 13.4312C17.4996 13.646 16.3987 13.646 15.3299 13.4312C13.2662 17.7639 13.4244 22.4814 15.4566 25.5617C15.7739 26.1074 17.9014 29.2848 21.4895 30.1839C25.1099 29.2533 27.206 26.076 27.5547 25.5626C29.6184 22.4823 29.7775 17.7648 27.7129 13.4321V13.4312Z" fill="#FC5C63"/>
<path fill-rule="evenodd" clip-rule="evenodd" d="M18.8488 35.8376C19.1142 35.9116 19.3899 35.9467 19.6655 35.9449C19.9495 35.9449 20.2344 35.9097 20.5184 35.8376L22.4368 35.2677C27.8388 33.2753 31.1781 29.0739 32.3861 27.3664C36.4016 21.5278 36.5792 12.9124 32.8486 5.40136L31.9246 3.55136C31.7821 3.30161 31.4981 3.12401 31.1781 3.19523L29.082 3.58651C27.7907 3.83533 26.4643 3.83533 25.173 3.58651C23.9298 3.33768 22.6866 2.87426 21.6201 2.16201L20.0568 1.16578C19.9384 1.09562 19.8032 1.05859 19.6655 1.05859C19.5279 1.05859 19.3927 1.09562 19.2743 1.16578L17.7471 2.16293C16.6613 2.85455 15.4561 3.33764 14.1932 3.58743C12.9019 3.83626 11.5755 3.83626 10.2842 3.58743L8.18814 3.19431C8.04193 3.16141 7.88891 3.17864 7.75368 3.24324C7.61846 3.30783 7.50888 3.41603 7.44259 3.55043L6.51759 5.40043C2.75191 12.9114 2.92859 21.5269 6.98009 27.3646C8.15299 29.074 11.5283 33.2744 16.9294 35.2677H16.9645L18.8488 35.8376ZM18.9551 34.3992L17.3558 33.9154C12.3812 32.1006 9.25466 28.149 8.11691 26.5829C4.38639 21.1365 4.24394 13.0909 7.76171 6.04238L8.43696 4.65488L10.0002 4.93886C11.458 5.22375 12.9852 5.22375 14.4421 4.93886C15.8824 4.64896 17.2562 4.09377 18.4936 3.30161L19.6655 2.55421L20.8384 3.30161C22.0756 4.09355 23.4491 4.64872 24.889 4.93886C26.3459 5.22375 27.874 5.22375 29.3309 4.93886L30.8941 4.6188L31.5694 6.0063C35.1223 13.0548 34.9798 21.1365 31.2142 26.5469C30.1134 28.149 26.986 32.1006 22.0104 33.9154L20.3759 34.401V32.4918C20.3755 32.3034 20.3005 32.1228 20.1674 31.9894C20.0344 31.856 19.854 31.7806 19.6655 31.7796C19.477 31.7803 19.2965 31.8556 19.1634 31.9891C19.0302 32.1226 18.9554 32.3033 18.9551 32.4918V34.3992ZM19.4879 31.0683C19.5592 31.1034 19.5943 31.1034 19.6655 31.1034C19.7368 31.1034 19.808 31.1034 19.8431 31.0673C19.8616 31.0673 19.8792 31.059 19.8968 31.0498C19.9144 31.0405 19.9319 31.0322 19.9495 31.0322C24.5699 29.8574 27.4827 26.298 28.5132 24.8023C31.4981 20.4955 31.6054 14.052 28.7629 8.39188C28.6195 8.14305 28.3356 7.96453 28.0155 8.03575C26.665 8.2855 25.2091 8.2855 23.8586 8.03575C22.6256 7.81193 21.4448 7.36156 20.3759 6.70745V4.58273C20.3752 4.39446 20.3002 4.21409 20.1671 4.08088C20.0341 3.94766 19.8538 3.87238 19.6655 3.8714C19.477 3.87214 19.2965 3.94747 19.1634 4.08094C19.0302 4.21441 18.9554 4.39515 18.9551 4.58365V6.70653C17.8837 7.3546 16.7043 7.80454 15.4734 8.03483C14.1229 8.28458 12.667 8.28458 11.3165 8.03483C11.17 8.00161 11.0167 8.01879 10.8812 8.08359C10.7457 8.14839 10.6361 8.25701 10.57 8.39188C7.72749 14.051 7.83386 20.4946 10.8179 24.8014C11.8493 26.2971 14.727 29.8565 19.3825 31.0313C19.3991 31.0313 19.4176 31.0405 19.4352 31.0498C19.4537 31.059 19.4713 31.0664 19.4879 31.0664V31.0683ZM23.5746 9.42418C22.2391 9.15348 20.9559 8.67002 19.7738 7.99228C19.702 8.00337 19.629 8.00337 19.5573 7.99228C18.3756 8.67024 17.0926 9.15401 15.7574 9.42511C14.3884 9.70908 12.9806 9.74608 11.5995 9.53148C9.21859 14.6218 9.36104 20.2458 11.9547 24.0198C12.8797 25.3721 15.5086 28.6115 19.6655 29.6798C23.8234 28.6115 26.4171 25.3721 27.3763 24.0188C30.0061 20.2458 30.1125 14.5866 27.7315 9.53148C26.3459 9.74423 24.9251 9.70908 23.5746 9.42418Z" fill="#344054"/>
</svg>
