<svg width="48" height="32" viewBox="0 0 48 32" fill="none" xmlns="http://www.w3.org/2000/svg">
<path d="M20.8047 10.1133H27.6983V22.5013H20.8047V10.1133Z" fill="#FF5F00"/>
<path d="M24.2408 22.5736C22.854 23.669 21.1384 24.2649 19.3712 24.2649C17.604 24.2649 15.8884 23.669 14.5016 22.5736C11.088 19.8816 10.4968 14.936 13.188 11.5224C15.88 8.08561 20.8256 7.49521 24.2392 10.1872C23.3063 10.928 22.5524 11.8696 22.0334 12.9419C21.5145 14.0141 21.2438 15.1896 21.2416 16.3808C21.2418 17.5725 21.5117 18.7486 22.0312 19.8211C22.5506 20.8936 23.306 21.8346 24.2408 22.5736Z" fill="#EB001B"/>
<path fill-rule="evenodd" clip-rule="evenodd" d="M37.0014 16.3839C37.0019 17.4186 36.7985 18.4433 36.4027 19.3993C36.007 20.3554 35.4267 21.224 34.695 21.9556C33.9633 22.6873 33.0946 23.2675 32.1385 23.6631C31.1824 24.0588 30.1577 24.2621 29.123 24.2615C27.3596 24.2655 25.6469 23.6715 24.2646 22.5767C27.6782 19.8847 28.2694 14.9391 25.579 11.5255C25.183 11.0423 24.7454 10.5823 24.2422 10.1895C27.6558 7.49668 32.6238 8.08708 35.295 11.5023C36.4023 12.8881 37.0042 14.61 37.0014 16.3839Z" fill="#F79E1B"/>
</svg>
