<svg width="26" height="26" viewBox="0 0 26 26" fill="none" xmlns="http://www.w3.org/2000/svg">
<path d="M24.249 14.0152C23.68 13.3702 22.86 13.0002 22 13.0002H3V5.48221C3 4.64121 3.38 3.80921 4.093 3.36221C5.182 2.67921 6.512 3.01521 7.2 3.93321L7.459 4.27821L6.976 7.04921C6.918 7.38321 6.987 7.72721 7.17 8.01221C7.595 8.67421 8.493 8.83621 9.122 8.36421L12.728 5.66021C13.295 5.23521 13.438 4.44321 13.055 3.84621L13.042 3.82521C12.805 3.45521 12.402 3.22321 11.963 3.20321L9.057 3.07421L8.883 2.84221C8.225 1.96521 7.29 1.30021 6.214 1.08721C3.44 0.53821 1 2.65621 1 5.33321C1 5.33321 1.004 11.0432 1.006 13.2562C1.006 13.8322 1.043 14.4012 1.114 14.9732C1.215 15.7822 1.351 16.8732 1.351 16.8732C1.602 18.8782 2.574 20.6402 3.986 21.9102L3.529 23.7602C3.396 24.2962 3.723 24.8382 4.259 24.9712C4.34 24.9912 4.42 25.0002 4.5 25.0002C4.949 25.0002 5.357 24.6952 5.47 24.2402L5.747 23.1192C6.856 23.6832 8.107 24.0002 9.423 24.0002H16.84C18.063 24.0002 19.23 23.7272 20.28 23.2352L20.529 24.2402C20.641 24.6952 21.05 25.0002 21.499 25.0002C21.579 25.0002 21.659 24.9902 21.74 24.9712C22.276 24.8382 22.603 24.2962 22.47 23.7602L22.06 22.1002C23.59 20.8182 24.651 18.9802 24.914 16.8742L24.976 16.3732C25.082 15.5192 24.818 14.6612 24.248 14.0162L24.249 14.0152ZM22.992 16.1242L22.93 16.6252C22.547 19.6892 19.929 22.0002 16.841 22.0002H9.424C6.336 22.0002 3.719 19.6892 3.336 16.6252L3.133 15.0002H22C22.291 15.0002 22.558 15.1202 22.75 15.3382C22.942 15.5572 23.028 15.8352 22.992 16.1242Z" fill="#344054" stroke="white" stroke-width="0.4"/>
</svg>
