<svg width="24" height="21" viewBox="0 0 24 21" fill="none" xmlns="http://www.w3.org/2000/svg">
<path d="M19 4.5H13C12.0868 4.50335 11.1921 4.75737 10.4134 5.23437C9.63465 5.71136 9.00186 6.39302 8.584 7.205C7.9844 6.74979 7.25282 6.5023 6.5 6.5C5.57174 6.5 4.6815 6.86875 4.02513 7.52513C3.36875 8.1815 3 9.07174 3 10C3.00293 10.52 3.12289 11.0327 3.351 11.5H2V1.5C2 1.23478 1.89464 0.98043 1.70711 0.792893C1.51957 0.605357 1.26522 0.5 1 0.5C0.734784 0.5 0.48043 0.605357 0.292893 0.792893C0.105357 0.98043 0 1.23478 0 1.5L0 19.5C0 19.7652 0.105357 20.0196 0.292893 20.2071C0.48043 20.3946 0.734784 20.5 1 20.5C1.26522 20.5 1.51957 20.3946 1.70711 20.2071C1.89464 20.0196 2 19.7652 2 19.5V17.5H22V19.5C22 19.7652 22.1054 20.0196 22.2929 20.2071C22.4804 20.3946 22.7348 20.5 23 20.5C23.2652 20.5 23.5196 20.3946 23.7071 20.2071C23.8946 20.0196 24 19.7652 24 19.5V9.5C23.9984 8.17441 23.4711 6.90356 22.5338 5.96622C21.5964 5.02888 20.3256 4.50159 19 4.5ZM10 9.5C10 8.70435 10.3161 7.94129 10.8787 7.37868C11.4413 6.81607 12.2044 6.5 13 6.5H19C19.7956 6.5 20.5587 6.81607 21.1213 7.37868C21.6839 7.94129 22 8.70435 22 9.5V11.5H10V9.5ZM5 10C5 9.70333 5.08797 9.41332 5.2528 9.16665C5.41762 8.91997 5.65189 8.72771 5.92597 8.61418C6.20006 8.50065 6.50166 8.47094 6.79264 8.52882C7.08361 8.5867 7.35088 8.72956 7.56066 8.93934C7.77044 9.14912 7.9133 9.41639 7.97118 9.70736C8.02906 9.99834 7.99935 10.2999 7.88582 10.574C7.77229 10.8481 7.58003 11.0824 7.33336 11.2472C7.08668 11.412 6.79667 11.5 6.5 11.5C6.10218 11.5 5.72064 11.342 5.43934 11.0607C5.15804 10.7794 5 10.3978 5 10ZM2 15.5V13.5H22V15.5H2Z" fill="#344054"/>
</svg>
