<svg width="18" height="19" viewBox="0 0 18 19" fill="none" xmlns="http://www.w3.org/2000/svg">
<path d="M8.5 8.41591H8.50007C9.60794 8.41488 10.5058 7.51704 10.5068 6.40916V6.40909C10.5068 5.30074 9.60835 4.40227 8.5 4.40227C7.39164 4.40227 6.49318 5.30074 6.49318 6.40909C6.49318 7.51745 7.39164 8.41591 8.5 8.41591ZM3.86364 7.64318L3.86372 7.64318C4.54494 7.64243 5.09697 7.0904 5.09773 6.40917V6.40909C5.09773 5.72752 4.54521 5.175 3.86364 5.175C3.18206 5.175 2.62955 5.72752 2.62955 6.40909C2.62955 7.09066 3.18206 7.64318 3.86364 7.64318ZM14.6819 0.925H14.6818L2.31818 0.925L2.3181 0.925C0.997007 0.926461 -0.0735393 1.99701 -0.075 3.3181V3.31818L-0.075 9.5L-0.075 9.50008C-0.0735393 10.8212 0.997007 11.8917 2.3181 11.8932H2.31818H14.6818H14.6819C16.003 11.8917 17.0735 10.8212 17.075 9.50008V9.5V3.31818V3.3181C17.0735 1.99701 16.003 0.926461 14.6819 0.925ZM13.1364 7.64318L13.1364 7.64318C13.8177 7.64243 14.3697 7.0904 14.3705 6.40917V6.40909C14.3705 5.72752 13.8179 5.175 13.1364 5.175C12.4548 5.175 11.9023 5.72752 11.9023 6.40909C11.9023 7.09066 12.4548 7.64318 13.1364 7.64318ZM0.386364 14.0614C0.131574 14.0614 -0.075 14.2679 -0.075 14.5227C-0.075 14.7775 0.131575 14.9841 0.386364 14.9841H16.6136C16.8684 14.9841 17.075 14.7775 17.075 14.5227C17.075 14.2679 16.8684 14.0614 16.6136 14.0614H0.386364ZM0.386364 17.1523C0.131574 17.1523 -0.075 17.3588 -0.075 17.6136C-0.075 17.8684 0.131574 18.075 0.386364 18.075H16.6136C16.8684 18.075 17.075 17.8684 17.075 17.6136C17.075 17.3588 16.8684 17.1523 16.6136 17.1523H0.386364ZM8.5 7.49318C7.90127 7.49318 7.41591 7.00782 7.41591 6.40909C7.41591 5.81039 7.90122 5.32504 8.49992 5.325C9.09843 5.32566 9.58343 5.81066 9.58409 6.40917C9.58405 7.00787 9.0987 7.49318 8.5 7.49318ZM3.86364 6.72045C3.69169 6.72045 3.55227 6.58104 3.55227 6.40909C3.55227 6.23719 3.69162 6.0978 3.8635 6.09773C4.03542 6.09808 4.17466 6.23732 4.175 6.40924L4.25 6.40909H4.175C4.175 6.58104 4.03558 6.72045 3.86364 6.72045ZM16.1523 9.4999C16.1512 10.3117 15.4935 10.9694 14.6817 10.9705H2.31828C1.50653 10.9694 0.848759 10.3117 0.847727 9.4999V3.31828C0.848759 2.50653 1.50653 1.84876 2.31828 1.84773H14.6817C15.4935 1.84876 16.1512 2.50653 16.1523 3.31828V9.4999ZM13.1364 6.72045C12.9644 6.72045 12.825 6.58104 12.825 6.40909C12.825 6.23719 12.9643 6.0978 13.1362 6.09773C13.3081 6.09808 13.4474 6.23732 13.4477 6.40924C13.4476 6.58112 13.3083 6.72045 13.1364 6.72045Z" fill="#344054" stroke="#344054" stroke-width="0.15"/>
</svg>
