<svg width="191" height="73" viewBox="0 0 191 73" fill="none" xmlns="http://www.w3.org/2000/svg">
<path d="M43.8379 53.25H38.8579L37.9579 57H32.4379L37.9579 39.9H45.0079L50.2879 57H44.7379L43.8379 53.25ZM41.3179 43.59L39.5479 49.92H43.1179L41.4379 43.59H41.3179ZM60.6597 42.9C60.9197 42.9 61.1897 42.93 61.4697 42.99C61.7697 43.05 61.9897 43.12 62.1297 43.2C62.1297 43.64 62.0797 44.37 61.9797 45.39C61.8797 46.39 61.7897 47.1 61.7097 47.52C61.5097 47.5 61.1397 47.49 60.5997 47.49C59.3397 47.49 58.2197 47.56 57.2397 47.7V57H52.1097V43.2H56.3997L56.9997 45.42H57.0297C57.6097 44.66 58.2297 44.05 58.8897 43.59C59.5497 43.13 60.1397 42.9 60.6597 42.9ZM75.6869 56.58C74.0669 57.12 72.2569 57.39 70.2569 57.39C68.0169 57.39 66.3369 56.83 65.2169 55.71C64.1169 54.57 63.5669 52.8 63.5669 50.4C63.5669 49.22 63.7269 48.06 64.0469 46.92C64.3669 45.76 64.7069 44.98 65.0669 44.58C65.4869 44.12 66.3069 43.73 67.5269 43.41C68.7669 43.09 70.0469 42.93 71.3669 42.93C72.7469 42.93 74.1369 43.05 75.5369 43.29C75.4969 43.79 75.4269 44.38 75.3269 45.06C75.2469 45.72 75.1569 46.31 75.0569 46.83C73.8169 46.75 72.6469 46.71 71.5469 46.71C70.4669 46.71 69.7769 46.77 69.4769 46.89C69.3169 46.95 69.1669 47.36 69.0269 48.12C68.9069 48.88 68.8469 49.59 68.8469 50.25C68.8469 51.13 68.9669 51.81 69.2069 52.29C69.4669 52.75 69.8669 53.07 70.4069 53.25C70.9469 53.43 71.6769 53.52 72.5969 53.52C72.9969 53.52 73.8769 53.48 75.2369 53.4L75.6869 56.58ZM91.357 44.07C91.537 44.29 91.667 44.84 91.747 45.72C91.847 46.6 91.897 47.94 91.897 49.74V57H86.767V49.8C86.767 49.72 86.767 49.33 86.767 48.63C86.767 47.91 86.717 47.47 86.617 47.31C86.557 47.23 86.407 47.17 86.167 47.13C85.947 47.09 85.687 47.07 85.387 47.07L84.877 47.1C84.317 47.12 83.737 47.25 83.137 47.49V57H78.007V39L83.137 38.79V42.3C83.137 43.74 83.087 44.7 82.987 45.18L83.017 45.21C84.377 43.67 86.007 42.9 87.907 42.9C88.627 42.9 89.297 43 89.917 43.2C90.557 43.4 91.037 43.69 91.357 44.07ZM97.5367 41.49C96.8567 41.49 96.2667 41.26 95.7667 40.8C95.2867 40.34 95.0467 39.79 95.0467 39.15C95.0467 38.51 95.2867 37.96 95.7667 37.5C96.2667 37.04 96.8567 36.81 97.5367 36.81C98.2167 36.81 98.7967 37.04 99.2767 37.5C99.7567 37.96 99.9967 38.51 99.9967 39.15C99.9967 39.79 99.7567 40.34 99.2767 40.8C98.7967 41.26 98.2167 41.49 97.5367 41.49ZM94.9567 43.2H100.087V57H94.9567V43.2ZM124.8 44.16C125.12 44.64 125.28 46.5 125.28 49.74V57H120.15V50.25V48.63C120.15 47.89 120.08 47.45 119.94 47.31C119.78 47.15 119.44 47.07 118.92 47.07L118.56 47.1C117.94 47.14 117.35 47.28 116.79 47.52C116.81 47.94 116.82 48.68 116.82 49.74V57H111.69V50.25V48.45C111.69 47.83 111.62 47.45 111.48 47.31C111.32 47.15 110.98 47.07 110.46 47.07L110.1 47.1C109.54 47.12 108.96 47.25 108.36 47.49V57H103.23V43.2H107.4L107.94 45.45C108.6 44.57 109.36 43.93 110.22 43.53C111.08 43.11 111.95 42.9 112.83 42.9C113.57 42.9 114.27 43.01 114.93 43.23C115.61 43.45 116.08 43.76 116.34 44.16C116.46 44.34 116.56 44.67 116.64 45.15C117.28 44.37 118.01 43.8 118.83 43.44C119.65 43.08 120.47 42.9 121.29 42.9C122.03 42.9 122.73 43.01 123.39 43.23C124.07 43.45 124.54 43.76 124.8 44.16ZM136.484 57L136.004 55.11C135.084 56.61 133.804 57.36 132.164 57.36C130.824 57.36 129.724 56.99 128.864 56.25C128.024 55.49 127.604 54.43 127.604 53.07C127.604 52.23 127.844 51.5 128.324 50.88C128.824 50.24 129.504 49.79 130.364 49.53C131.484 49.21 133.214 49.03 135.554 48.99C135.554 47.67 135.494 46.97 135.374 46.89C135.274 46.81 134.954 46.77 134.414 46.77C134.074 46.77 133.604 46.79 133.004 46.83C132.044 46.87 130.744 46.98 129.104 47.16C128.944 46.08 128.824 44.92 128.744 43.68C129.804 43.46 130.914 43.28 132.074 43.14C133.234 42.98 134.274 42.9 135.194 42.9C136.794 42.9 137.994 43.17 138.794 43.71C139.594 44.23 140.114 44.92 140.354 45.78C140.594 46.64 140.704 47.73 140.684 49.05L140.654 53.46L140.744 57H136.484ZM133.904 54C134.424 54 134.974 53.9 135.554 53.7V51.48H135.314C133.834 51.48 133.014 51.56 132.854 51.72C132.754 51.82 132.674 51.97 132.614 52.17C132.574 52.37 132.554 52.56 132.554 52.74C132.554 53.22 132.664 53.55 132.884 53.73C133.104 53.91 133.444 54 133.904 54ZM149.96 51.33C149.96 51.69 149.97 52.07 149.99 52.47C150.01 52.85 150.07 53.09 150.17 53.19C150.31 53.33 150.8 53.4 151.64 53.4L152.66 53.37C152.84 54.33 152.93 55.44 152.93 56.7C152.55 56.84 151.99 56.97 151.25 57.09C150.53 57.21 149.84 57.27 149.18 57.27C147.8 57.27 146.73 56.97 145.97 56.37C145.23 55.75 144.86 54.8 144.86 53.52V46.14H142.61V43.41L144.86 43.2L146.21 39.9L149.96 39.69V43.2H153.14V46.14H149.96V51.33ZM166.885 56.58C165.265 57.12 163.455 57.39 161.455 57.39C159.215 57.39 157.535 56.83 156.415 55.71C155.315 54.57 154.765 52.8 154.765 50.4C154.765 49.22 154.925 48.06 155.245 46.92C155.565 45.76 155.905 44.98 156.265 44.58C156.685 44.12 157.505 43.73 158.725 43.41C159.965 43.09 161.245 42.93 162.565 42.93C163.945 42.93 165.335 43.05 166.735 43.29C166.695 43.79 166.625 44.38 166.525 45.06C166.445 45.72 166.355 46.31 166.255 46.83C165.015 46.75 163.845 46.71 162.745 46.71C161.665 46.71 160.975 46.77 160.675 46.89C160.515 46.95 160.365 47.36 160.225 48.12C160.105 48.88 160.045 49.59 160.045 50.25C160.045 51.13 160.165 51.81 160.405 52.29C160.665 52.75 161.065 53.07 161.605 53.25C162.145 53.43 162.875 53.52 163.795 53.52C164.195 53.52 165.075 53.48 166.435 53.4L166.885 56.58ZM182.555 44.07C182.735 44.29 182.865 44.84 182.945 45.72C183.045 46.6 183.095 47.94 183.095 49.74V57H177.965V49.8C177.965 49.72 177.965 49.33 177.965 48.63C177.965 47.91 177.915 47.47 177.815 47.31C177.755 47.23 177.605 47.17 177.365 47.13C177.145 47.09 176.885 47.07 176.585 47.07L176.075 47.1C175.515 47.12 174.935 47.25 174.335 47.49V57H169.205V39L174.335 38.79V42.3C174.335 43.74 174.285 44.7 174.185 45.18L174.215 45.21C175.575 43.67 177.205 42.9 179.105 42.9C179.825 42.9 180.495 43 181.115 43.2C181.755 43.4 182.235 43.69 182.555 44.07Z" fill="#1B2534"/>
<path d="M25.5126 21.0674L0 0V10.5346L25.5126 31.3445V21.0674Z" fill="#11ABEC"/>
<path d="M25.5126 35.5615V36.3018V42.3906V56.8235H8.56128V37.8114V36.3018V32.8017V31.0345V28.563V27.9199V21.5627L25.5126 35.5615Z" fill="#ADDEF9"/>
<path d="M17.0317 39.1877V39.6957V46.0168V56.8234H0.0803223V40.6594V39.6957V34.3419V33.3367V32.1892V31.8596V25.189L8.556 32.1892L17.0317 39.1877Z" fill="#11ABEC"/>
</svg>
