<svg width="25" height="24" viewBox="0 0 25 24" fill="none" xmlns="http://www.w3.org/2000/svg">
<path d="M24.2 11.5C24.2 10.2605 23.3912 9.20657 22.2833 8.89359V6.5C22.2833 3.36465 19.8375 0.8 16.8125 0.8H8.1875C5.16248 0.8 2.71667 3.36465 2.71667 6.5V8.89346C1.60867 9.2056 0.8 10.2597 0.8 11.5V16.5C0.8 18.0844 1.55701 19.4905 2.71667 20.3427V22.5C2.71667 22.8783 3.01294 23.2 3.39583 23.2C3.77873 23.2 4.075 22.8783 4.075 22.5V21.0203C4.46819 21.1371 4.88344 21.2 5.3125 21.2H19.6875C20.1166 21.2 20.5318 21.1371 20.925 21.0203V22.5C20.925 22.8783 21.2213 23.2 21.6042 23.2C21.9871 23.2 22.2833 22.8783 22.2833 22.5V20.3427C23.443 19.4905 24.2 18.0844 24.2 16.5V11.5ZM8.1875 2.2H16.8125C19.0717 2.2 20.925 4.12135 20.925 6.5V8.89346C19.817 9.2056 19.0083 10.2597 19.0083 11.5V14.8H5.99167V11.5C5.99167 10.2605 5.18287 9.20657 4.075 8.89359V6.5C4.075 4.12135 5.92827 2.2 8.1875 2.2ZM22.8417 16.5C22.8417 18.3277 21.4187 19.8 19.6875 19.8H5.3125C3.58131 19.8 2.15833 18.3277 2.15833 16.5V11.5C2.15833 10.7753 2.72169 10.2 3.39583 10.2C4.06998 10.2 4.63333 10.7753 4.63333 11.5V15.5C4.63333 15.8783 4.92961 16.2 5.3125 16.2H19.6875C20.0704 16.2 20.3667 15.8783 20.3667 15.5V11.5C20.3667 10.7753 20.93 10.2 21.6042 10.2C22.2783 10.2 22.8417 10.7753 22.8417 11.5V16.5Z" fill="#344054" stroke="#344054" stroke-width="0.4"/>
</svg>
