<svg width="41" height="47" viewBox="0 0 41 47" fill="none" xmlns="http://www.w3.org/2000/svg">
<path d="M23.7021 0C24.3251 0 24.9226 0.247346 25.3632 0.687675L39.2611 14.5752C39.7022 15.0159 39.95 15.6139 39.95 16.2374V41.5166C39.95 44.5451 37.446 47 34.357 47H5.593C2.50407 47 0 44.5451 0 41.5166V5.48334C0 2.45497 2.50407 0 5.593 0H23.7021Z" fill="#E94848"/>
<g filter="url(#filter0_d_7581_47287)">
<path d="M38.9612 14.4839C39.3956 14.922 39.0854 15.6667 38.4684 15.6667H30.418C26.8406 15.6667 23.6133 12.5201 23.6133 9.03196V0.695416C23.6133 0.0757371 24.3637 -0.233283 24.8001 0.206671L38.9612 14.4839Z" fill="white" fill-opacity="0.24"/>
</g>
<path d="M18.8784 18.2812C17.8754 18.2812 17.0505 19.1061 17.0505 20.1091C17.0505 21.3559 17.7433 22.9038 18.4728 24.3587C17.9025 26.1436 17.2556 28.0565 16.428 29.6706C14.7341 30.3352 13.2237 30.8292 12.3154 31.5612C12.3013 31.5757 12.2879 31.5909 12.2755 31.6069C11.9436 31.9463 11.75 32.4084 11.75 32.9035C11.75 33.9065 12.5749 34.7313 13.5778 34.7313C14.0669 34.7313 14.539 34.5488 14.8801 34.2002C14.8918 34.191 14.9033 34.1815 14.9144 34.1715C15.5829 33.3733 16.371 31.9252 17.0735 30.6017C18.692 29.965 20.3885 29.3171 22.0255 28.928C23.2206 29.8912 24.9495 30.5275 26.3722 30.5275C27.3752 30.5275 28.2 29.7026 28.2 28.6996C28.2 27.6966 27.3752 26.8718 26.3722 26.8718C25.2312 26.8718 23.5732 27.2792 22.3054 27.7058C21.2778 26.7411 20.3337 25.5363 19.6552 24.2559C20.14 22.7622 20.7061 21.2679 20.7061 20.1091C20.7061 19.1061 19.8814 18.2812 18.8784 18.2812ZM18.8784 19.378C19.2886 19.378 19.6095 19.6988 19.6095 20.1091C19.6095 20.6577 19.3157 21.6677 18.9754 22.7537C18.5208 21.6972 18.1472 20.6837 18.1472 20.1091C18.1472 19.6988 18.4681 19.378 18.8784 19.378ZM19.1925 25.6324C19.7422 26.5068 20.386 27.3205 21.0888 28.0428C20.0048 28.3391 18.9463 28.7189 17.9016 29.1166C18.4061 27.9778 18.8101 26.796 19.1925 25.6324ZM26.3722 27.9685C26.7825 27.9685 27.1034 28.2893 27.1034 28.6996C27.1034 29.1099 26.7825 29.4307 26.3722 29.4307C25.5486 29.4307 24.378 29.0589 23.4421 28.5397C24.5163 28.236 25.6884 27.9685 26.3722 27.9685ZM15.4626 31.2414C14.9487 32.1588 14.4378 33.0152 14.0804 33.4462C13.9583 33.5628 13.7959 33.6346 13.5778 33.6346C13.1675 33.6346 12.8466 33.3137 12.8466 32.9035C12.8466 32.7105 12.9288 32.5187 13.0409 32.3951C13.4696 32.0633 14.4024 31.6657 15.4626 31.2414Z" fill="white"/>
<defs>
<filter id="filter0_d_7581_47287" x="21.8133" y="0" width="19.1508" height="19.268" filterUnits="userSpaceOnUse" color-interpolation-filters="sRGB">
<feFlood flood-opacity="0" result="BackgroundImageFix"/>
<feColorMatrix in="SourceAlpha" type="matrix" values="0 0 0 0 0 0 0 0 0 0 0 0 0 0 0 0 0 0 127 0" result="hardAlpha"/>
<feOffset dy="1.8"/>
<feGaussianBlur stdDeviation="0.9"/>
<feComposite in2="hardAlpha" operator="out"/>
<feColorMatrix type="matrix" values="0 0 0 0 0 0 0 0 0 0 0 0 0 0 0 0 0 0 0.04 0"/>
<feBlend mode="normal" in2="BackgroundImageFix" result="effect1_dropShadow_7581_47287"/>
<feBlend mode="normal" in="SourceGraphic" in2="effect1_dropShadow_7581_47287" result="shape"/>
</filter>
</defs>
</svg>
