<svg width="337" height="337" viewBox="0 0 337 337" fill="none" xmlns="http://www.w3.org/2000/svg">
<rect x="337" y="123.35" width="246.701" height="246.701" rx="123.351" transform="rotate(120 337 123.35)" fill="url(#paint0_linear_7502_25342)"/>
<g filter="url(#filter0_dd_7502_25342)">
<rect x="21.625" y="95.6191" width="202.213" height="193.104" rx="16" fill="white"/>
<path d="M41 171.996H61V185.996H41V171.996Z" fill="#F2F5FF"/>
</g>
<path d="M34.4565 113.562C34.4565 111.889 35.8114 110.533 37.4827 110.533H112.732C114.404 110.533 115.758 111.889 115.758 113.562C115.758 115.235 114.404 116.591 112.732 116.591H37.4827C35.8114 116.591 34.4565 115.235 34.4565 113.562Z" fill="#F2F5FF"/>
<path d="M34.4565 137.793C34.4565 136.12 35.8114 134.764 37.4827 134.764H124.195C125.866 134.764 127.221 136.12 127.221 137.793C127.221 139.466 125.866 140.822 124.195 140.822H37.4827C35.8114 140.822 34.4565 139.466 34.4565 137.793Z" fill="#F2F5FF"/>
<path d="M34.4565 151.725C34.4565 150.053 35.8114 148.697 37.4827 148.697H177.179C178.851 148.697 180.206 150.053 180.206 151.725C180.206 153.398 178.851 154.754 177.179 154.754H37.4827C35.8114 154.754 34.4565 153.398 34.4565 151.725Z" fill="#F2F5FF"/>
<path d="M76.217 178.379C76.217 176.706 77.5719 175.35 79.2432 175.35H178.5C180.171 175.35 181.526 176.706 181.526 178.379C181.526 180.052 180.171 181.408 178.5 181.408H79.2432C77.5719 181.408 76.217 180.052 76.217 178.379Z" fill="#F2F5FF"/>
<path d="M58.0603 213.514C58.0603 211.841 59.4151 210.485 61.0864 210.485H109.504C111.176 210.485 112.53 211.841 112.53 213.514C112.53 215.187 111.176 216.543 109.504 216.543H61.0864C59.4151 216.543 58.0603 215.187 58.0603 213.514Z" fill="#F2F5FF"/>
<path d="M147.028 213.514C147.028 211.841 148.383 210.485 150.054 210.485H198.472C200.144 210.485 201.499 211.841 201.499 213.514C201.499 215.187 200.144 216.543 198.472 216.543H150.054C148.383 216.543 147.028 215.187 147.028 213.514Z" fill="#F2F5FF"/>
<path d="M58.0603 231.081C58.0603 229.408 59.4151 228.052 61.0864 228.052H109.504C111.176 228.052 112.53 229.408 112.53 231.081C112.53 232.754 111.176 234.11 109.504 234.11H61.0864C59.4151 234.11 58.0603 232.754 58.0603 231.081Z" fill="#F2F5FF"/>
<path d="M147.028 231.081C147.028 229.408 148.383 228.052 150.054 228.052H198.472C200.144 228.052 201.499 229.408 201.499 231.081C201.499 232.754 200.144 234.11 198.472 234.11H150.054C148.383 234.11 147.028 232.754 147.028 231.081Z" fill="#F2F5FF"/>
<path d="M34.4565 213.514C34.4565 211.841 35.8114 210.485 37.4827 210.485H49.5872C51.2584 210.485 52.6133 211.841 52.6133 213.514C52.6133 215.187 51.2584 216.543 49.5872 216.543H37.4827C35.8114 216.543 34.4565 215.187 34.4565 213.514Z" fill="#F2F5FF"/>
<path d="M123.425 213.514C123.425 211.841 124.779 210.485 126.451 210.485H138.555C140.226 210.485 141.581 211.841 141.581 213.514C141.581 215.187 140.226 216.543 138.555 216.543H126.451C124.779 216.543 123.425 215.187 123.425 213.514Z" fill="#F2F5FF"/>
<path d="M34.4565 231.081C34.4565 229.408 35.8114 228.052 37.4827 228.052H49.5872C51.2584 228.052 52.6133 229.408 52.6133 231.081C52.6133 232.754 51.2584 234.11 49.5872 234.11H37.4827C35.8114 234.11 34.4565 232.754 34.4565 231.081Z" fill="#F2F5FF"/>
<path d="M123.425 231.081C123.425 229.408 124.779 228.052 126.451 228.052H138.555C140.226 228.052 141.581 229.408 141.581 231.081C141.581 232.754 140.226 234.11 138.555 234.11H126.451C124.779 234.11 123.425 232.754 123.425 231.081Z" fill="#F2F5FF"/>
<path d="M181.526 113.562C181.526 111.889 182.881 110.533 184.552 110.533H208.156C209.827 110.533 211.182 111.889 211.182 113.562C211.182 115.235 209.827 116.591 208.156 116.591H184.552C182.881 116.591 181.526 115.235 181.526 113.562Z" fill="#F2F5FF"/>
<path d="M172.448 113.562C172.448 111.889 173.803 110.533 175.474 110.533C177.145 110.533 178.5 111.889 178.5 113.562C178.5 115.235 177.145 116.591 175.474 116.591C173.803 116.591 172.448 115.235 172.448 113.562Z" fill="#F2F5FF"/>
<path d="M49.5872 178.682C49.5872 183.199 45.9291 186.86 41.4166 186.86C36.9042 186.86 33.2461 183.199 33.2461 178.682C33.2461 174.166 36.9042 170.504 41.4166 170.504C45.9291 170.504 49.5872 174.166 49.5872 178.682Z" fill="#F2F5FF"/>
<path d="M70.1648 178.682C70.1648 183.199 66.5067 186.86 61.9943 186.86C57.4818 186.86 53.8237 183.199 53.8237 178.682C53.8237 174.166 57.4818 170.504 61.9943 170.504C66.5067 170.504 70.1648 174.166 70.1648 178.682Z" fill="#F2F5FF"/>
<path d="M59.876 178.682C59.876 183.199 56.2179 186.86 51.7054 186.86C47.193 186.86 43.5349 183.199 43.5349 178.682C43.5349 174.166 47.193 170.504 51.7054 170.504C56.2179 170.504 59.876 174.166 59.876 178.682Z" fill="#F2F5FF"/>
<path d="M34.2272 255.878C34.2272 254.205 35.5821 252.849 37.2533 252.849H207.321C208.993 252.849 210.348 254.205 210.348 255.878V274.656C210.348 276.329 208.993 277.685 207.321 277.685H37.2533C35.5821 277.685 34.2272 276.329 34.2272 274.656V255.878Z" fill="#F2F5FF"/>
<defs>
<filter id="filter0_dd_7502_25342" x="1.625" y="87.6191" width="242.215" height="233.104" filterUnits="userSpaceOnUse" color-interpolation-filters="sRGB">
<feFlood flood-opacity="0" result="BackgroundImageFix"/>
<feColorMatrix in="SourceAlpha" type="matrix" values="0 0 0 0 0 0 0 0 0 0 0 0 0 0 0 0 0 0 127 0" result="hardAlpha"/>
<feMorphology radius="4" operator="erode" in="SourceAlpha" result="effect1_dropShadow_7502_25342"/>
<feOffset dy="12"/>
<feGaussianBlur stdDeviation="12"/>
<feComposite in2="hardAlpha" operator="out"/>
<feColorMatrix type="matrix" values="0 0 0 0 0.568627 0 0 0 0 0.619608 0 0 0 0 0.670588 0 0 0 0.12 0"/>
<feBlend mode="normal" in2="BackgroundImageFix" result="effect1_dropShadow_7502_25342"/>
<feColorMatrix in="SourceAlpha" type="matrix" values="0 0 0 0 0 0 0 0 0 0 0 0 0 0 0 0 0 0 127 0" result="hardAlpha"/>
<feOffset/>
<feGaussianBlur stdDeviation="1"/>
<feComposite in2="hardAlpha" operator="out"/>
<feColorMatrix type="matrix" values="0 0 0 0 0.568627 0 0 0 0 0.619608 0 0 0 0 0.670588 0 0 0 0.2 0"/>
<feBlend mode="normal" in2="effect1_dropShadow_7502_25342" result="effect2_dropShadow_7502_25342"/>
<feBlend mode="normal" in="SourceGraphic" in2="effect2_dropShadow_7502_25342" result="shape"/>
</filter>
<linearGradient id="paint0_linear_7502_25342" x1="583.747" y1="246.952" x2="336.954" y2="246.86" gradientUnits="userSpaceOnUse">
<stop offset="0.017" stop-color="#F4FDFF"/>
<stop offset="0.9068" stop-color="#DAF2FF"/>
</linearGradient>
</defs>
</svg>
