<svg width="19" height="17" viewBox="0 0 19 17" fill="none" xmlns="http://www.w3.org/2000/svg">
<path d="M16.5 5C16.4998 5 16.5002 5 16.5 5H18.5C18.7761 5 19 4.77612 19 4.5C19 4.22388 18.7761 4 18.5 4H17V1H18.5C18.7761 1 19 0.776123 19 0.5C19 0.223877 18.7761 0 18.5 0H0.5C0.223877 0 0 0.223877 0 0.5C0 0.776123 0.223877 1 0.5 1H4V4H0.5C0.223877 4 0 4.22388 0 4.5C0 4.77612 0.223877 5 0.5 5H2V8H0.5C0.223877 8 0 8.22388 0 8.5C0 8.77612 0.223877 9 0.5 9H2.5C2.49976 9 2.50018 9 2.5 9H4V12H0.5C0.223877 12 0 12.2239 0 12.5C0 12.7761 0.223877 13 0.5 13H2V16H0.5C0.223877 16 0 16.2239 0 16.5C0 16.7761 0.223877 17 0.5 17H2.5C2.49976 17 2.50018 17 2.5 17H8.5C8.49976 17 8.50018 17 8.5 17H14.5C14.4998 17 14.5002 17 14.5 17H18.5C18.7761 17 19 16.7761 19 16.5C19 16.2239 18.7761 16 18.5 16H15V13H16.5C16.4998 13 16.5002 13 16.5 13H18.5C18.7761 13 19 12.7761 19 12.5C19 12.2239 18.7761 12 18.5 12H17V9H18.5C18.7761 9 19 8.77612 19 8.5C19 8.22388 18.7761 8 18.5 8H15V5H16.5ZM10.5006 5H14V8H9V5H10.5006C10.5008 5 10.5004 5 10.5006 5ZM5 1H10V4H5V1ZM3 8V5H4.5C4.49976 5 4.50018 5 4.5 5H8V8H3ZM8 16H3V13H4.5C4.49976 13 4.50018 13 4.5 13H8V16ZM5 12V9H8.5C8.49976 9 8.50018 9 8.5 9H10V12H5ZM14 16H9V13H10.5C10.4998 13 10.5002 13 10.5 13H14V16ZM16 9V12H11V9H14.5C14.4998 9 14.5002 9 14.5 9H16ZM11 4V1H16V4H11Z" fill="#344054"/>
</svg>
