<svg width="11" height="17" viewBox="0 0 11 17" fill="none" xmlns="http://www.w3.org/2000/svg">
<path d="M10.3855 0.47765C10.3855 0.35245 10.3357 0.232378 10.2472 0.143848C10.1587 0.0553181 10.0386 0.00558249 9.91341 0.00558249H7.55307C6.36453 -0.0536233 5.20086 0.360002 4.31632 1.15609C3.43178 1.95217 2.89829 3.06599 2.8324 4.25419V6.80335H0.472067C0.346867 6.80335 0.226795 6.85309 0.138265 6.94162C0.0497356 7.03014 0 7.15022 0 7.27542V9.73017C0 9.85537 0.0497356 9.97544 0.138265 10.064C0.226795 10.1525 0.346867 10.2022 0.472067 10.2022H2.8324V16.5279C2.8324 16.6531 2.88214 16.7732 2.97067 16.8617C3.0592 16.9503 3.17927 17 3.30447 17H6.13687C6.26207 17 6.38215 16.9503 6.47067 16.8617C6.55921 16.7732 6.60894 16.6531 6.60894 16.5279V10.2022H9.08257C9.18755 10.2037 9.29004 10.1702 9.37382 10.1069C9.45761 10.0437 9.51791 9.95428 9.5452 9.8529L10.225 7.39815C10.2438 7.3284 10.2463 7.25527 10.2324 7.18439C10.2184 7.11351 10.1884 7.04677 10.1446 6.98932C10.1009 6.93186 10.0445 6.88521 9.97984 6.85297C9.9152 6.82073 9.84402 6.80375 9.77179 6.80335H6.60894V4.25419C6.63242 4.02049 6.74217 3.80394 6.91675 3.64682C7.09133 3.4897 7.3182 3.40329 7.55307 3.40447H9.91341C10.0386 3.40447 10.1587 3.35473 10.2472 3.2662C10.3357 3.17767 10.3855 3.0576 10.3855 2.9324V0.47765Z" fill="#1877F2"/>
</svg>
