<svg width="24" height="27" viewBox="0 0 24 27" fill="none" xmlns="http://www.w3.org/2000/svg">
<path fill-rule="evenodd" clip-rule="evenodd" d="M8.26953 9.1504C8.26954 8.57128 8.43718 8.00454 8.7522 7.51859C9.06721 7.03265 9.51615 6.64826 10.0448 6.41184C10.5735 6.17542 11.1593 6.09707 11.7315 6.18625C12.3037 6.27543 12.8379 6.52832 13.2695 6.9144C13.7659 6.46951 14.3964 6.20261 15.0613 6.15583C15.7262 6.10906 16.3878 6.28508 16.9416 6.65611C17.4954 7.02713 17.9098 7.57203 18.1195 8.20478C18.3292 8.83753 18.3222 9.52209 18.0995 10.1504H19.2695C19.8 10.1504 20.3087 10.3611 20.6837 10.7362C21.0588 11.1113 21.2695 11.62 21.2695 12.1504C21.2695 12.6808 21.0588 13.1895 20.6837 13.5646C20.3087 13.9397 19.8 14.1504 19.2695 14.1504H14.2695V13.1504C14.2695 12.8852 14.1642 12.6308 13.9766 12.4433C13.7891 12.2558 13.5347 12.1504 13.2695 12.1504C13.0043 12.1504 12.75 12.2558 12.5624 12.4433C12.3749 12.6308 12.2695 12.8852 12.2695 13.1504V14.1504H7.26953C6.7391 14.1504 6.23039 13.9397 5.85532 13.5646C5.48024 13.1895 5.26953 12.6808 5.26953 12.1504C5.26953 11.62 5.48024 11.1113 5.85532 10.7362C6.23039 10.3611 6.7391 10.1504 7.26953 10.1504H8.43953C8.32953 9.8374 8.26953 9.5004 8.26953 9.1504ZM12.2695 10.1504V9.1504C12.2695 8.95262 12.2109 8.75928 12.101 8.59483C11.9911 8.43038 11.8349 8.30221 11.6522 8.22652C11.4695 8.15084 11.2684 8.13103 11.0744 8.16962C10.8805 8.2082 10.7023 8.30344 10.5624 8.4433C10.4226 8.58315 10.3273 8.76133 10.2887 8.95531C10.2502 9.14929 10.27 9.35036 10.3457 9.53309C10.4213 9.71581 10.5495 9.87199 10.714 9.98187C10.8784 10.0918 11.0718 10.1504 11.2695 10.1504H12.2695ZM15.2695 10.1504C15.4673 10.1504 15.6607 10.0918 15.8251 9.98187C15.9896 9.87199 16.1177 9.71581 16.1934 9.53309C16.2691 9.35036 16.2889 9.14929 16.2503 8.95531C16.2117 8.76133 16.1165 8.58315 15.9766 8.4433C15.8368 8.30344 15.6586 8.2082 15.4646 8.16962C15.2706 8.13103 15.0696 8.15084 14.8868 8.22652C14.7041 8.30221 14.5479 8.43038 14.4381 8.59483C14.3282 8.75928 14.2695 8.95262 14.2695 9.1504V10.1504H15.2695Z" fill="#344054"/>
<path d="M12.2695 15.1523H6.26953V20.1523C6.26953 20.6828 6.48024 21.1915 6.85532 21.5666C7.23039 21.9416 7.7391 22.1523 8.26953 22.1523H12.2695V15.1523ZM14.2695 22.1523H18.2695C18.8 22.1523 19.3087 21.9416 19.6837 21.5666C20.0588 21.1915 20.2695 20.6828 20.2695 20.1523V15.1523H14.2695V22.1523Z" fill="#344054"/>
</svg>
