<svg width="17" height="17" viewBox="0 0 17 17" fill="none" xmlns="http://www.w3.org/2000/svg">
<path d="M11.4742 5.10159C10.7504 5.09911 10.0331 5.23938 9.3635 5.51439C8.6939 5.78939 8.0851 6.19373 7.57193 6.70427C7.05877 7.21481 6.6513 7.82152 6.37286 8.4897C6.09442 9.15787 5.95046 9.87439 5.94922 10.5983V16.1516C5.94922 16.377 6.03877 16.5932 6.19818 16.7526C6.35758 16.912 6.57378 17.0016 6.79922 17.0016H8.78255C9.00799 17.0016 9.22419 16.912 9.38359 16.7526C9.543 16.5932 9.63255 16.377 9.63255 16.1516V10.5983C9.63237 10.3408 9.68644 10.0862 9.79125 9.85105C9.89606 9.61589 10.0492 9.40547 10.2408 9.23348C10.4324 9.0615 10.6581 8.93183 10.9032 8.85291C11.1482 8.774 11.4072 8.74761 11.6631 8.77548C12.1221 8.8333 12.5439 9.05756 12.8486 9.40572C13.1532 9.75389 13.3195 10.2018 13.3159 10.6644V16.1516C13.3159 16.377 13.4054 16.5932 13.5648 16.7526C13.7242 16.912 13.9405 17.0016 14.1659 17.0016H16.1492C16.3747 17.0016 16.5909 16.912 16.7503 16.7526C16.9097 16.5932 16.9992 16.377 16.9992 16.1516V10.5983C16.998 9.87439 16.854 9.15787 16.5756 8.4897C16.2971 7.82152 15.8897 7.21481 15.3765 6.70427C14.8633 6.19373 14.2545 5.78939 13.5849 5.51439C12.9153 5.23938 12.1981 5.09911 11.4742 5.10159Z" fill="#006097"/>
<path d="M3.4 5.94922H0.85C0.380558 5.94922 0 6.32978 0 6.79922V16.1492C0 16.6187 0.380558 16.9992 0.85 16.9992H3.4C3.86944 16.9992 4.25 16.6187 4.25 16.1492V6.79922C4.25 6.32978 3.86944 5.94922 3.4 5.94922Z" fill="#006097"/>
<path d="M2.125 4.25C3.2986 4.25 4.25 3.2986 4.25 2.125C4.25 0.951395 3.2986 0 2.125 0C0.951395 0 0 0.951395 0 2.125C0 3.2986 0.951395 4.25 2.125 4.25Z" fill="#006097"/>
</svg>
