<svg width="20" height="20" viewBox="0 0 20 20" fill="none" xmlns="http://www.w3.org/2000/svg">
<path d="M1.13967 6.03194C0.433275 4.60181 -0.967874 1.05733 1.02901 0.124742C1.3259 0.000950567 1.65283 -0.0316299 1.96825 0.0311421C2.28366 0.0939141 2.57333 0.249204 2.80042 0.477274L6.92732 4.89434C7.00528 4.97106 7.06739 5.06241 7.1101 5.16317C7.15282 5.26393 7.1753 5.37214 7.17626 5.48161C7.17723 5.59107 7.15666 5.69966 7.11573 5.80116C7.0748 5.90267 7.01431 5.9951 6.93772 6.07319C6.86112 6.15128 6.76992 6.21349 6.66933 6.25628C6.56873 6.29906 6.4607 6.32158 6.35141 6.32255C6.24213 6.32352 6.13372 6.30291 6.03238 6.26192C5.93105 6.22092 5.83876 6.16033 5.7608 6.08361L1.69464 1.73322C1.79365 4.881 3.6441 7.23371 5.72253 9.59976C5.88207 9.75338 5.97416 9.96419 5.97853 10.1858C5.9829 10.4074 5.89919 10.6217 5.74583 10.7815C5.59246 10.9413 5.382 11.0336 5.16074 11.038C4.93948 11.0423 4.72554 10.9585 4.566 10.8049C3.20022 9.3876 2.04617 7.78 1.13967 6.03194ZM15.0114 13.5009C14.898 13.3765 14.7564 13.2813 14.5986 13.2233C14.4407 13.1653 14.2712 13.1462 14.1045 13.1676C13.1393 13.2974 12.1574 13.2149 11.2273 12.9259C11.0848 12.8838 10.9337 12.8812 10.7899 12.9185C10.6461 12.9558 10.5152 13.0315 10.4111 13.1376C9.16799 15.0177 13.1351 14.8986 13.9988 14.8711L18.5608 19.7373C18.6357 19.8171 18.7256 19.8813 18.8253 19.9263C18.925 19.9713 19.0325 19.9962 19.1418 19.9996C19.2511 20.003 19.36 19.9847 19.4622 19.946C19.5645 19.9072 19.6581 19.8486 19.7378 19.7736C19.8174 19.6986 19.8815 19.6086 19.9265 19.5087C19.9714 19.4089 19.9962 19.3011 19.9996 19.1917C20.003 19.0822 19.9848 18.9731 19.9461 18.8707C19.9073 18.7683 19.8489 18.6745 19.774 18.5947L15.0114 13.5009ZM12.5111 11.6674C13.0574 11.6682 13.5985 11.561 14.1034 11.3519C14.6082 11.1428 15.0669 10.836 15.4532 10.449L19.7557 6.13861C19.833 6.06124 19.8944 5.96935 19.9363 5.86821C19.9782 5.76707 19.9998 5.65866 19.9999 5.54915C20 5.43965 19.9785 5.3312 19.9368 5.23C19.895 5.1288 19.8337 5.03683 19.7565 4.95934C19.6792 4.88186 19.5875 4.82037 19.4865 4.77839C19.3856 4.73641 19.2773 4.71477 19.168 4.71469C19.0587 4.71461 18.9504 4.7361 18.8494 4.77794C18.7483 4.81977 18.6565 4.88113 18.5792 4.95851L14.2767 9.26889C13.9113 9.63169 13.4429 9.87254 12.9356 9.95847C12.4283 10.0444 11.9069 9.97122 11.4428 9.74894L14.3512 6.83576L17.2595 3.92258C17.339 3.8457 17.4024 3.75374 17.446 3.65206C17.4896 3.55038 17.5126 3.44102 17.5135 3.33036C17.5145 3.2197 17.4934 3.10996 17.4516 3.00754C17.4098 2.90512 17.348 2.81206 17.2699 2.73381C17.1917 2.65556 17.0988 2.59368 16.9966 2.55177C16.8943 2.50987 16.7848 2.48878 16.6743 2.48975C16.5638 2.49071 16.4546 2.5137 16.3531 2.55738C16.2516 2.60105 16.1598 2.66454 16.083 2.74414L10.2646 8.5705C10.0427 8.10556 9.96964 7.5833 10.0554 7.07518C10.1412 6.56706 10.3817 6.0979 10.7439 5.73191L15.0488 1.42236C15.2004 1.26518 15.2842 1.05466 15.2824 0.836138C15.2805 0.617622 15.193 0.408592 15.0387 0.254072C14.8844 0.0995512 14.6757 0.0119026 14.4576 0.0100038C14.2394 0.00810493 14.0292 0.0921078 13.8723 0.24392L9.56903 4.55347C8.89237 5.23354 8.47038 6.12643 8.37415 7.08172C8.27791 8.03701 8.51331 8.99634 9.04069 9.79811L0.274356 18.5789C0.122794 18.7361 0.0389295 18.9466 0.0408253 19.1651C0.042721 19.3836 0.130225 19.5927 0.284492 19.7472C0.438758 19.9017 0.647443 19.9894 0.8656 19.9912C1.08376 19.9931 1.29393 19.9091 1.45086 19.7573L10.2172 10.9765C10.8977 11.4271 11.6954 11.6674 12.5111 11.6674Z" fill="#344054"/>
</svg>
