<svg width="40" height="7" viewBox="0 0 40 7" fill="none" xmlns="http://www.w3.org/2000/svg">
<g clip-path="url(#clip0_7377_33256)">
<path d="M6.71155 2.45168H7.74955C7.99361 2.45168 8.19749 2.2515 8.19749 2.00515V0.63791C8.19749 0.394639 7.9967 0.191406 7.74955 0.191406H6.37792C6.13385 0.191406 5.92998 0.39156 5.92998 0.63791V1.71877C5.92998 1.96204 5.72916 2.16528 5.48203 2.16528H4.44403C4.19997 2.16528 3.99609 2.36544 3.99609 2.61179V3.97903C3.99609 4.2223 4.19688 4.42556 4.44403 4.42556H5.48203C5.72608 4.42556 5.92998 4.62571 5.92998 4.87206V5.86362C5.92998 6.10689 6.13077 6.31012 6.37792 6.31012H7.74955C7.99361 6.31012 8.19749 6.10997 8.19749 5.86362V4.49636C8.19749 4.25309 7.9967 4.04986 7.74955 4.04986H6.71155C6.4675 4.04986 6.26361 3.8497 6.26361 3.60335V2.89818C6.27905 2.65491 6.4675 2.45168 6.71155 2.45168Z" fill="#03003A"/>
<path d="M2.91333 0.207031H1.54169C1.29764 0.207031 1.09375 0.407194 1.09375 0.653544V2.02079C1.09375 2.26406 1.29455 2.46729 1.54169 2.46729H2.91333C3.15739 2.46729 3.36128 2.26714 3.36128 2.02079V0.638141C3.36128 0.410268 3.16048 0.207031 2.91333 0.207031Z" fill="#03003A"/>
<path d="M2.91333 4.03125H1.54169C1.29764 4.03125 1.09375 4.2314 1.09375 4.47775V5.84499C1.09375 6.08826 1.29455 6.29149 1.54169 6.29149H2.91333C3.15739 6.29149 3.36128 6.09134 3.36128 5.84499V4.47775C3.36128 4.23448 3.16048 4.03125 2.91333 4.03125Z" fill="#03003A"/>
<path d="M12.7039 4.39559H12.4012V6.16624H11.2891V0.195312H12.4012V3.7212L12.6607 3.60726L13.6431 1.91053H14.8695L13.8439 3.53644L13.4114 3.86594L13.8871 4.19544L15.0425 6.18162H13.7728L12.7039 4.39559Z" fill="#03003A"/>
<path d="M15.1875 4.0337C15.1875 3.31312 15.3605 2.75267 15.7219 2.36468C16.068 1.97668 16.5746 1.77344 17.2079 1.77344C17.5539 1.77344 17.8443 1.83195 18.1038 1.93049C18.3478 2.04443 18.5672 2.18916 18.7247 2.3924C18.8823 2.59256 19.012 2.82352 19.1016 3.09758C19.1881 3.37164 19.2314 3.68882 19.2314 4.01829C19.2314 4.73888 19.0584 5.29932 18.7124 5.68733C18.3664 6.07533 17.8597 6.27856 17.2264 6.27856C16.8804 6.27856 16.59 6.22006 16.3305 6.12153C16.0865 6.01989 15.8671 5.86285 15.6942 5.65962C15.5212 5.45944 15.4068 5.2285 15.3173 4.95444C15.2308 4.68346 15.1875 4.36626 15.1875 4.0337ZM16.3429 4.0337C16.3429 4.22155 16.3583 4.39399 16.4016 4.55103C16.4294 4.70809 16.4881 4.85282 16.5592 4.96982C16.6302 5.08376 16.7167 5.18538 16.8341 5.24388C16.9484 5.31471 17.0782 5.34552 17.2388 5.34552C17.5261 5.34552 17.7454 5.24391 17.8875 5.02835C18.0327 4.81279 18.1038 4.4802 18.1038 4.03678C18.1038 3.64878 18.0327 3.33161 17.903 3.08834C17.7732 2.84507 17.557 2.72804 17.2388 2.72804C16.9638 2.72804 16.7476 2.82966 16.6024 3.02984C16.414 3.22999 16.3429 3.57487 16.3429 4.0337Z" fill="#03003A"/>
<path d="M22.6088 6.1659V3.7486C22.6088 3.40372 22.5656 3.15737 22.4636 3.00031C22.3617 2.84327 22.1887 2.76936 21.957 2.76936C21.7407 2.76936 21.5677 2.82786 21.4225 2.95719C21.2773 3.08654 21.1785 3.23125 21.1043 3.4191V6.18131H19.9922V1.92253H20.8726L21.0024 2.48298H21.0302C21.1599 2.29514 21.333 2.13809 21.5492 2.00875C21.7654 1.87942 22.0404 1.80859 22.3864 1.80859C22.6026 1.80859 22.7911 1.83631 22.9486 1.89482C23.1062 1.95332 23.2514 2.03955 23.3688 2.1812C23.4831 2.31053 23.5696 2.48298 23.6283 2.71392C23.687 2.94489 23.7148 3.21895 23.7148 3.54845V6.19672H22.6026V6.1659H22.6088Z" fill="#03003A"/>
<path d="M27.2729 6.1659V3.7486C27.2729 3.40372 27.2296 3.15737 27.1278 3.00031C27.0257 2.84327 26.8528 2.76936 26.6211 2.76936C26.4047 2.76936 26.2316 2.82786 26.0865 2.95719C25.9414 3.08654 25.8424 3.23125 25.7683 3.4191V6.18131H24.6562V1.92253H25.5366L25.6664 2.48298H25.6942C25.824 2.29514 25.9971 2.13809 26.2132 2.00875C26.4294 1.87942 26.7043 1.80859 27.0503 1.80859C27.2667 1.80859 27.4551 1.83631 27.6126 1.89482C27.7702 1.95332 27.9153 2.03955 28.0327 2.1812C28.147 2.31053 28.2336 2.48298 28.2924 2.71392C28.351 2.94489 28.3787 3.21895 28.3787 3.54845V6.19672H27.2667V6.1659H27.2729Z" fill="#03003A"/>
<path d="M32.7292 5.8054C32.5563 5.93473 32.3246 6.04867 32.0372 6.15029C31.7501 6.25191 31.4318 6.29502 31.0981 6.29502C30.4061 6.29502 29.8995 6.09487 29.5813 5.69146C29.263 5.28805 29.1055 4.74302 29.1055 4.03784C29.1055 3.28954 29.2786 2.7291 29.6401 2.35342C30.0014 1.97773 30.5049 1.79297 31.1569 1.79297C31.373 1.79297 31.5894 1.82068 31.7931 1.87919C31.994 1.9377 32.1824 2.02392 32.343 2.16557C32.5006 2.2949 32.6304 2.46734 32.7323 2.69831C32.8344 2.91387 32.8776 3.20333 32.8776 3.51743C32.8776 3.63135 32.8776 3.7607 32.8621 3.90543C32.8466 4.03476 32.8344 4.17949 32.8035 4.33655H30.2486C30.2641 4.69682 30.3629 4.97088 30.5235 5.14334C30.6966 5.33117 30.956 5.4174 31.3329 5.4174C31.5645 5.4174 31.7809 5.38969 31.9538 5.31579C32.1422 5.24496 32.2845 5.17105 32.3741 5.10023L32.7292 5.8054ZM31.1413 2.66752C30.8542 2.66752 30.6347 2.75373 30.5049 2.92617C30.3598 3.09861 30.2887 3.32958 30.261 3.61596H31.8488C31.8766 3.3142 31.8211 3.06782 31.7037 2.91079C31.5739 2.75373 31.4008 2.66752 31.1413 2.66752Z" fill="#03003A"/>
<path d="M36.6446 5.9062C36.4717 6.03552 36.2678 6.12173 36.0237 6.19256C35.7798 6.26338 35.5326 6.29417 35.2732 6.29417C34.927 6.29417 34.6367 6.23567 34.4081 6.13714C34.1765 6.03552 33.9756 5.87846 33.8305 5.67523C33.6851 5.47508 33.5708 5.24411 33.5122 4.97005C33.4412 4.69599 33.4102 4.37882 33.4102 4.04931C33.4102 3.32875 33.5677 2.76831 33.9015 2.3803C34.2319 1.9923 34.6953 1.78906 35.3164 1.78906C35.6344 1.78906 35.8786 1.81677 36.067 1.85988C36.2554 1.91839 36.4285 1.97382 36.586 2.06004L36.3266 2.96538C36.1968 2.90688 36.067 2.85144 35.9374 2.82065C35.8075 2.78986 35.6624 2.76215 35.4893 2.76215C35.1866 2.76215 34.9394 2.86376 34.7818 3.06391C34.6243 3.26409 34.5377 3.58127 34.5377 4.02777C34.5377 4.21562 34.5533 4.37265 34.5965 4.53277C34.6398 4.69291 34.6984 4.81916 34.7696 4.93618C34.856 5.05012 34.958 5.13633 35.0876 5.21024C35.2175 5.28106 35.3626 5.31186 35.5357 5.31186C35.7241 5.31186 35.8817 5.28415 36.0115 5.24105C36.1411 5.19794 36.2554 5.13941 36.3575 5.06859L36.6446 5.9062Z" fill="#03003A"/>
<path d="M36.8742 1.90522H37.4674V1.09842L38.5794 0.78125V1.90522H39.6176V2.84135H38.5794V4.48268C38.5794 4.78444 38.6074 4.98768 38.666 5.11703C38.7248 5.24635 38.8391 5.30485 38.9966 5.30485C39.1109 5.30485 39.2128 5.28947 39.2838 5.27714C39.3703 5.24943 39.4569 5.21864 39.5587 5.17553L39.7596 6.02544C39.602 6.09626 39.4289 6.15476 39.2252 6.21326C39.0244 6.27179 38.8049 6.28409 38.6043 6.28409C38.215 6.28409 37.9245 6.18247 37.7392 5.98232C37.5508 5.78217 37.4643 5.44959 37.4643 4.99076V2.84752H36.8711V1.90522H36.8742Z" fill="#03003A"/>
</g>
<defs>
<clipPath id="clip0_7377_33256">
<rect width="39.9286" height="6.5" fill="white"/>
</clipPath>
</defs>
</svg>
