<svg width="17" height="17" viewBox="0 0 17 17" fill="none" xmlns="http://www.w3.org/2000/svg">
<path d="M5.75681 7.74386L5.75681 7.74386L5.75145 7.74921L5.75144 7.74923L2.62562 10.8758C1.65891 11.8428 1.65891 13.4105 2.62562 14.3775C3.59236 15.3444 5.15966 15.3444 6.1264 14.3775L9.25115 11.252C9.25133 11.2519 9.25151 11.2517 9.25169 11.2515C9.45458 11.045 9.7865 11.0418 9.99327 11.2445C10.2002 11.4474 10.2036 11.7797 10.0007 11.9868L9.89361 11.8818L10.001 11.9865C9.99885 11.9887 9.99621 11.9914 9.99323 11.9942L6.86856 15.1197C6.86856 15.1197 6.86856 15.1197 6.86855 15.1198C6.20765 15.781 5.31068 16.1517 4.37595 16.15M5.75681 7.74386L1.88346 10.1336C1.22089 10.7954 0.849046 11.6938 0.850002 12.6303C0.852009 14.5761 2.43057 16.1519 4.37595 16.15M5.75681 7.74386L5.75788 7.74277C5.96069 7.53575 5.95735 7.20349 5.75039 7.00057L5.75035 7.00054C5.5435 6.79786 5.21168 6.80105 5.00879 7.00753C5.0086 7.00773 5.00841 7.00792 5.00822 7.00811L1.88355 10.1335L5.75681 7.74386ZM4.37595 16.15C4.37588 16.15 4.3758 16.15 4.37573 16.15L4.37601 16L4.37616 16.15C4.37609 16.15 4.37602 16.15 4.37595 16.15ZM15.0087 1.98508L15.1142 1.87931C16.4926 3.25438 16.4956 5.48672 15.1209 6.86547L15.1208 6.86559L15.1143 6.87206L11.9886 9.99857C11.8902 10.0972 11.7566 10.1526 11.6172 10.1524M15.0087 1.98508L7.00451 5.76113C7.21133 5.96388 7.54317 5.96066 7.74605 5.75419C7.74624 5.754 7.74643 5.75381 7.74661 5.75362L10.8714 2.62814C11.8381 1.66121 13.4054 1.66121 14.3721 2.62814C15.3389 3.59512 15.3389 5.16285 14.3721 6.12983L11.2463 9.2564C11.1479 9.35481 11.0926 9.48829 11.0926 9.62747C11.0926 9.91723 11.3274 10.1522 11.6172 10.1524M15.0087 1.98508L15.1142 1.8793C13.7357 0.504267 11.5038 0.507275 10.1291 1.88609M15.0087 1.98508L10.1291 1.88609M11.6172 10.1524L11.6174 10.0024M11.6172 10.1524C11.6172 10.1524 11.6173 10.1524 11.6174 10.1524L11.6174 10.0024M11.6174 10.0024C11.4104 10.0024 11.2426 9.8345 11.2426 9.62747C11.2426 9.52807 11.2821 9.43274 11.3524 9.36245L14.4782 6.23588L15.0083 6.76601L11.8824 9.89262C11.8122 9.963 11.7168 10.0025 11.6174 10.0024ZM10.0037 6.2554L10.0037 6.25541C10.2122 6.05401 10.5444 6.05978 10.7458 6.26829L10.7458 6.2683C10.9422 6.47172 10.9422 6.79418 10.7458 6.99757L10.744 6.99944L10.744 6.99942L6.99605 10.7482L6.99588 10.7484L6.8898 10.6423L10.0037 6.2554ZM10.0037 6.2554L10.0018 6.25724M10.0037 6.2554L10.0018 6.25724M10.0018 6.25724L6.25377 10.0062M10.0018 6.25724L6.25377 10.0062M10.1291 1.88609L7.00456 5.01139C7.00169 5.01415 6.99913 5.01673 6.99696 5.01895C6.79414 5.22598 6.79754 5.55825 7.0045 5.76111L10.1291 1.88609ZM6.25377 10.0062C6.15538 10.1046 6.1001 10.2381 6.10009 10.3772L6.25377 10.0062ZM6.10009 10.3773C6.10004 10.6671 6.33495 10.9021 6.62471 10.9022L6.10009 10.3773Z" fill="#344054" stroke="#344054" stroke-width="0.3"/>
</svg>
