<svg width="101" height="16" viewBox="0 0 101 16" fill="none" xmlns="http://www.w3.org/2000/svg">
<path d="M17.1095 5.54104H19.8272C20.4662 5.54104 21 5.05032 21 4.44639V1.0946C21 0.498224 20.4743 0 19.8272 0H16.236C15.597 0 15.0632 0.490676 15.0632 1.0946V3.74433C15.0632 4.34071 14.5375 4.83893 13.8905 4.83893H11.1728C10.5338 4.83893 10 5.32964 10 5.93356V9.28534C10 9.88171 10.5257 10.38 11.1728 10.38H13.8905C14.5294 10.38 15.0632 10.8707 15.0632 11.4746V13.9054C15.0632 14.5018 15.589 15 16.236 15H19.8272C20.4662 15 21 14.5093 21 13.9054V10.5536C21 9.9572 20.4743 9.45897 19.8272 9.45897H17.1095C16.4706 9.45897 15.9368 8.9683 15.9368 8.36437V6.63563C15.9772 6.03926 16.4706 5.54104 17.1095 5.54104Z" fill="#03003A"/>
<path d="M7.01226 1H3.98774C3.44959 1 3 1.44279 3 1.98775V5.01228C3 5.55043 3.44278 6 3.98774 6H7.01226C7.55041 6 8 5.55724 8 5.01228V1.95368C8 1.44959 7.55722 1 7.01226 1Z" fill="#03003A"/>
<path d="M7.01226 10H3.98774C3.44959 10 3 10.4428 3 10.9877V14.0123C3 14.5504 3.44278 15 3.98774 15H7.01226C7.55041 15 8 14.5572 8 14.0123V10.9877C8 10.4496 7.55722 10 7.01226 10Z" fill="#03003A"/>
<path d="M31.8869 10.8157H31.1271V15.1742H28.3359V0.476562H31.1271V9.15568L31.7784 8.87521L34.2439 4.69863H37.322L34.7479 8.70086L33.6625 9.51195L34.8565 10.323L37.7561 15.2121H34.5696L31.8869 10.8157Z" fill="#03003A"/>
<path d="M38.1211 9.92701C38.1211 8.15326 38.5553 6.77371 39.4624 5.81865C40.3308 4.86357 41.6024 4.36328 43.1917 4.36328C44.0602 4.36328 44.7889 4.50731 45.4402 4.74987C46.0527 5.03033 46.6032 5.38659 46.9987 5.88687C47.394 6.37957 47.7197 6.94811 47.9445 7.62271C48.1616 8.29732 48.2702 9.07806 48.2702 9.88908C48.2702 11.6628 47.836 13.0424 46.9676 13.9975C46.0992 14.9526 44.8277 15.4528 43.2383 15.4528C42.3699 15.4528 41.6411 15.3088 40.9898 15.0663C40.3773 14.8161 39.8268 14.4295 39.3927 13.9293C38.9585 13.4365 38.6716 12.868 38.4467 12.1934C38.2296 11.5264 38.1211 10.7456 38.1211 9.92701ZM41.0208 9.92701C41.0208 10.3894 41.0596 10.8139 41.1682 11.2004C41.2379 11.587 41.3853 11.9433 41.5636 12.2313C41.7419 12.5118 41.959 12.7619 42.2536 12.9059C42.5405 13.0803 42.8661 13.1561 43.2693 13.1561C43.9904 13.1561 44.5409 12.906 44.8975 12.3754C45.2619 11.8448 45.4402 11.0261 45.4402 9.93459C45.4402 8.97951 45.2619 8.19877 44.9362 7.59996C44.6106 7.00114 44.0679 6.71308 43.2693 6.71308C42.5793 6.71308 42.0365 6.96322 41.6721 7.45596C41.1992 7.94864 41.0208 8.79759 41.0208 9.92701Z" fill="#03003A"/>
<path d="M56.7429 15.1749V9.22462C56.7429 8.37567 56.6343 7.76927 56.3785 7.38266C56.1226 6.99612 55.6884 6.81419 55.1069 6.81419C54.5642 6.81419 54.13 6.95819 53.7656 7.27653C53.4012 7.59493 53.1531 7.95114 52.967 8.41354V15.2128H50.1758V4.72968H52.3855L52.7111 6.10924H52.7809C53.1065 5.64686 53.5408 5.26028 54.0835 4.94192C54.6262 4.62355 55.3162 4.44922 56.1846 4.44922C56.7273 4.44922 57.2003 4.51744 57.5957 4.66146C57.9911 4.80548 58.3555 5.01772 58.6502 5.36639C58.937 5.68476 59.1541 6.10924 59.3014 6.67772C59.4487 7.24625 59.5185 7.92086 59.5185 8.73194V15.2508H56.7273V15.1749H56.7429Z" fill="#03003A"/>
<path d="M68.4499 15.1749V9.22462C68.4499 8.37567 68.3413 7.76927 68.0857 7.38266C67.8294 6.99612 67.3956 6.81419 66.8141 6.81419C66.2711 6.81419 65.8366 6.95819 65.4724 7.27653C65.1082 7.59493 64.8597 7.95114 64.6737 8.41354V15.2128H61.8828V4.72968H64.0922L64.4181 6.10924H64.4877C64.8135 5.64686 65.248 5.26028 65.7904 4.94192C66.3329 4.62355 67.023 4.44922 67.8912 4.44922C68.4343 4.44922 68.9072 4.51744 69.3026 4.66146C69.698 4.80548 70.0623 5.01772 70.3569 5.36639C70.6437 5.68476 70.861 6.10924 71.0086 6.67772C71.1556 7.24625 71.2252 7.92086 71.2252 8.73194V15.2508H68.4343V15.1749H68.4499Z" fill="#03003A"/>
<path d="M82.1414 14.2869C81.7076 14.6053 81.1261 14.8857 80.4048 15.1359C79.6842 15.386 78.8855 15.4921 78.0478 15.4921C76.3112 15.4921 75.0397 14.9995 74.241 14.0064C73.4423 13.0134 73.0469 11.6718 73.0469 9.93599C73.0469 8.09403 73.4813 6.71448 74.3886 5.78972C75.2953 4.86496 76.559 4.41016 78.1954 4.41016C78.7379 4.41016 79.2809 4.47838 79.7922 4.62239C80.2962 4.76642 80.7691 4.97865 81.1723 5.32733C81.5678 5.64569 81.8936 6.07015 82.1492 6.63868C82.4055 7.16929 82.5141 7.88182 82.5141 8.65498C82.5141 8.9354 82.5141 9.2538 82.4751 9.61006C82.4361 9.9284 82.4055 10.2847 82.328 10.6713H75.9158C75.9548 11.5581 76.2026 12.2327 76.6058 12.6572C77.0403 13.1196 77.6914 13.3318 78.6371 13.3318C79.2185 13.3318 79.7616 13.2636 80.1954 13.0817C80.6683 12.9074 81.0253 12.7254 81.2503 12.5511L82.1414 14.2869ZM78.1564 6.56289C77.4357 6.56289 76.8849 6.7751 76.559 7.19957C76.1948 7.62405 76.0166 8.19258 75.947 8.89753H79.932C80.0016 8.15471 79.8624 7.54825 79.5678 7.16171C79.2419 6.7751 78.8075 6.56289 78.1564 6.56289Z" fill="#03003A"/>
<path d="M91.9653 14.5368C91.5315 14.8552 91.0196 15.0674 90.4069 15.2417C89.7949 15.4161 89.1744 15.4918 88.5234 15.4918C87.6545 15.4918 86.926 15.3478 86.3523 15.1053C85.7709 14.8552 85.2668 14.4686 84.9026 13.9683C84.5377 13.4756 84.2509 12.9071 84.1039 12.2325C83.9257 11.5579 83.8477 10.7771 83.8477 9.96604C83.8477 8.19235 84.2431 6.8128 85.0808 5.85769C85.9101 4.90262 87.073 4.40234 88.632 4.40234C89.43 4.40234 90.0427 4.47055 90.5156 4.57667C90.9884 4.72069 91.4229 4.85713 91.8183 5.06937L91.1672 7.29789C90.8414 7.15389 90.5156 7.01742 90.1903 6.94163C89.8645 6.86583 89.5002 6.79763 89.0658 6.79763C88.3061 6.79763 87.6857 7.04776 87.2902 7.54044C86.8948 8.03318 86.6776 8.81392 86.6776 9.913C86.6776 10.3754 86.7166 10.762 86.8252 11.1561C86.9338 11.5503 87.0808 11.861 87.2596 12.1491C87.4762 12.4296 87.7325 12.6418 88.0577 12.8237C88.3835 12.998 88.7478 13.0738 89.1822 13.0738C89.6551 13.0738 90.0505 13.0056 90.3763 12.8996C90.7016 12.7934 90.9884 12.6494 91.2446 12.475L91.9653 14.5368Z" fill="#03003A"/>
<path d="M92.543 4.69248H94.0317V2.70652L96.8226 1.92578V4.69248H99.4281V6.9968H96.8226V11.037C96.8226 11.7798 96.8928 12.2801 97.0398 12.5985C97.1874 12.9168 97.4743 13.0608 97.8697 13.0608C98.1565 13.0608 98.4122 13.0229 98.5904 12.9926C98.8076 12.9244 99.0248 12.8486 99.2805 12.7425L99.7845 14.8346C99.3891 15.0089 98.9546 15.1529 98.4434 15.2969C97.9393 15.441 97.3885 15.4712 96.885 15.4712C95.9081 15.4712 95.179 15.2211 94.714 14.7284C94.2411 14.2357 94.0239 13.4171 94.0239 12.2876V7.01197H92.5352V4.69248H92.543Z" fill="#03003A"/>
</svg>
