<svg width="80" height="80" viewBox="0 0 80 80" fill="none" xmlns="http://www.w3.org/2000/svg">
<g clip-path="url(#clip0_3054_48242)">
<rect width="80" height="80" rx="40" fill="#0C1E5B" fill-opacity="0.15"/>
<path d="M16.9906 26.3636H21.1468V45.9574C21.1468 47.7296 20.796 49.2455 20.0943 50.505C19.4016 51.7644 18.4255 52.727 17.166 53.3928C15.9065 54.0495 14.4312 54.3778 12.7399 54.3778C11.1835 54.3778 9.78462 54.0945 8.54315 53.5277C7.31067 52.9609 6.33458 52.1378 5.61488 51.0582C4.90418 49.9697 4.54883 48.6473 4.54883 47.0909H8.69158C8.69158 47.8556 8.86701 48.5168 9.21786 49.0746C9.57771 49.6323 10.068 50.0687 10.6887 50.3835C11.3185 50.6894 12.0382 50.8423 12.8478 50.8423C13.7295 50.8423 14.4761 50.6579 15.0879 50.2891C15.7086 49.9112 16.1809 49.358 16.5048 48.6293C16.8287 47.9006 16.9906 47.0099 16.9906 45.9574V26.3636ZM29.5504 54H25.1243L35.0696 26.3636H39.8871L49.8324 54H45.4062L37.593 31.3835H37.3771L29.5504 54ZM30.2926 43.1776H44.6506V46.6861H30.2926V43.1776Z" fill="white"/>
</g>
<defs>
<clipPath id="clip0_3054_48242">
<rect width="80" height="80" rx="40" fill="white"/>
</clipPath>
</defs>
</svg>
