<svg width="48" height="54" viewBox="0 0 48 54" fill="none" xmlns="http://www.w3.org/2000/svg">
<path d="M45.7867 18.0835C45.7867 18.0835 45.7813 18.0835 45.7787 18.0781L45.7867 18.0835C46.0448 18.3322 46.25 18.6331 46.3903 18.963C46.5305 19.2929 46.6027 19.6477 46.6027 20.0061C46.6027 20.3646 46.5305 20.7193 46.3903 21.0492C46.25 21.3791 46.0448 21.6774 45.7867 21.9261L31.8827 35.3341L36.304 39.6008C36.5561 39.8438 36.7579 40.1341 36.8979 40.4552C37.0378 40.7762 37.1132 41.1216 37.1196 41.4718C37.126 41.8219 37.0634 42.1699 36.9354 42.4958C36.8074 42.8218 36.6164 43.1193 36.3733 43.3715C36.1303 43.6236 35.84 43.8254 35.519 43.9653C35.1979 44.1053 34.8525 44.1806 34.5024 44.187C34.1522 44.1935 33.8042 44.1309 33.4783 44.0029C33.1523 43.8748 32.8548 43.6838 32.6027 43.4408L27.896 38.8995C26.7248 39.6156 25.3789 39.9949 24.0061 39.9959C22.6333 39.9968 21.2868 39.6193 20.1147 38.9048L15.3947 43.4435C14.8813 43.9129 14.2049 44.1633 13.5096 44.141C12.8143 44.1187 12.1552 43.8256 11.673 43.3243C11.1908 42.8229 10.9235 42.1529 10.9283 41.4573C10.9331 40.7617 11.2096 40.0955 11.6987 39.6008L16.1253 35.3421L2.21334 21.9208C1.71429 21.4379 1.42401 20.7788 1.40458 20.0846C1.38514 19.3905 1.63809 18.7162 2.10934 18.2061C1.44067 18.8602 0.909586 19.6413 0.547337 20.5037C0.185087 21.366 -0.00100753 22.2921 4.10243e-06 23.2275V46.0941C0.0246164 48.0358 0.818352 49.8885 2.20711 51.2457C3.59586 52.603 5.46625 53.354 7.408 53.3341H40.592C42.5338 53.354 44.4041 52.603 45.7929 51.2457C47.1817 49.8885 47.9754 48.0358 48 46.0941V23.2275C47.9985 22.2649 47.8016 21.3126 47.4211 20.4284C47.0407 19.5441 46.4846 18.7464 45.7867 18.0835Z" fill="#B8E6FA"/>
<path d="M1.39942 19.9844C1.39906 20.3426 1.4709 20.6973 1.61064 21.0272C1.75038 21.357 1.95516 21.6554 2.21275 21.9044L18.7941 37.899C20.1985 39.2327 22.0613 39.9763 23.9981 39.9763C25.9348 39.9763 27.7977 39.2327 29.2021 37.899L45.7861 21.9044C46.0442 21.6556 46.2494 21.3574 46.3896 21.0275C46.5298 20.6976 46.6021 20.3428 46.6021 19.9844H1.39942Z" fill="#11ABEC"/>
<path d="M18.7959 37.9065L16.1292 35.3305L11.7026 39.5865C11.2127 40.0808 10.9354 40.7469 10.9299 41.4428C10.9244 42.1387 11.1911 42.8092 11.6732 43.3111C12.1553 43.813 12.8144 44.1065 13.51 44.1291C14.2055 44.1517 14.8823 43.9015 15.3959 43.4319L20.1159 38.8932C19.6412 38.6135 19.1985 38.2826 18.7959 37.9065ZM31.8839 35.3225L29.2039 37.9092C28.805 38.2817 28.3669 38.6099 27.8972 38.8879L32.6039 43.4292C32.8555 43.6732 33.1529 43.8651 33.4789 43.9937C33.805 44.1223 34.1532 44.1853 34.5036 44.1788C34.8541 44.1724 35.1998 44.0967 35.5209 43.9562C35.842 43.8156 36.1321 43.613 36.3746 43.3599C36.6176 43.1077 36.8086 42.8102 36.9366 42.4842C37.0647 42.1583 37.1273 41.8103 37.1208 41.4602C37.1144 41.11 37.0391 40.7646 36.8991 40.4436C36.7592 40.1225 36.5574 39.8322 36.3052 39.5892L31.8839 35.3225ZM46.5932 19.9919C46.5932 19.2932 46.3292 18.5972 45.7879 18.0719L29.2066 2.07722C27.8021 0.743565 25.9393 0 24.0026 0C22.0658 0 20.203 0.743565 18.7986 2.07722L2.21457 18.0692C1.95769 18.3183 1.7539 18.6169 1.61549 18.9468C1.47709 19.2768 1.40692 19.6314 1.40923 19.9892H46.5932V19.9919Z" fill="#B8E6FA"/>
</svg>
