<svg width="23" height="19" viewBox="0 0 23 19" fill="none" xmlns="http://www.w3.org/2000/svg">
<path d="M0.4 13.7501L0.4 13.75L0.4 6.1C0.4 5.7948 0.650876 5.55 0.957031 5.55C1.26319 5.55 1.51406 5.7948 1.51406 6.1L1.51406 13.7499L1.51406 13.75M0.4 13.7501L5.07031 17.35C3.05189 17.3479 1.41624 15.7374 1.41406 13.75H1.51406M0.4 13.7501C0.403024 16.2908 2.49365 18.347 5.0702 18.35H5.07031H16.4961C16.8022 18.35 17.0531 18.1052 17.0531 17.8C17.0531 17.4948 16.8022 17.25 16.4961 17.25H5.07042M0.4 13.7501L5.07042 17.25M1.51406 13.75C1.51624 15.6807 3.10571 17.2479 5.07042 17.25M1.51406 13.75L5.07042 17.25M19.6953 1.25L6.89855 1.25C6.62691 1.25031 6.37206 1.31661 6.14288 1.42902L12.3975 7.58783C12.8946 8.07525 13.6989 8.07529 14.1962 7.58794C14.1962 7.58791 14.1962 7.58787 14.1963 7.58783L20.4511 1.42922C20.2219 1.31673 19.967 1.25037 19.6953 1.25ZM19.6953 1.25C19.6952 1.25 19.6952 1.25 19.6952 1.25L19.6953 1.15L19.6953 1.25ZM13.2969 9.05381C13.929 9.0548 14.5357 8.80769 14.9828 8.3667L21.2406 2.20514C21.3554 2.43114 21.4231 2.6824 21.4234 2.95013V11.9499C21.4222 12.8868 20.6507 13.6488 19.6952 13.65H6.89855C5.94304 13.6489 5.17142 12.887 5.17031 11.9499V2.95012C5.17063 2.68229 5.23838 2.43093 5.35329 2.20486L11.611 8.3667C12.058 8.80769 12.6648 9.0548 13.2969 9.05381ZM13.2969 9.05381C13.2968 9.05381 13.2968 9.05381 13.2967 9.05381L13.2969 8.95381L13.297 9.05381C13.297 9.05381 13.2969 9.05381 13.2969 9.05381ZM19.6954 0.15H19.6953L6.89844 0.15L6.89833 0.15C5.33084 0.151706 4.05799 1.40278 4.05625 2.94989V2.95L4.05625 11.95L4.05625 11.9501C4.05799 13.4972 5.33084 14.7483 6.89833 14.75H6.89844H19.6953H19.6954C21.2629 14.7483 22.5358 13.4972 22.5375 11.9501V11.95V2.95V2.94989C22.5358 1.40278 21.2629 0.151706 19.6954 0.15Z" fill="#344054" stroke="#344054" stroke-width="0.2"/>
</svg>
