<svg width="30" height="33" viewBox="0 0 30 33" fill="none" xmlns="http://www.w3.org/2000/svg">
    <circle cx="14.5898" cy="16.5" r="14" fill="#FC5C63"/>
    <path d="M10.572 14.2335C10.6413 13.7612 10.7735 13.3495 10.9685 12.9985C11.1678 12.6475 11.4127 12.355 11.703 12.121C11.9977 11.887 12.3335 11.7137 12.7105 11.601C13.0875 11.484 13.4927 11.4255 13.926 11.4255C14.394 11.4255 14.81 11.4927 15.174 11.627C15.538 11.757 15.8457 11.9347 16.097 12.16C16.3483 12.3853 16.539 12.6475 16.669 12.9465C16.799 13.2412 16.864 13.5532 16.864 13.8825C16.864 14.1815 16.8337 14.4458 16.773 14.6755C16.7123 14.9008 16.6213 15.098 16.5 15.267C16.383 15.4317 16.2357 15.5725 16.058 15.6895C15.8847 15.8022 15.6853 15.8975 15.46 15.9755C16.5087 16.3438 17.033 17.0588 17.033 18.1205C17.033 18.6232 16.942 19.0608 16.76 19.4335C16.578 19.8062 16.3332 20.116 16.0255 20.363C15.7222 20.61 15.369 20.7963 14.966 20.922C14.563 21.0433 14.1427 21.104 13.705 21.104C13.2543 21.104 12.8535 21.0563 12.5025 20.961C12.1515 20.8613 11.8395 20.7097 11.5665 20.506C11.2935 20.298 11.053 20.0337 10.845 19.713C10.6413 19.3923 10.4637 19.011 10.312 18.569L11.209 18.205C11.443 18.114 11.6597 18.0902 11.859 18.1335C12.0583 18.1768 12.2013 18.2765 12.288 18.4325C12.483 18.7922 12.6888 19.0543 12.9055 19.219C13.1265 19.3793 13.3843 19.4595 13.679 19.4595C13.9043 19.4595 14.0993 19.4227 14.264 19.349C14.433 19.271 14.5717 19.1735 14.68 19.0565C14.7927 18.9352 14.8772 18.7987 14.9335 18.647C14.9898 18.4953 15.018 18.3415 15.018 18.1855C15.018 17.9818 15.0028 17.7998 14.9725 17.6395C14.9465 17.4748 14.8685 17.334 14.7385 17.217C14.6085 17.1 14.4113 17.0112 14.147 16.9505C13.887 16.8855 13.523 16.853 13.055 16.853V15.462C13.4493 15.462 13.7678 15.4317 14.0105 15.371C14.2532 15.3103 14.4395 15.228 14.5695 15.124C14.7038 15.0157 14.7927 14.8857 14.836 14.734C14.8793 14.5823 14.901 14.4155 14.901 14.2335C14.901 13.8608 14.81 13.5748 14.628 13.3755C14.4503 13.1718 14.1773 13.07 13.809 13.07C13.51 13.07 13.2565 13.1502 13.0485 13.3105C12.8448 13.4665 12.704 13.6615 12.626 13.8955C12.535 14.1338 12.4158 14.292 12.2685 14.37C12.1212 14.448 11.911 14.4653 11.638 14.422L10.572 14.2335Z" fill="white"/>
    </svg>
    
