<svg
  width="65"
  height="65"
  viewBox="0 0 65 65"
  fill="none"
  xmlns="http://www.w3.org/2000/svg"
>
  <path
    d="M65 32.5C65 50.4493 50.4493 65 32.5 65C14.5507 65 0 50.4493 0 32.5C0 14.5507 14.5507 0 32.5 0C50.4493 0 65 14.5507 65 32.5Z"
    fill="#ECF8FF"
  />
  <path
    d="M32.4999 32.5914C33.9373 32.5914 35.3425 32.1652 36.5377 31.3666C37.7329 30.5679 38.6645 29.4328 39.2146 28.1048C39.7647 26.7768 39.9086 25.3154 39.6281 23.9056C39.3477 22.4957 38.6555 21.2007 37.6391 20.1843C36.6226 19.1678 35.3276 18.4756 33.9178 18.1952C32.5079 17.9148 31.0466 18.0587 29.7185 18.6088C28.3905 19.1589 27.2554 20.0904 26.4568 21.2856C25.6582 22.4809 25.2319 23.886 25.2319 25.3235C25.2339 27.2505 26.0002 29.098 27.3628 30.4606C28.7254 31.8232 30.5729 32.5895 32.4999 32.5914ZM32.4999 20.4782C33.4582 20.4782 34.395 20.7624 35.1918 21.2948C35.9886 21.8272 36.6096 22.5839 36.9763 23.4693C37.3431 24.3546 37.439 25.3289 37.252 26.2688C37.0651 27.2087 36.6036 28.072 35.926 28.7496C35.2484 29.4273 34.385 29.8887 33.4451 30.0757C32.5052 30.2626 31.531 30.1667 30.6457 29.8C29.7603 29.4332 29.0036 28.8122 28.4712 28.0154C27.9387 27.2186 27.6546 26.2818 27.6546 25.3235C27.6546 24.0384 28.1651 22.806 29.0737 21.8974C29.9824 20.9887 31.2148 20.4782 32.4999 20.4782Z"
    fill="#344054"
  />
  <path
    d="M32.5 34.9222C29.6278 34.9254 26.8741 36.0707 24.8432 38.1068C22.8122 40.1428 21.6699 42.9035 21.6667 45.7829C21.6667 46.103 21.7935 46.4099 22.0192 46.6362C22.245 46.8626 22.5511 46.9897 22.8704 46.9897C23.1896 46.9897 23.4958 46.8626 23.7215 46.6362C23.9473 46.4099 24.0741 46.103 24.0741 45.7829C24.0741 43.5426 24.9618 41.394 26.542 39.8098C28.1221 38.2257 30.2653 37.3357 32.5 37.3357C34.7347 37.3357 36.8779 38.2257 38.458 39.8098C40.0382 41.394 40.9259 43.5426 40.9259 45.7829C40.9259 46.103 41.0527 46.4099 41.2785 46.6362C41.5042 46.8626 41.8104 46.9897 42.1296 46.9897C42.4489 46.9897 42.755 46.8626 42.9808 46.6362C43.2065 46.4099 43.3333 46.103 43.3333 45.7829C43.3301 42.9035 42.1878 40.1428 40.1568 38.1068C38.1259 36.0707 35.3722 34.9254 32.5 34.9222Z"
    fill="#344054"
  />
</svg>
