<svg width="21" height="21" viewBox="0 0 21 21" fill="none" xmlns="http://www.w3.org/2000/svg">
<path d="M18.0839 11.4428L18.084 11.4428C19.5498 11.7219 20.6079 13.0071 20.6 14.4992C20.6 14.4993 20.6 14.4995 20.6 14.4996L20.6 17.5751V17.5752H20.5C20.5018 19.246 19.1511 20.6031 17.4803 20.6094L18.0839 11.4428ZM18.0839 11.4428C17.8892 11.406 17.6947 11.3644 17.5021 11.3179L18.0839 11.4428ZM18.7235 19.0455L18.7239 19.0452C19.1529 18.6773 19.3998 18.1404 19.3999 17.5752V14.499V14.4983C19.4069 13.5848 18.7618 12.7961 17.8652 12.6217C17.6475 12.5823 17.4315 12.536 17.2172 12.4829M18.7235 19.0455L8.72412 3.86924M18.7235 19.0455C18.3041 19.4084 17.7471 19.5701 17.1986 19.4881M18.7235 19.0455L17.1986 19.4881M17.2172 12.4829C16.7633 12.3722 16.3166 12.2341 15.8795 12.0692L15.8795 12.0691C15.4493 11.9066 14.9653 12.0889 14.7494 12.4948C14.7493 12.495 14.7492 12.4951 14.7492 12.4952L13.7632 14.389L13.7631 14.3892C13.6093 14.6825 13.2474 14.7961 12.9536 14.6434L12.9534 14.6434C10.1785 13.1951 7.9167 10.9279 6.47513 8.1496C6.32223 7.85648 6.43583 7.49495 6.72885 7.34193L6.72911 7.3418L6.73062 7.34101L6.73075 7.34094L8.61378 6.36091C8.61389 6.36085 8.61401 6.36079 8.61412 6.36073C9.02061 6.14489 9.20306 5.66026 9.03982 5.2299L9.0397 5.22958C8.87564 4.79263 8.7378 4.34632 8.62698 3.89298M17.2172 12.4829C17.2171 12.4829 17.217 12.4828 17.217 12.4828L17.241 12.3858L17.2174 12.4829C17.2173 12.4829 17.2172 12.4829 17.2172 12.4829ZM8.62698 3.89298L8.72412 3.86924M8.62698 3.89298C8.627 3.89305 8.62702 3.89312 8.62703 3.89318L8.72412 3.86924M8.62698 3.89298C8.57384 3.67744 8.5269 3.46053 8.48623 3.24239M8.72412 3.86924C8.67139 3.65537 8.62482 3.44016 8.58447 3.22373M8.48623 3.24239C8.48625 3.24252 8.48628 3.24265 8.4863 3.24278L8.58447 3.22373M8.48623 3.24239C8.31214 2.34626 7.52358 1.7017 6.61063 1.70941L6.60979 1.70942L3.53352 1.70942M8.48623 3.24239C8.48621 3.24228 8.48619 3.24217 8.48616 3.24206L8.58447 3.22373M8.58447 3.22373L3.53352 1.70942M3.53352 1.70942L3.5335 1.60942M3.53352 1.70942L6.60979 1.60942H3.5335M3.53352 1.70942C3.53352 1.70942 3.53351 1.70942 3.5335 1.70942C2.9683 1.70954 2.43137 1.95644 2.06346 2.38545L2.06312 2.38584C1.70035 2.80453 1.53869 3.36081 1.62056 3.90872C2.8804 11.9328 9.17432 18.2272 17.1986 19.4881M3.53352 1.70942L17.1986 19.4881M3.5335 1.60942C2.93912 1.60954 2.37446 1.86918 1.98755 2.32035M3.5335 1.60942L1.98755 2.32035M1.98755 2.32035C1.60557 2.76121 1.4354 3.34696 1.52171 3.92387C2.78817 11.9912 9.11598 18.3195 17.1834 19.5869L1.98755 2.32035ZM0.533391 4.0723C1.86657 12.5721 8.5332 19.2401 17.033 20.5752L0.533391 4.0723ZM19.4999 7.33441C19.9003 7.33441 20.2249 7.00979 20.2249 6.60941C20.2249 6.20902 19.9003 5.88441 19.4999 5.88441C19.0995 5.88441 18.7749 6.20902 18.7749 6.60941C18.7749 7.00979 19.0995 7.33441 19.4999 7.33441ZM16.4998 7.33441C16.9002 7.33441 17.2248 7.00979 17.2248 6.60941C17.2248 6.20902 16.9002 5.88441 16.4998 5.88441C16.0994 5.88441 15.7748 6.20902 15.7748 6.60941C15.7748 7.00979 16.0994 7.33441 16.4998 7.33441ZM13.4997 7.33441C13.9001 7.33441 14.2247 7.00979 14.2247 6.60941C14.2247 6.20902 13.9001 5.88441 13.4997 5.88441C13.0993 5.88441 12.7747 6.20902 12.7747 6.60941C12.7747 7.00979 13.0993 7.33441 13.4997 7.33441Z" fill="#344054" stroke="#344054" stroke-width="0.2"/>
</svg>
