<svg width="48" height="32" viewBox="0 0 48 32" fill="none" xmlns="http://www.w3.org/2000/svg">
<path d="M32.5181 4C30.0435 6.17126 23.8702 11.8609 16.18 10.848L15.7695 10.8417V15.022C16.7506 15.1836 17.8903 15.1891 19.2105 14.953C26.8686 13.5834 32.5181 4 32.5181 4Z" fill="#081D5C"/>
<path d="M30.6581 12.7374C21.63 12.9313 16.0938 20.7277 16.0938 20.7277C17.7945 19.3722 23.648 14.8142 31.9859 17.6897V12.7687C31.5357 12.7412 31.0924 12.728 30.6581 12.7374Z" fill="#081D5C"/>
<path d="M17.9952 13.4896L16.7266 15.0625L18.0046 16.6438L19.2732 15.0709L17.9952 13.4896Z" fill="#081D5C"/>
<path d="M17.6475 13.3255L16.3789 14.8984L17.6569 16.4798L18.9255 14.9069L17.6475 13.3255Z" fill="#FDC613"/>
<path d="M28.2374 11.4388L26.9688 13.0117L28.2467 14.5931L29.5154 13.0201L28.2374 11.4388Z" fill="#081D5C"/>
<path d="M27.9014 11.6693L26.6328 13.2422L27.9108 14.8235L29.1794 13.2506L27.9014 11.6693Z" fill="#FDC613"/>
<path d="M30.3897 11.3841L29.1211 12.957L30.3991 14.5384L31.6677 12.9655L30.3897 11.3841Z" fill="#081D5C"/>
<path d="M30.0421 11.6185L28.7734 13.1914L30.0514 14.7727L31.3201 13.1998L30.0421 11.6185Z" fill="#FDC613"/>
<path d="M31.9473 21.4336H32.2465L32.2445 22.9043C32.2445 22.9768 32.2445 23.0476 32.2445 23.1166C32.2445 23.1857 32.2426 23.2512 32.2386 23.3132C32.2346 23.3741 32.2267 23.4302 32.2148 23.4817C32.2042 23.532 32.1877 23.5753 32.1653 23.6116C32.1441 23.6467 32.1157 23.6742 32.0801 23.694C32.0444 23.7128 31.9995 23.7204 31.9453 23.7169L31.9473 21.4336Z" fill="#081D5C"/>
<path d="M31.3257 21.4336H31.6249C31.6236 21.6805 31.6223 21.9262 31.621 22.1707C31.6196 22.4141 31.619 22.6592 31.619 22.906C31.619 23.016 31.6078 23.1126 31.5853 23.1956C31.5642 23.2775 31.5351 23.3489 31.4981 23.4097C31.4625 23.4694 31.4202 23.5191 31.3713 23.5589C31.3224 23.5975 31.2702 23.6291 31.2148 23.6537C31.1606 23.6771 31.1051 23.6935 31.0483 23.7028C30.9915 23.7122 30.936 23.7169 30.8819 23.7169H30.8581L30.8125 23.3957H30.9591C31.0067 23.3957 31.0523 23.3852 31.0959 23.3641C31.1395 23.3431 31.1784 23.3109 31.2128 23.2676C31.2471 23.2243 31.2742 23.1705 31.294 23.1061C31.3138 23.0418 31.3237 22.9657 31.3237 22.878L31.3257 21.4336Z" fill="#081D5C"/>
<path d="M30.0791 22.1016H30.3783L30.3763 22.9299C30.3803 23.0095 30.3928 23.0791 30.414 23.1388C30.4351 23.1973 30.4622 23.2458 30.4952 23.2844C30.5282 23.323 30.5659 23.3523 30.6081 23.3722C30.6504 23.3909 30.6947 23.4003 30.7409 23.4003H30.8162L30.8578 23.7214H30.8123C30.762 23.7214 30.7105 23.7173 30.6577 23.7092C30.6048 23.701 30.5527 23.6869 30.5011 23.667C30.4496 23.6471 30.4001 23.6202 30.3525 23.5863C30.3063 23.5524 30.2647 23.5097 30.2277 23.4582C30.1907 23.5085 30.1491 23.5506 30.1028 23.5845C30.0566 23.6185 30.0077 23.6454 29.9562 23.6653C29.906 23.6852 29.8545 23.6998 29.8016 23.7092C29.7488 23.7173 29.6979 23.7214 29.6491 23.7214L29.6055 23.4003H29.7164C29.7614 23.4003 29.8043 23.3909 29.8452 23.3722C29.8875 23.3523 29.9252 23.323 29.9582 23.2844C29.9925 23.2458 30.0203 23.1973 30.0414 23.1388C30.0626 23.0791 30.0751 23.0095 30.0791 22.9299L30.0791 22.1016ZM30.2217 23.9777C30.2495 23.9777 30.2752 23.9823 30.299 23.9917C30.3241 24.0011 30.3459 24.0139 30.3644 24.0303C30.3829 24.0467 30.3974 24.0654 30.408 24.0865C30.4186 24.1075 30.4239 24.1298 30.4239 24.1532C30.4239 24.1777 30.4186 24.2006 30.408 24.2216C30.3974 24.2438 30.3829 24.2631 30.3644 24.2795C30.3459 24.2971 30.3241 24.3105 30.299 24.3199C30.2752 24.3293 30.2495 24.3339 30.2217 24.3339C30.194 24.3339 30.1682 24.3293 30.1445 24.3199C30.1207 24.3105 30.0995 24.2971 30.081 24.2795C30.0639 24.2632 30.05 24.2438 30.0394 24.2216C30.0289 24.2006 30.0236 24.1777 30.0236 24.1532C30.0236 24.1298 30.0289 24.1075 30.0394 24.0865C30.05 24.0654 30.0639 24.0467 30.081 24.0303C30.0995 24.0139 30.1207 24.0011 30.1445 23.9917C30.1682 23.9823 30.194 23.9777 30.2217 23.9777Z" fill="#081D5C"/>
<path d="M28.8519 22.0938H29.1512L29.1492 22.7975C29.1505 22.842 29.1531 22.8864 29.1571 22.9309C29.1611 22.9753 29.1677 23.0186 29.1769 23.0608C29.1875 23.1017 29.2007 23.1415 29.2165 23.1801C29.2337 23.2175 29.2555 23.2515 29.2819 23.2819C29.3136 23.3205 29.3506 23.3498 29.3929 23.3696C29.4352 23.3884 29.4794 23.3977 29.5257 23.3977H29.601L29.6446 23.7189H29.597C29.5204 23.7189 29.4405 23.7089 29.3572 23.689C29.2753 23.668 29.1987 23.63 29.1274 23.575C29.1128 23.6861 29.091 23.7821 29.062 23.8628C29.0329 23.9435 28.9953 24.012 28.949 24.0681C28.9028 24.1255 28.8473 24.1723 28.7826 24.2085C28.7178 24.2448 28.6432 24.2735 28.5587 24.2945L28.5547 23.9611C28.6009 23.9377 28.6425 23.9078 28.6795 23.8716C28.7165 23.8341 28.7476 23.7879 28.7727 23.7329C28.7991 23.6768 28.8189 23.6095 28.8321 23.5311C28.8453 23.4515 28.8519 23.3579 28.8519 23.2503L28.8519 22.0938Z" fill="#081D5C"/>
<path d="M27.9409 22.1016H28.2401C28.2401 22.2373 28.2395 22.3724 28.2381 22.507C28.2381 22.6415 28.2381 22.7761 28.2381 22.9106C28.2381 23.0206 28.2269 23.1171 28.2044 23.2002C28.1833 23.2821 28.1542 23.3535 28.1172 23.4143C28.0816 23.474 28.0393 23.5237 27.9904 23.5635C27.9415 23.6021 27.8894 23.6337 27.8339 23.6583C27.7797 23.6817 27.7236 23.698 27.6654 23.7074C27.6086 23.7167 27.5532 23.7214 27.499 23.7214H27.4772L27.4336 23.4003H27.5763C27.6238 23.4003 27.6694 23.3897 27.713 23.3687C27.7566 23.3476 27.7949 23.3155 27.8279 23.2722C27.8623 23.2289 27.8894 23.175 27.9092 23.1107C27.9303 23.0463 27.9409 22.9703 27.9409 22.8825L27.9409 22.1016ZM28.1034 23.9777C28.1311 23.9777 28.1569 23.9824 28.1806 23.9917C28.2057 24.0011 28.2275 24.0139 28.246 24.0303C28.2645 24.0467 28.2791 24.0654 28.2896 24.0865C28.3002 24.1075 28.3055 24.1298 28.3055 24.1532C28.3055 24.1777 28.3002 24.2006 28.2896 24.2216C28.2791 24.2439 28.2645 24.2632 28.246 24.2795C28.2276 24.2971 28.2057 24.3105 28.1806 24.3199C28.1569 24.3293 28.1311 24.3339 28.1034 24.3339C28.0769 24.3339 28.0512 24.3293 28.0261 24.3199C28.0023 24.3105 27.9812 24.2971 27.9627 24.2795C27.9455 24.2632 27.9316 24.2439 27.9211 24.2216C27.9105 24.2006 27.9052 24.1777 27.9052 24.1532C27.9052 24.1298 27.9105 24.1075 27.9211 24.0865C27.9316 24.0654 27.9455 24.0467 27.9627 24.0303C27.9812 24.014 28.0023 24.0011 28.0261 23.9917C28.0512 23.9824 28.0769 23.9777 28.1034 23.9777ZM27.6516 23.9777C27.6793 23.9777 27.7051 23.9824 27.7288 23.9917C27.7539 24.0011 27.7758 24.0139 27.7942 24.0303C27.8127 24.0467 27.8273 24.0654 27.8378 24.0865C27.8484 24.1075 27.8537 24.1298 27.8537 24.1532C27.8537 24.1777 27.8484 24.2006 27.8378 24.2216C27.8273 24.2439 27.8127 24.2632 27.7942 24.2795C27.7758 24.2971 27.7539 24.3105 27.7288 24.3199C27.7051 24.3293 27.6793 24.3339 27.6516 24.3339C27.6251 24.3339 27.5994 24.3293 27.5743 24.3199C27.5505 24.3105 27.5294 24.2971 27.5109 24.2795C27.4937 24.2632 27.4798 24.2439 27.4693 24.2216C27.4587 24.2006 27.4534 24.1777 27.4534 24.1532C27.4534 24.1298 27.4587 24.1075 27.4693 24.0865C27.4798 24.0654 27.4937 24.0467 27.5109 24.0303C27.5294 24.014 27.5505 24.0011 27.5743 23.9917C27.5994 23.9824 27.6251 23.9777 27.6516 23.9777Z" fill="#081D5C"/>
<path d="M26.6237 22.1016C26.6871 22.1016 26.7439 22.1051 26.7941 22.1121C26.8443 22.1179 26.8885 22.1279 26.9268 22.1419C26.9599 22.1536 26.9929 22.1706 27.0259 22.1928C27.0603 22.2139 27.0926 22.2402 27.123 22.2718C27.1944 22.349 27.2518 22.442 27.2954 22.5508C27.339 22.6597 27.3608 22.7796 27.3608 22.9106C27.3608 23.0171 27.3509 23.1107 27.3311 23.1914C27.3113 23.271 27.2835 23.3406 27.2479 23.4003H27.4262L27.4718 23.7214H26.4453L26.4473 23.4003H26.699C26.7439 23.4003 26.7875 23.3903 26.8297 23.3704C26.872 23.3494 26.9097 23.3189 26.9427 23.2792C26.9757 23.2382 27.0021 23.1873 27.0219 23.1265C27.0418 23.0645 27.0517 22.9925 27.0517 22.9106C27.0517 22.8264 27.0411 22.7538 27.02 22.693C26.9988 22.6322 26.9711 22.5818 26.9367 22.5421C26.9037 22.5023 26.8661 22.473 26.8238 22.4543C26.7815 22.4344 26.7399 22.4245 26.699 22.4245H26.475V22.1016H26.6237Z" fill="#081D5C"/>
<path d="M24.9668 21.4336H25.266L25.2641 22.9043C25.2641 22.9768 25.2641 23.0476 25.2641 23.1166C25.2641 23.1857 25.2621 23.2512 25.2581 23.3132C25.2541 23.3741 25.2462 23.4302 25.2343 23.4817C25.2238 23.532 25.2073 23.5753 25.1848 23.6116C25.1637 23.6467 25.1353 23.6742 25.0996 23.694C25.0639 23.7128 25.019 23.7204 24.9648 23.7169L24.9668 21.4336Z" fill="#081D5C"/>
<path d="M24.3453 21.4336H24.6445C24.6431 21.6805 24.6418 21.9262 24.6405 22.1707C24.6392 22.4141 24.6385 22.6592 24.6385 22.906C24.6385 23.016 24.6273 23.1126 24.6048 23.1956C24.5837 23.2775 24.5546 23.3489 24.5177 23.4097C24.482 23.4694 24.4397 23.5191 24.3908 23.5589C24.342 23.5975 24.2898 23.6291 24.2343 23.6537C24.1801 23.6771 24.1246 23.6935 24.0678 23.7028C24.011 23.7122 23.9555 23.7169 23.9014 23.7169H23.8776L23.832 23.3957H23.9787C24.0262 23.3957 24.0718 23.3852 24.1154 23.3641C24.159 23.3431 24.198 23.3109 24.2323 23.2676C24.2667 23.2243 24.2937 23.1705 24.3136 23.1061C24.3334 23.0418 24.3433 22.9657 24.3433 22.878L24.3453 21.4336Z" fill="#081D5C"/>
<path d="M23.0947 22.0965H23.3939L23.3919 22.9248C23.3959 23.0044 23.4084 23.074 23.4296 23.1337C23.4507 23.1922 23.4778 23.2407 23.5108 23.2794C23.5438 23.318 23.5815 23.3472 23.6238 23.3671C23.666 23.3858 23.7103 23.3952 23.7565 23.3952H23.8318L23.8735 23.7163H23.8279C23.7777 23.7163 23.7262 23.7123 23.6733 23.7041C23.6205 23.6959 23.5683 23.6818 23.5168 23.662C23.4652 23.6421 23.4157 23.6151 23.3682 23.5812C23.3219 23.5473 23.2803 23.5046 23.2433 23.4531C23.2063 23.5034 23.1647 23.5455 23.1185 23.5795C23.0722 23.6134 23.0234 23.6403 22.9718 23.6602C22.9216 23.6801 22.8701 23.6947 22.8173 23.7041C22.7644 23.7123 22.7136 23.7163 22.6647 23.7163L22.6211 23.3952H22.7321C22.777 23.3952 22.8199 23.3858 22.8609 23.3671C22.9031 23.3472 22.9408 23.318 22.9738 23.2794C23.0082 23.2407 23.0359 23.1922 23.057 23.1337C23.0782 23.074 23.0907 23.0044 23.0947 22.9248L23.0947 22.0965ZM23.4534 21.4805C23.4811 21.4805 23.5075 21.4852 23.5326 21.4945C23.5577 21.5039 23.5795 21.5168 23.598 21.5331C23.6165 21.5495 23.631 21.5688 23.6416 21.591C23.6522 21.6121 23.6575 21.6343 23.6575 21.6577C23.6575 21.6823 23.6522 21.7057 23.6416 21.7279C23.631 21.749 23.6165 21.7677 23.598 21.7841C23.5795 21.8005 23.5577 21.8139 23.5326 21.8245C23.5075 21.8338 23.4811 21.8385 23.4534 21.8385C23.4269 21.8385 23.4018 21.8338 23.3781 21.8245C23.3543 21.8139 23.3331 21.8005 23.3146 21.7841C23.2962 21.7677 23.2816 21.749 23.2711 21.7279C23.2605 21.7057 23.2552 21.6823 23.2552 21.6577C23.2552 21.6343 23.2605 21.6121 23.2711 21.591C23.2816 21.5688 23.2962 21.5495 23.3146 21.5331C23.3331 21.5168 23.3543 21.5039 23.3781 21.4945C23.4018 21.4852 23.4269 21.4805 23.4534 21.4805ZM23.0035 21.4805C23.0313 21.4805 23.057 21.4852 23.0808 21.4945C23.1059 21.5039 23.1277 21.5168 23.1462 21.5331C23.1647 21.5495 23.1792 21.5688 23.1898 21.591C23.2017 21.6121 23.2076 21.6343 23.2076 21.6577C23.2076 21.6823 23.2017 21.7057 23.1898 21.7279C23.1792 21.749 23.1647 21.7677 23.1462 21.7841C23.1277 21.8005 23.1059 21.8139 23.0808 21.8245C23.057 21.8338 23.0313 21.8385 23.0035 21.8385C22.9771 21.8385 22.9514 21.8338 22.9263 21.8245C22.9025 21.8139 22.8813 21.8005 22.8628 21.7841C22.8457 21.7677 22.8318 21.749 22.8212 21.7279C22.8107 21.7057 22.8054 21.6823 22.8054 21.6577C22.8054 21.6343 22.8107 21.6121 22.8212 21.591C22.8318 21.5688 22.8457 21.5495 22.8628 21.5331C22.8813 21.5168 22.9025 21.5039 22.9263 21.4945C22.9514 21.4852 22.9771 21.4805 23.0035 21.4805Z" fill="#081D5C"/>
<path d="M21.4846 23.961C21.5361 23.961 21.5863 23.9581 21.6352 23.9522C21.6854 23.9464 21.733 23.9353 21.7779 23.9189C21.8241 23.9013 21.8677 23.8768 21.9087 23.8452C21.9496 23.8136 21.9873 23.7709 22.0216 23.7171C21.9225 23.7183 21.834 23.7007 21.7561 23.6644C21.6795 23.6281 21.6134 23.5796 21.5579 23.5187C21.5025 23.4567 21.4575 23.3854 21.4232 23.3046C21.3888 23.2227 21.3644 23.1379 21.3499 23.0502C21.334 22.9612 21.3287 22.8717 21.334 22.7817C21.338 22.6904 21.3505 22.6044 21.3717 22.5237C21.3941 22.4429 21.4245 22.3698 21.4628 22.3043C21.5024 22.2388 21.55 22.1867 21.6055 22.1481C21.661 22.1095 21.7237 22.0878 21.7937 22.0832C21.8638 22.0773 21.941 22.0943 22.0256 22.1341C22.0758 22.1563 22.1214 22.1873 22.1623 22.2271C22.2033 22.2668 22.2396 22.3131 22.2713 22.3657C22.3347 22.4663 22.3816 22.5845 22.412 22.7202C22.4424 22.8548 22.4562 22.9952 22.4536 23.1414C22.4536 23.1835 22.4516 23.2263 22.4477 23.2695C22.445 23.3117 22.441 23.3538 22.4358 23.3959H22.6161L22.6617 23.7171H22.3545C22.3162 23.8212 22.266 23.9095 22.2039 23.9821C22.1432 24.0546 22.0738 24.1137 21.9959 24.1593C21.9192 24.205 21.8367 24.2383 21.7482 24.2594C21.661 24.2804 21.5725 24.2909 21.4826 24.2909L21.4846 23.961ZM22.1405 23.3959C22.1471 23.3561 22.1524 23.3134 22.1564 23.2678C22.1603 23.2221 22.163 23.1754 22.1643 23.1274C22.1656 23.0782 22.1643 23.0291 22.1603 22.98C22.1577 22.9308 22.1524 22.8823 22.1445 22.8343C22.1299 22.7442 22.1095 22.6699 22.083 22.6114C22.0579 22.5517 22.0289 22.5061 21.9958 22.4745C21.9641 22.4429 21.9304 22.4242 21.8948 22.4184C21.8591 22.4113 21.8254 22.4154 21.7937 22.4306C21.7488 22.4517 21.7138 22.4862 21.6887 22.5342C21.6636 22.5822 21.6471 22.6371 21.6392 22.6992C21.6312 22.7612 21.6312 22.8273 21.6392 22.8975C21.6484 22.9665 21.6643 23.0326 21.6867 23.0958C21.7105 23.1578 21.7402 23.214 21.7759 23.2643C21.8129 23.3134 21.8558 23.3497 21.9047 23.3731C21.9483 23.393 21.9899 23.4023 22.0295 23.4012C22.0705 23.4 22.1075 23.3982 22.1405 23.3959Z" fill="#081D5C"/>
<path d="M20.8588 22.0965H21.1581C21.1581 22.2322 21.1575 22.3673 21.1561 22.5019C21.1561 22.6364 21.1561 22.771 21.1561 22.9055C21.1561 23.0155 21.1448 23.112 21.1224 23.1951C21.1013 23.277 21.0722 23.3484 21.0352 23.4092C20.9995 23.4689 20.9573 23.5186 20.9084 23.5584C20.8595 23.597 20.8073 23.6286 20.7518 23.6532C20.6977 23.6766 20.6415 23.6929 20.5834 23.7023C20.5266 23.7117 20.4711 23.7163 20.417 23.7163H20.3952L20.3516 23.3952H20.4942C20.5418 23.3952 20.5874 23.3847 20.631 23.3636C20.6746 23.3425 20.7129 23.3104 20.7459 23.2671C20.7802 23.2238 20.8073 23.17 20.8271 23.1056C20.8483 23.0413 20.8588 22.9652 20.8588 22.8775L20.8588 22.0965ZM21.0114 21.4805C21.0392 21.4805 21.0649 21.4852 21.0887 21.4945C21.1138 21.5039 21.1356 21.5167 21.1541 21.5331C21.1739 21.5495 21.1891 21.5688 21.1997 21.591C21.2102 21.6121 21.2155 21.6343 21.2155 21.6577C21.2155 21.6823 21.2102 21.7057 21.1997 21.7279C21.1891 21.749 21.1739 21.7677 21.1541 21.7841C21.1356 21.8005 21.1138 21.8139 21.0887 21.8245C21.0649 21.8338 21.0392 21.8385 21.0114 21.8385C20.985 21.8385 20.9592 21.8338 20.9341 21.8245C20.9104 21.8139 20.8892 21.8005 20.8707 21.7841C20.8536 21.7677 20.8397 21.749 20.8291 21.7279C20.8186 21.7057 20.8133 21.6823 20.8133 21.6577C20.8133 21.6343 20.8185 21.6121 20.8291 21.591C20.8397 21.5688 20.8536 21.5495 20.8707 21.5331C20.8892 21.5167 20.9104 21.5039 20.9341 21.4945C20.9592 21.4852 20.985 21.4805 21.0114 21.4805Z" fill="#081D5C"/>
<path d="M18.0674 22.1016H18.3666V22.7211C18.3666 22.7655 18.3666 22.8118 18.3666 22.8597C18.3679 22.9065 18.3718 22.9533 18.3785 23.0001C18.3851 23.0458 18.395 23.0902 18.4082 23.1335C18.4227 23.1768 18.4432 23.2166 18.4696 23.2528C18.496 23.2891 18.5238 23.3131 18.5528 23.3248C18.5819 23.3353 18.6103 23.3371 18.638 23.3301C18.6658 23.3231 18.6915 23.3084 18.7153 23.2862C18.7391 23.264 18.7589 23.2382 18.7748 23.209C18.8104 23.1434 18.8303 23.0697 18.8342 22.9878C18.8382 22.9048 18.8402 22.8158 18.8402 22.7211V22.1016H19.1394V22.7211C19.1394 22.7679 19.14 22.8153 19.1414 22.8632C19.1427 22.91 19.1473 22.9562 19.1552 23.0019C19.1631 23.0475 19.1757 23.0914 19.1929 23.1335C19.21 23.1745 19.2345 23.2131 19.2662 23.2493C19.29 23.2774 19.3144 23.2973 19.3395 23.309C19.3659 23.3207 19.3917 23.3248 19.4168 23.3213C19.4419 23.3178 19.465 23.3067 19.4862 23.2879C19.5073 23.2692 19.5258 23.2441 19.5416 23.2125C19.5601 23.1715 19.574 23.1224 19.5833 23.0651C19.5938 23.0066 19.5978 22.9457 19.5951 22.8825V22.1016H19.8963C19.8963 22.2034 19.8958 22.3046 19.8944 22.4052C19.893 22.5046 19.8938 22.6058 19.8963 22.7088C19.8977 22.7521 19.8996 22.7995 19.9023 22.8509C19.9049 22.9013 19.9102 22.9521 19.9181 23.0036C19.9274 23.0551 19.9406 23.1054 19.9578 23.1546C19.9763 23.2025 20.0014 23.2458 20.0331 23.2844C20.0661 23.3242 20.1031 23.3535 20.144 23.3722C20.1863 23.3909 20.2306 23.4003 20.2768 23.4003H20.3521L20.3937 23.7214H20.3481C20.3085 23.7214 20.2623 23.7191 20.2094 23.7144C20.1579 23.7086 20.1051 23.6963 20.0509 23.6776C19.9981 23.6588 19.9465 23.6319 19.8963 23.5968C19.8461 23.5617 19.8026 23.5143 19.7656 23.4547C19.7193 23.5307 19.6652 23.591 19.6031 23.6354C19.5423 23.6787 19.4769 23.7027 19.4069 23.7074C19.3382 23.7109 19.2675 23.6928 19.1949 23.653C19.1235 23.6132 19.0548 23.5483 18.9888 23.4582C18.9293 23.5389 18.8699 23.6038 18.8104 23.653C18.751 23.7021 18.6896 23.7296 18.6262 23.7355C18.5641 23.7413 18.4987 23.7226 18.43 23.6793C18.3626 23.636 18.2913 23.5623 18.216 23.4582C18.179 23.5085 18.1374 23.5506 18.0911 23.5845C18.0449 23.6185 17.996 23.6454 17.9445 23.6653C17.8943 23.6852 17.8428 23.6998 17.7899 23.7091C17.7371 23.7173 17.6862 23.7214 17.6373 23.7214L17.5938 23.4003H17.7047C17.7496 23.4003 17.7926 23.3909 17.8335 23.3722C17.8758 23.3523 17.9134 23.323 17.9465 23.2844C17.9808 23.2458 18.0086 23.1973 18.0297 23.1388C18.0508 23.0791 18.0634 23.0095 18.0673 22.9299L18.0674 22.1016Z" fill="#081D5C"/>
<path d="M17.1765 22.5938C17.2108 22.5938 17.2419 22.6037 17.2696 22.6236C17.2987 22.6435 17.3244 22.6686 17.3469 22.6991C17.3575 22.7131 17.3707 22.74 17.3865 22.7798C17.4024 22.8196 17.4195 22.8658 17.438 22.9184C17.4579 22.9699 17.4783 23.0243 17.4995 23.0816C17.5206 23.1378 17.5417 23.1899 17.5629 23.2378C17.5853 23.2846 17.6071 23.3232 17.6283 23.3537C17.6507 23.3841 17.6719 23.3993 17.6917 23.3993H17.7749L17.8205 23.7205L17.6719 23.724C17.6045 23.7252 17.5464 23.7099 17.4975 23.6783C17.4499 23.6456 17.4077 23.6041 17.3707 23.5537C17.335 23.5023 17.3033 23.4449 17.2756 23.3818C17.2478 23.3186 17.222 23.2571 17.1983 23.1975C17.1745 23.1378 17.1507 23.0828 17.1269 23.0325C17.1032 22.9822 17.0767 22.9442 17.0477 22.9184H16.9704C16.9942 22.9992 17.0054 23.0822 17.0041 23.1676C17.0041 23.2531 16.9889 23.3309 16.9585 23.4011C16.9347 23.4537 16.9043 23.4988 16.8673 23.5362C16.8304 23.5725 16.7901 23.6029 16.7465 23.6274C16.7029 23.652 16.658 23.6713 16.6117 23.6854C16.5655 23.6982 16.5212 23.7082 16.479 23.7152C16.4367 23.7222 16.3984 23.7269 16.364 23.7292C16.331 23.7304 16.3052 23.731 16.2867 23.731L16.1599 23.7275C16.0833 23.7228 16.0054 23.7064 15.9261 23.6783C15.8482 23.6491 15.7768 23.6035 15.7121 23.5414C15.6487 23.4794 15.5965 23.3975 15.5555 23.2958C15.5159 23.194 15.4961 23.0664 15.4961 22.9132H15.8013C15.8013 22.9939 15.8105 23.0594 15.829 23.1097C15.8475 23.16 15.8739 23.2057 15.9083 23.2466C15.94 23.2864 15.9803 23.3186 16.0291 23.3431C16.0793 23.3677 16.1328 23.3853 16.1896 23.3958C16.2478 23.4051 16.3059 23.4075 16.364 23.4028C16.4235 23.397 16.4776 23.3841 16.5265 23.3642C16.5767 23.3443 16.619 23.3168 16.6533 23.2817C16.6877 23.2466 16.7088 23.2039 16.7167 23.1536C16.7207 23.1267 16.7187 23.0974 16.7108 23.0658C16.7029 23.0331 16.6897 23.0032 16.6712 22.9763C16.6619 22.9635 16.6474 22.9529 16.6276 22.9448C16.6091 22.9366 16.586 22.9278 16.5582 22.9184H16.2332V22.5938H17.1765ZM16.5681 23.9767C16.5959 23.9767 16.6223 23.9814 16.6474 23.9907C16.6725 24.0001 16.6943 24.013 16.7128 24.0293C16.7313 24.0457 16.7458 24.0644 16.7564 24.0855C16.7669 24.1066 16.7722 24.1288 16.7722 24.1522C16.7722 24.1768 16.7669 24.1996 16.7564 24.2206C16.7458 24.2429 16.7313 24.2622 16.7128 24.2785C16.6943 24.2961 16.6725 24.3096 16.6474 24.3189C16.6223 24.3283 16.5959 24.333 16.5681 24.333C16.5417 24.333 16.5159 24.3283 16.4908 24.3189C16.4671 24.3096 16.4459 24.2961 16.4274 24.2785C16.4103 24.2622 16.3964 24.2429 16.3858 24.2206C16.3753 24.1996 16.37 24.1768 16.37 24.1522C16.37 24.1288 16.3752 24.1066 16.3858 24.0855C16.3964 24.0644 16.4103 24.0457 16.4274 24.0293C16.4459 24.013 16.4671 24.0001 16.4908 23.9907C16.5159 23.9814 16.5417 23.9767 16.5681 23.9767ZM16.1183 23.9767C16.1461 23.9767 16.1718 23.9814 16.1956 23.9907C16.2207 24.0001 16.2425 24.013 16.261 24.0293C16.2795 24.0457 16.294 24.0644 16.3046 24.0855C16.3151 24.1066 16.3204 24.1288 16.3204 24.1522C16.3204 24.1768 16.3151 24.1996 16.3046 24.2206C16.294 24.2429 16.2795 24.2622 16.261 24.2785C16.2425 24.2961 16.2207 24.3096 16.1956 24.3189C16.1718 24.3283 16.1461 24.333 16.1183 24.333C16.0919 24.333 16.0661 24.3283 16.041 24.3189C16.0173 24.3096 15.9961 24.2961 15.9776 24.2785C15.9591 24.2622 15.9446 24.2429 15.934 24.2206C15.9235 24.1996 15.9182 24.1768 15.9182 24.1522C15.9182 24.1288 15.9235 24.1066 15.934 24.0855C15.9446 24.0644 15.9591 24.0457 15.9776 24.0293C15.9961 24.013 16.0173 24.0001 16.041 23.9907C16.0661 23.9814 16.0919 23.9767 16.1183 23.9767Z" fill="#081D5C"/>
<path d="M15.25 26.9661V25.3594H15.473V26.6931H16.0275V26.9661H15.25Z" fill="#081D5C"/>
<path d="M17.1785 26.9676H16.9359L16.8395 26.5996H16.398L16.3069 26.9676H16.0703L16.5005 25.3477H16.7363L17.1785 26.9676ZM16.7679 26.3267L16.6158 25.7256L16.4666 26.3267H16.7679Z" fill="#081D5C"/>
<path d="M17.6719 26.9676V25.3477H18.0297C18.1653 25.3477 18.2537 25.3558 18.2949 25.372C18.3582 25.3963 18.4112 25.4493 18.4539 25.5311C18.4966 25.6121 18.5179 25.7171 18.5179 25.846C18.5179 25.9455 18.5056 26.0291 18.481 26.0969C18.4564 26.1646 18.425 26.218 18.3868 26.2571C18.3492 26.2954 18.3107 26.3208 18.2716 26.3333C18.2183 26.3488 18.1412 26.3565 18.0403 26.3565H17.8949V26.9676H17.6719ZM17.8949 25.6217V26.0814H18.0169C18.1048 26.0814 18.1636 26.0729 18.1932 26.056C18.2229 26.039 18.246 26.0125 18.2625 25.9764C18.2796 25.9403 18.2881 25.8983 18.2881 25.8504C18.2881 25.7915 18.2763 25.7429 18.2527 25.7046C18.2291 25.6663 18.1992 25.6423 18.1631 25.6328C18.1365 25.6254 18.083 25.6217 18.0026 25.6217H17.8949Z" fill="#081D5C"/>
<path d="M18.6602 26.1679C18.6602 26.0028 18.677 25.8643 18.7106 25.7524C18.7357 25.6699 18.7699 25.5958 18.8131 25.5303C18.8568 25.4647 18.9045 25.4161 18.9562 25.3844C19.025 25.3417 19.1044 25.3203 19.1943 25.3203C19.357 25.3203 19.4871 25.3944 19.5846 25.5424C19.6825 25.6905 19.7315 25.8964 19.7315 26.1601C19.7315 26.4216 19.683 26.6264 19.5861 26.7745C19.4891 26.9218 19.3595 26.9955 19.1973 26.9955C19.0331 26.9955 18.9025 26.9222 18.8056 26.7756C18.7086 26.6283 18.6602 26.4257 18.6602 26.1679ZM18.8899 26.1568C18.8899 26.3402 18.9188 26.4795 18.9766 26.5745C19.0343 26.6688 19.1077 26.7159 19.1966 26.7159C19.2855 26.7159 19.3583 26.6691 19.415 26.5756C19.4723 26.4813 19.5009 26.3402 19.5009 26.1524C19.5009 25.9667 19.4731 25.8282 19.4173 25.7369C19.3621 25.6455 19.2885 25.5999 19.1966 25.5999C19.1047 25.5999 19.0306 25.6463 18.9743 25.7391C18.9181 25.8312 18.8899 25.9704 18.8899 26.1568Z" fill="#081D5C"/>
<path d="M19.8477 26.4408L20.0646 26.4099C20.0777 26.5167 20.1041 26.5951 20.1437 26.6452C20.1839 26.6953 20.2379 26.7204 20.3057 26.7204C20.3775 26.7204 20.4315 26.6983 20.4677 26.6541C20.5044 26.6091 20.5227 26.5568 20.5227 26.4971C20.5227 26.4588 20.5149 26.4264 20.4993 26.3999C20.4843 26.3726 20.4576 26.3491 20.4195 26.3292C20.3934 26.3159 20.3338 26.2924 20.2409 26.2585C20.1214 26.215 20.0375 26.1616 19.9893 26.0982C19.9215 26.0091 19.8876 25.9004 19.8876 25.7723C19.8876 25.6897 19.9034 25.6128 19.9351 25.5413C19.9672 25.4691 20.0132 25.4142 20.0729 25.3767C20.1332 25.3391 20.2058 25.3203 20.2906 25.3203C20.4293 25.3203 20.5335 25.3649 20.6033 25.454C20.6736 25.5432 20.7105 25.6621 20.714 25.8109L20.491 25.8253C20.4815 25.7421 20.4609 25.6824 20.4293 25.6463C20.3981 25.6094 20.3512 25.591 20.2884 25.591C20.2236 25.591 20.1729 25.6106 20.1362 25.6496C20.1126 25.6746 20.1008 25.7082 20.1008 25.7501C20.1008 25.7885 20.1118 25.8212 20.1339 25.8485C20.1621 25.8831 20.2304 25.9192 20.3389 25.9568C20.4473 25.9944 20.5275 26.0334 20.5792 26.0739C20.6314 26.1137 20.6721 26.1686 20.7012 26.2386C20.7309 26.3078 20.7457 26.3936 20.7457 26.496C20.7457 26.5889 20.7281 26.6758 20.693 26.7568C20.6578 26.8378 20.6081 26.8983 20.5438 26.938C20.4795 26.9771 20.3994 26.9966 20.3035 26.9966C20.1638 26.9966 20.0566 26.9495 19.9818 26.8552C19.9069 26.7601 19.8622 26.622 19.8477 26.4408Z" fill="#081D5C"/>
<path d="M21.1793 26.9676V25.6217H20.8516V25.3477H21.7293V25.6217H21.4023V26.9676H21.1793Z" fill="#081D5C"/>
<path d="M21.8789 26.9676V25.3477H22.6978V25.6217H22.1019V25.9808H22.6564V26.2538H22.1019V26.6947H22.7189V26.9676H21.8789Z" fill="#081D5C"/>
<path d="M23.5816 26.9676V25.6217H23.2539V25.3477H24.1316V25.6217H23.8046V26.9676H23.5816Z" fill="#081D5C"/>
<path d="M24.2773 25.3477H24.5004V26.225C24.5003 26.3643 24.5031 26.4545 24.5086 26.4958C24.5182 26.5621 24.5408 26.6155 24.5764 26.656C24.6126 26.6958 24.6618 26.7157 24.7241 26.7157C24.7874 26.7157 24.8351 26.6969 24.8672 26.6593C24.8994 26.621 24.9187 26.5742 24.9253 26.519C24.9318 26.4637 24.935 26.372 24.935 26.2438V25.3477H25.1581V26.1985C25.158 26.393 25.152 26.5304 25.14 26.6107C25.1279 26.691 25.1056 26.7588 25.0729 26.814C25.0408 26.8693 24.9976 26.9135 24.9433 26.9466C24.8891 26.979 24.8183 26.9952 24.7309 26.9952C24.6254 26.9952 24.5453 26.9775 24.4906 26.9422C24.4363 26.9061 24.3934 26.8597 24.3617 26.803C24.3301 26.7455 24.3092 26.6855 24.2992 26.6228C24.2846 26.53 24.2773 26.393 24.2773 26.2118L24.2773 25.3477Z" fill="#081D5C"/>
<path d="M25.3984 26.9676V25.3477H25.6154L26.0674 26.4295V25.3477H26.2746V26.9676H26.0509L25.6056 25.9112V26.9676H25.3984Z" fill="#081D5C"/>
<path d="M26.5078 26.9676V25.3477H26.7308V26.9676H26.5078Z" fill="#081D5C"/>
<path d="M26.8828 26.4408L27.0998 26.4099C27.1128 26.5167 27.1392 26.5951 27.1789 26.6452C27.2191 26.6953 27.2731 26.7204 27.3409 26.7204C27.4127 26.7204 27.4667 26.6983 27.5028 26.6541C27.5395 26.6091 27.5578 26.5568 27.5578 26.4971C27.5578 26.4588 27.5501 26.4264 27.5345 26.3999C27.5194 26.3726 27.4928 26.3491 27.4546 26.3292C27.4285 26.3159 27.369 26.2924 27.2761 26.2585C27.1565 26.215 27.0727 26.1616 27.0244 26.0982C26.9566 26.0091 26.9227 25.9004 26.9227 25.7723C26.9227 25.6897 26.9386 25.6128 26.9702 25.5413C27.0023 25.4691 27.0483 25.4142 27.1081 25.3767C27.1683 25.3391 27.2409 25.3203 27.3258 25.3203C27.4644 25.3203 27.5686 25.3649 27.6385 25.454C27.7088 25.5432 27.7457 25.6621 27.7492 25.8109L27.5262 25.8253C27.5167 25.7421 27.4961 25.6824 27.4644 25.6463C27.4333 25.6094 27.3863 25.591 27.3235 25.591C27.2587 25.591 27.208 25.6106 27.1714 25.6496C27.1478 25.6746 27.1359 25.7082 27.1359 25.7501C27.1359 25.7885 27.147 25.8212 27.1691 25.8485C27.1972 25.8831 27.2655 25.9192 27.374 25.9568C27.4825 25.9944 27.5626 26.0334 27.6143 26.0739C27.6666 26.1137 27.7073 26.1686 27.7364 26.2386C27.766 26.3078 27.7808 26.3936 27.7808 26.496C27.7808 26.5889 27.7633 26.6758 27.7281 26.7568C27.693 26.8378 27.6432 26.8983 27.5789 26.938C27.5146 26.9771 27.4345 26.9966 27.3386 26.9966C27.199 26.9966 27.0917 26.9495 27.0169 26.8552C26.9421 26.7601 26.8974 26.622 26.8828 26.4408Z" fill="#081D5C"/>
<path d="M27.9609 26.9676V25.3477H28.1839V26.9676H27.9609Z" fill="#081D5C"/>
<path d="M28.3945 26.9676V25.3477H29.2135V25.6217H28.6175V25.9808H29.172V26.2538H28.6175V26.6947H29.2346V26.9676H28.3945Z" fill="#081D5C"/>
<path d="M29.4297 26.9676V25.3477H29.6467L30.0987 26.4295V25.3477H30.3059V26.9676H30.0821L29.6369 25.9112V26.9676H29.4297Z" fill="#081D5C"/>
<path d="M30.5469 26.9676V25.3477H30.7639L31.2159 26.4295V25.3477H31.4231V26.9676H31.1993L30.7541 25.9112V26.9676H30.5469Z" fill="#081D5C"/>
<path d="M31.6562 26.9676V25.3477H32.4752V25.6217H31.8793V25.9808H32.4337V26.2538H31.8793V26.6947H32.4963V26.9676H31.6562Z" fill="#081D5C"/>
</svg>
