<svg width="75" height="75" viewBox="0 0 75 75" fill="none" xmlns="http://www.w3.org/2000/svg">
<g filter="url(#filter0_b_7380_34438)">
<circle cx="37.5" cy="37.5" r="37.5" fill="#FFF4E0"/>
<circle cx="37.5" cy="37.5" r="37.25" stroke="#F9A83D" stroke-width="0.5"/>
</g>
<path d="M37.4051 43.9579C32.6605 43.9579 27.9158 43.9514 23.1712 43.9707C22.8097 43.9718 22.7155 43.8366 22.651 43.5212C22.3459 42.0429 22.0326 40.5667 21.7111 39.0926C21.3947 37.6422 21.0589 36.1961 20.7446 34.7445C20.5797 33.985 20.3893 33.2329 20.2705 32.4616C20.1292 31.5508 21.193 30.7387 22.1033 31.2761C22.9316 31.7653 23.7579 32.2567 24.5821 32.7523C25.9295 33.5623 27.2728 34.3776 28.6203 35.1876C28.8772 35.3421 29.1547 35.4622 29.3964 35.6393C29.6073 35.7937 29.6923 35.7594 29.8335 35.5352C30.9885 33.7039 32.1608 31.8855 33.326 30.0617C34.3458 28.4664 35.3584 26.8658 36.3823 25.2737C36.8696 24.5153 37.9468 24.5281 38.4792 25.2523C39.5112 26.6577 40.5751 28.0373 41.6143 29.4373C42.4528 30.5659 43.2699 31.7117 44.1064 32.8424C44.7822 33.7565 45.4866 34.6491 46.147 35.576C46.2955 35.7841 46.3845 35.7347 46.5217 35.6382C48.1446 34.5032 49.7674 33.3681 51.3882 32.2299C51.7968 31.9434 52.1869 31.6269 52.6077 31.3641C53.2742 30.9479 54.2756 31.0766 54.5285 31.8662C54.679 32.335 54.5735 32.7995 54.4732 33.2576C54.1599 34.6855 53.8138 36.1059 53.522 37.5381C53.2425 38.9092 52.9271 40.2695 52.6251 41.6341C52.4817 42.2789 52.3404 42.9247 52.2125 43.5727C52.1582 43.8474 52.064 43.9675 51.7568 43.9664C46.9733 43.9536 42.1907 43.9568 37.4072 43.9568L37.4051 43.9579Z" fill="#FDB022"/>
<path d="M37.4687 46.3137C42.0096 46.3137 46.5505 46.3137 51.0914 46.3115C51.373 46.3115 51.6003 46.2461 51.4559 46.7353C51.2317 47.498 51.1324 48.3005 50.9563 49.0794C50.7904 49.8121 50.3256 50.1736 49.6058 50.1736C41.509 50.1736 33.4121 50.164 25.3153 50.1887C24.5515 50.1908 24.0426 49.6426 23.8818 48.9227C23.7139 48.1675 23.5808 47.4026 23.3822 46.6559C23.2931 46.319 23.4027 46.3094 23.6545 46.3094C26.5194 46.3147 29.3852 46.3126 32.25 46.3126H37.4687V46.3137Z" fill="#FDB022"/>
<defs>
<filter id="filter0_b_7380_34438" x="-4" y="-4" width="83" height="83" filterUnits="userSpaceOnUse" color-interpolation-filters="sRGB">
<feFlood flood-opacity="0" result="BackgroundImageFix"/>
<feGaussianBlur in="BackgroundImageFix" stdDeviation="2"/>
<feComposite in2="SourceAlpha" operator="in" result="effect1_backgroundBlur_7380_34438"/>
<feBlend mode="normal" in="SourceGraphic" in2="effect1_backgroundBlur_7380_34438" result="shape"/>
</filter>
</defs>
</svg>
