<svg width="22" height="22" viewBox="0 0 22 22" fill="none" xmlns="http://www.w3.org/2000/svg">
<path d="M21 10.7446C21 10.973 20.8208 11.1584 20.6 11.1584H1.4C1.1792 11.1584 1 10.973 1 10.7446C1 10.5161 1.1792 10.3307 1.4 10.3307H20.6C20.8208 10.3307 21 10.5161 21 10.7446ZM1.8 7.02012C2.0208 7.02012 2.2 6.83473 2.2 6.6063V4.95099C2.2 3.35363 3.456 2.05421 5 2.05421H6.6C6.8208 2.05421 7 1.86882 7 1.64039C7 1.41196 6.8208 1.22656 6.6 1.22656H5C3.0152 1.22656 1.4 2.89759 1.4 4.95099V6.6063C1.4 6.83473 1.5792 7.02012 1.8 7.02012ZM6.6 20.2625H5C3.456 20.2625 2.2 18.9631 2.2 17.3658V15.7105C2.2 15.482 2.0208 15.2966 1.8 15.2966C1.5792 15.2966 1.4 15.482 1.4 15.7105V17.3658C1.4 19.4192 3.0152 21.0902 5 21.0902H6.6C6.8208 21.0902 7 20.9048 7 20.6764C7 20.4479 6.8208 20.2625 6.6 20.2625ZM20.2 15.2966C19.9792 15.2966 19.8 15.482 19.8 15.7105V17.3658C19.8 18.9631 18.544 20.2625 17 20.2625H15.4C15.1792 20.2625 15 20.4479 15 20.6764C15 20.9048 15.1792 21.0902 15.4 21.0902H17C18.9848 21.0902 20.6 19.4192 20.6 17.3658V15.7105C20.6 15.482 20.4208 15.2966 20.2 15.2966ZM15.4 2.05421H17C18.544 2.05421 19.8 3.35363 19.8 4.95099V6.6063C19.8 6.83473 19.9792 7.02012 20.2 7.02012C20.4208 7.02012 20.6 6.83473 20.6 6.6063V4.95099C20.6 2.89759 18.9848 1.22656 17 1.22656H15.4C15.1792 1.22656 15 1.41196 15 1.64039C15 1.86882 15.1792 2.05421 15.4 2.05421Z" fill="#888FA7" stroke="#888FA7" stroke-width="0.6"/>
</svg>
