<svg width="15" height="16" viewBox="0 0 15 16" fill="none" xmlns="http://www.w3.org/2000/svg">
<g clip-path="url(#clip0_7371_30612)">
<path d="M14.2383 1.96484C14.1016 1.90625 13.96 1.89648 13.8135 1.93555C13.667 1.97461 13.5449 2.04297 13.4473 2.14062L10.5762 5.83203L8.14453 1.11523C7.98828 0.861328 7.77344 0.734375 7.5 0.734375C7.22656 0.734375 7.01172 0.861328 6.85547 1.11523L4.45312 5.83203L1.55273 2.14062C1.45508 2.04297 1.33301 1.97461 1.18652 1.93555C1.04004 1.89648 0.898438 1.90625 0.761719 1.96484C0.625 2.02344 0.512695 2.11621 0.424805 2.24316C0.336914 2.37012 0.292969 2.50195 0.292969 2.63867V12.3945C0.292969 12.9219 0.478516 13.376 0.849609 13.7568C1.2207 14.1377 1.66992 14.3281 2.19727 14.3281H12.8027C13.3301 14.3086 13.7793 14.1133 14.1504 13.7422C14.5215 13.3711 14.707 12.9219 14.707 12.3945V2.63867C14.707 2.50195 14.6631 2.37012 14.5752 2.24316C14.4873 2.11621 14.375 2.02344 14.2383 1.96484Z" fill="#FEB602"/>
</g>
<defs>
<clipPath id="clip0_7371_30612">
<rect width="15" height="15" fill="white" transform="matrix(1 0 0 -1 0 15.5)"/>
</clipPath>
</defs>
</svg>
