<svg width="50" height="50" viewBox="0 0 50 50" fill="none" xmlns="http://www.w3.org/2000/svg">
<rect width="50" height="50" rx="25" fill="#FC5C63"/>
<path d="M34.4864 18.8129C34.2507 18.8202 34.027 18.9188 33.8627 19.088L23.602 29.3485L16.9762 22.7227C16.8916 22.6381 16.7912 22.5711 16.6808 22.5254C16.5703 22.4796 16.4519 22.456 16.3324 22.456C16.2128 22.456 16.0944 22.4796 15.9839 22.5254C15.8735 22.5711 15.7731 22.6381 15.6885 22.7227C15.604 22.8072 15.5369 22.9076 15.4912 23.0181C15.4454 23.1285 15.4219 23.2469 15.4219 23.3665C15.4219 23.4861 15.4454 23.6044 15.4912 23.7149C15.5369 23.8254 15.604 23.9258 15.6885 24.0103L22.9582 31.28C23.0426 31.3647 23.143 31.432 23.2534 31.4779C23.3639 31.5238 23.4824 31.5475 23.602 31.5475C23.7217 31.5475 23.8401 31.5238 23.9506 31.4779C24.0611 31.432 24.1614 31.3647 24.2458 31.28L35.1436 20.3755C35.2757 20.2482 35.3662 20.084 35.4032 19.9044C35.4402 19.7247 35.4219 19.538 35.3508 19.3689C35.2797 19.1998 35.1591 19.0561 35.0048 18.9569C34.8505 18.8576 34.6698 18.8075 34.4864 18.8129Z" fill="white" stroke="white"/>
</svg>
