<svg
  width="47"
  height="46"
  viewBox="0 0 47 46"
  fill="none"
  xmlns="http://www.w3.org/2000/svg"
>
  <rect x="3.42188" y="3" width="40" height="40" rx="20" fill="#F2F4F7" />
  <rect
    x="3.42188"
    y="3"
    width="40"
    height="40"
    rx="20"
    stroke="#F9FAFB"
    stroke-width="6"
  />
  <g clip-path="url(#clip0_5966_22058)">
    <path
      d="M26.7544 26.3352L23.4211 23.0019M23.4211 23.0019L20.0878 26.3352M23.4211 23.0019V30.5019M30.4128 28.3269C31.2256 27.8838 31.8676 27.1826 32.2377 26.334C32.6077 25.4855 32.6846 24.5379 32.4563 23.6408C32.2279 22.7436 31.7073 21.9481 30.9767 21.3797C30.246 20.8113 29.3468 20.5025 28.4211 20.5019H27.3711C27.1189 19.5262 26.6487 18.6205 25.9961 17.8527C25.3434 17.0849 24.5251 16.4751 23.6029 16.069C22.6806 15.663 21.6782 15.4713 20.6712 15.5084C19.6642 15.5455 18.6787 15.8104 17.7888 16.2832C16.8988 16.7561 16.1277 17.4244 15.5333 18.2382C14.9389 19.0519 14.5367 19.9898 14.3569 20.9814C14.1772 21.9729 14.2245 22.9923 14.4955 23.9629C14.7664 24.9335 15.2538 25.8301 15.9211 26.5852"
      stroke="#344054"
      stroke-width="1.66667"
      stroke-linecap="round"
      stroke-linejoin="round"
    />
  </g>
  <defs>
    <clipPath id="clip0_5966_22058">
      <rect
        width="20"
        height="20"
        fill="white"
        transform="translate(13.4219 13)"
      />
    </clipPath>
  </defs>
</svg>
