<svg width="25" height="21" viewBox="0 0 25 21" fill="none" xmlns="http://www.w3.org/2000/svg">
<path d="M19.6875 0.85H5.3125C2.85327 0.85 0.85 2.83398 0.85 5.275V19.525C0.85 19.8713 1.13306 20.15 1.47917 20.15C1.82527 20.15 2.10833 19.8713 2.10833 19.525V17.3H22.8917V19.525C22.8917 19.8713 23.1747 20.15 23.5208 20.15C23.8669 20.15 24.15 19.8713 24.15 19.525V5.275C24.15 2.83398 22.1467 0.85 19.6875 0.85ZM5.3125 2.1H19.6875C21.4555 2.1 22.8917 3.52558 22.8917 5.275V12.25H21.275V10.975C21.275 9.05742 19.702 7.5 17.7708 7.5H15.375C14.1858 7.5 13.1337 8.09038 12.5 8.99046C11.8663 8.09038 10.8142 7.5 9.625 7.5H7.22917C5.29798 7.5 3.725 9.05742 3.725 10.975V12.25H2.10833V5.275C2.10833 3.52558 3.54452 2.1 5.3125 2.1ZM13.1292 12.25V10.975C13.1292 9.74994 14.1351 8.75 15.375 8.75H17.7708C19.0107 8.75 20.0167 9.74994 20.0167 10.975V12.25H13.1292ZM4.98333 12.25V10.975C4.98333 9.74997 5.99019 8.75 7.22917 8.75H9.625C10.864 8.75 11.8708 9.74997 11.8708 10.975V12.25H4.98333ZM2.10833 16.05V13.5H22.8917V16.05H2.10833Z" fill="#344054" stroke="#344054" stroke-width="0.3"/>
</svg>
