<svg width="28" height="22" viewBox="0 0 28 22" fill="none" xmlns="http://www.w3.org/2000/svg">
<path d="M20.475 2.11111H18.375V0.527778C18.375 0.236315 18.1399 0 17.85 0C17.5601 0 17.325 0.236315 17.325 0.527778V2.11111H14.2777C14.2647 2.11072 14.2524 2.11053 14.2393 2.11111H3.675V0.527778C3.675 0.236315 3.43993 0 3.15 0C2.86007 0 2.625 0.236315 2.625 0.527778V2.11111H0.524359C0.234622 2.1113 -0.000192137 2.34755 1.17973e-07 2.63889V10.0284C0.000192373 10.3197 0.235199 10.5557 0.525 10.5556H2.625V18.4728C2.62519 18.7641 2.8602 19.0002 3.15 19C3.43974 18.9998 3.67519 18.7636 3.675 18.4722V10.5556H17.325V18.4728C17.3252 18.7641 17.5602 19.0002 17.85 19C18.1397 18.9998 18.3752 18.7636 18.375 18.4722V10.5556H20.4756C20.7654 10.5554 21.0002 10.3191 21 10.0278V2.63824C20.9998 2.34697 20.7648 2.11092 20.475 2.11111ZM1.05 3.16667H6.53379L1.05 8.67947V3.16667ZM1.71855 9.5L8.01843 3.16667H12.9917L6.6917 9.5H1.71855ZM8.17634 9.5L14.4763 3.16667H19.2917L12.9917 9.5H8.17634ZM19.95 9.5H14.4764L19.95 3.99738V9.5Z" fill="#344054"/>
</svg>
