<svg width="27" height="28" viewBox="0 0 27 28" fill="none" xmlns="http://www.w3.org/2000/svg">
    <g clip-path="url(#clip0_4877_33228)">
    <path d="M0.125 14.1319C0.125 20.9504 5.46601 26.4747 12.0582 26.4747C18.6503 26.4747 23.9999 20.9504 23.9999 14.1319C23.9999 7.31348 18.6503 1.78906 12.0582 1.78906C5.46601 1.78906 0.125 7.31348 0.125 14.1319Z" fill="#FFDE9B"/>
    <path d="M12.0568 23.6345C11.3725 23.6345 10.7065 23.5547 10.0648 23.4077L9.62109 26.2174C10.4076 26.386 11.2221 26.4754 12.0568 26.4754C12.8942 26.4754 13.7112 26.3853 14.5002 26.2155L14.0566 23.4062C13.4124 23.5541 12.7439 23.6345 12.0568 23.6345Z" fill="#F9A83D"/>
    <path d="M12.0568 4.62999C12.7439 4.62999 13.4124 4.71043 14.0566 4.85827L14.5002 2.04892C13.7112 1.87917 12.8942 1.78906 12.0568 1.78906C11.2221 1.78906 10.4076 1.87842 9.62109 2.04711L10.0648 4.85677C10.7065 4.70986 11.3725 4.62999 12.0568 4.62999Z" fill="#F9A83D"/>
    <path d="M20.8283 11.2801L23.3986 10.2743C22.8791 8.6413 22.0402 7.1587 20.9561 5.90625L18.8281 7.70636C19.7287 8.71983 20.4195 9.93539 20.8283 11.2801Z" fill="#F9A83D"/>
    <path d="M3.29348 16.9844L0.722656 17.9904C1.24182 19.6242 2.08012 21.1073 3.16347 22.36L5.29243 20.5591C4.39247 19.5456 3.70227 18.3297 3.29348 16.9844Z" fill="#F9A83D"/>
    <path d="M5.29273 7.70708L3.16377 5.90625C2.08017 7.15899 1.24172 8.64216 0.722656 10.2758L3.29348 11.2819C3.70212 9.93665 4.39247 8.72071 5.29273 7.70708Z" fill="#F9A83D"/>
    <path d="M20.828 16.9844C20.4191 18.3293 19.7285 19.5448 18.8281 20.5581L20.9562 22.3583C22.04 21.1059 22.8788 19.6234 23.3984 17.9902L20.828 16.9844Z" fill="#F9A83D"/>
    <path d="M2.72266 14.1336C2.72266 19.4684 6.90147 23.7906 12.0592 23.7906C17.2168 23.7906 21.4024 19.4684 21.4024 14.1336C21.4024 8.79887 17.2168 4.47656 12.0592 4.47656C6.90147 4.47656 2.72266 8.79887 2.72266 14.1336Z" fill="#FFD06C"/>
    <path d="M17.0007 13.9645C14.9156 13.1313 13.5119 11.2391 12.7896 8.2884C12.6686 7.79382 11.856 7.79477 11.7348 8.28958C11.0116 11.2418 9.60734 13.1372 7.52211 13.9749C7.1021 14.1438 7.10196 14.6476 7.52197 14.8155C9.60693 15.6489 11.0108 17.5407 11.7331 20.4917C11.8541 20.9863 12.6666 20.9853 12.7878 20.4905C13.5111 17.538 14.9153 15.643 17.0004 14.8049C17.4206 14.6361 17.4206 14.1323 17.0007 13.9645Z" fill="#F3A250"/>
    <path d="M12.6853 23.7703C12.4836 23.7802 12.2722 23.7902 12.0608 23.7902C6.90178 23.7902 2.72266 19.4676 2.72266 14.1314C2.72266 8.79524 6.90178 4.47266 12.0608 4.47266C12.2722 4.47266 12.4836 4.4826 12.6853 4.49255C7.82409 4.83037 3.9812 9.01382 3.9812 14.1314C3.9812 19.2489 7.82409 23.4325 12.6853 23.7703Z" fill="#FEBC1F"/>
    <g opacity="0.2">
    <path d="M18.1902 24.7258C18.1767 24.7328 18.1632 24.7398 18.1497 24.7467C16.3753 25.8423 14.2905 26.4774 12.0506 26.4774C11.4029 26.4774 10.762 26.4215 10.148 26.3099L2.72656 6.43544C4.45369 4.20234 6.89611 2.6113 9.70946 2.03906L18.1902 24.7258Z" fill="white"/>
    <path d="M21.4011 21.814C21.4011 21.8209 21.3944 21.8279 21.3876 21.8349C20.9625 22.3792 20.5038 22.8816 19.991 23.3492L11.9961 1.79297H12.05C12.718 1.79297 13.3656 1.84877 13.9999 1.96044C14.0134 1.96044 14.0336 1.96743 14.0471 1.96743L21.4011 21.814Z" fill="white"/>
    </g>
    <path d="M11.5703 23.3787C10.7271 23.0942 10.168 22.5159 9.89297 21.6438C9.83578 21.4625 9.59258 21.4625 9.53538 21.6438C9.26033 22.5159 8.70122 23.0942 7.85801 23.3787C7.68275 23.4378 7.68275 23.6894 7.85801 23.7486C8.70122 24.0331 9.26033 24.6114 9.53538 25.4835C9.59258 25.6648 9.83578 25.6648 9.89297 25.4835C10.168 24.6114 10.7271 24.0331 11.5703 23.7486C11.7456 23.6894 11.7456 23.4378 11.5703 23.3787Z" fill="white"/>
    <path d="M21.2967 9.40208C20.6155 9.17225 20.1638 8.70502 19.9416 8.00046C19.8954 7.85401 19.6989 7.85401 19.6527 8.00046C19.4305 8.70502 18.9788 9.17225 18.2976 9.40208C18.156 9.44984 18.156 9.65309 18.2976 9.70086C18.9788 9.93072 19.4305 10.3979 19.6527 11.1025C19.6989 11.2489 19.8954 11.2489 19.9416 11.1025C20.1638 10.3979 20.6155 9.93072 21.2967 9.70086C21.4383 9.65309 21.4383 9.44984 21.2967 9.40208Z" fill="white"/>
    <path d="M10.1644 6.77734C7.91271 8.06001 6.28675 10.6145 6.12758 13.4098C5.51983 10.5962 7.27989 7.46558 10.1644 6.77734Z" fill="white"/>
    </g>
    <defs>
    <clipPath id="clip0_4877_33228">
    <rect width="24" height="25.2" fill="white" transform="translate(0 1.5)"/>
    </clipPath>
    </defs>
    </svg>
    