<svg width="22" height="19" viewBox="0 0 22 19" fill="none" xmlns="http://www.w3.org/2000/svg">
<path d="M11.75 16.5625H2V6.0625H20V9.8125H21.5V6.0625C21.4996 5.6648 21.3414 5.2835 21.0602 5.00228C20.779 4.72106 20.3977 4.5629 20 4.5625H15.5V1.5625C15.4996 1.1648 15.3414 0.783497 15.0602 0.502278C14.779 0.22106 14.3977 0.0628971 14 0.0625H8C7.6023 0.0628971 7.221 0.22106 6.93978 0.502278C6.65856 0.783497 6.5004 1.1648 6.5 1.5625V4.5625H2C1.6023 4.5629 1.221 4.72106 0.939778 5.00228C0.65856 5.2835 0.500397 5.6648 0.5 6.0625V16.5625C0.500397 16.9602 0.65856 17.3415 0.939778 17.6227C1.221 17.9039 1.6023 18.0621 2 18.0625H11.75V16.5625ZM8 1.5625H14V4.5625H8V1.5625Z" fill="#919EAB"/>
</svg>
