<svg width="40" height="42" viewBox="0 0 40 42" fill="none" xmlns="http://www.w3.org/2000/svg">
<path d="M25.1603 38.1581C24.351 38.3345 23.6807 38.2177 23.5348 37.8279C23.3492 37.3325 24.1175 36.5502 25.1573 36.0896C25.1583 36.0892 25.1594 36.0887 25.1604 36.0883C25.1705 36.0828 25.1806 36.079 25.1907 36.0752C25.2692 36.0413 25.3481 36.0109 25.4268 35.984C28.3018 34.8495 29.6654 33.3314 31.3495 30.947C33.0848 28.49 33.9524 25.935 33.9524 23.2821C33.9524 22.7093 33.8642 22.2872 33.6877 22.0159C33.5701 21.835 33.4377 21.7446 33.2907 21.7446C33.1436 21.7446 32.923 21.8501 32.6289 22.0611C31.6877 22.7545 30.4965 23.1012 29.0554 23.1012C27.3789 23.1012 25.8936 22.4003 24.5995 20.9984C23.3054 19.5966 22.6583 17.931 22.6583 16.0016C22.6583 13.9817 23.401 12.203 24.8862 10.6655C26.3715 9.12803 28.173 8.35928 30.2907 8.35928C32.7613 8.35928 34.8936 9.39936 36.6877 11.4795C38.4818 13.5597 39.3789 16.3483 39.3789 19.8453C39.3789 23.9152 38.1583 27.563 35.7171 30.7887C33.3985 33.8525 30.6737 36.2931 25.9299 37.9137C25.9008 37.9259 25.8713 37.9379 25.8415 37.9496C25.6333 38.0315 25.4271 38.0958 25.2285 38.1426L25.1603 38.1639L25.1603 38.1581ZM3.88085 38.1581C3.07161 38.3345 2.40132 38.2177 2.25536 37.8279C2.06982 37.3325 2.83815 36.5502 3.87794 36.0896C3.87895 36.0892 3.87996 36.0887 3.88097 36.0883C3.89106 36.0828 3.9012 36.079 3.91131 36.0752C3.98978 36.0413 4.06868 36.0109 4.14742 35.984C7.02241 34.8495 8.38602 33.3314 10.0701 30.947C11.8054 28.49 12.673 25.935 12.673 23.2821C12.673 22.7093 12.5848 22.2872 12.4083 22.0159C12.2907 21.835 12.1583 21.7446 12.0113 21.7446C11.8642 21.7446 11.6436 21.8501 11.3495 22.0611C10.4083 22.7545 9.21715 23.1012 7.77597 23.1012C6.0995 23.1012 4.6142 22.4003 3.32008 20.9984C2.02596 19.5966 1.37891 17.931 1.37891 16.0016C1.37891 13.9817 2.12155 12.203 3.60685 10.6655C5.09214 9.12803 6.89362 8.35928 9.01126 8.35928C11.4819 8.35928 13.6142 9.39936 15.4083 11.4795C17.2024 13.5597 18.0995 16.3483 18.0995 19.8453C18.0995 23.9152 16.8789 27.563 14.4377 30.7887C12.1191 33.8525 9.39429 36.2931 4.6505 37.9137C4.62141 37.9259 4.59191 37.9379 4.56215 37.9496C4.35392 38.0315 4.14773 38.0958 3.94912 38.1426L3.88092 38.1639L3.88085 38.1581Z" fill="#0C1E5B" fill-opacity="0.15"/>
</svg>
