<svg width="48" height="32" viewBox="0 0 48 32" fill="none" xmlns="http://www.w3.org/2000/svg">
<path d="M41.4983 22.1281H38.8631C38.7671 21.6649 38.6631 21.2121 38.5823 20.7553C38.5479 20.5649 38.4879 20.4913 38.2759 20.4945C37.2199 20.5081 36.1623 20.5049 35.1063 20.4961C34.9463 20.4953 34.8823 20.5481 34.8343 20.6937C34.6879 21.1289 34.5287 21.5601 34.3663 21.9897C34.3439 22.0481 34.2703 22.1281 34.2207 22.1281C33.2687 22.1361 32.3159 22.1345 31.3359 22.1345C31.5143 21.7049 31.6831 21.2945 31.8551 20.8841L35.5399 12.0953C35.8063 11.4609 36.2047 11.1953 36.8911 11.1953H39.2039C39.2807 11.5521 39.3575 11.9041 39.4311 12.2569C40.0359 15.1521 40.6383 18.0481 41.2439 20.9425C41.3215 21.3137 41.4135 21.6817 41.4983 22.0505V22.1281ZM38.0503 18.2433L37.2143 14.2401L37.1799 14.2329L35.7263 18.2425H38.0495L38.0503 18.2433Z" fill="url(#paint0_linear_7377_33192)"/>
<path d="M30.0213 11C30.3693 11.064 30.7197 11.1176 31.0637 11.1968C31.3781 11.2696 31.6853 11.3704 32.0197 11.4656L31.5261 13.7728C31.0861 13.6432 30.6645 13.4944 30.2317 13.3992C29.6397 13.268 29.0333 13.2184 28.4413 13.3832C28.1936 13.4535 27.9637 13.5757 27.7669 13.7416C27.4421 14.0208 27.4373 14.4216 27.7485 14.7136C27.9621 14.9152 28.2157 15.0816 28.4693 15.2336C29.0461 15.58 29.6517 15.8816 30.2117 16.252C30.8717 16.688 31.3525 17.288 31.4541 18.0984C31.6325 19.532 31.1021 20.6616 29.8981 21.4608C29.1405 21.9632 28.2837 22.188 27.3901 22.2704C26.1543 22.3874 24.9076 22.2462 23.7293 21.856C23.6493 21.8296 23.5717 21.7968 23.4941 21.7648C23.4701 21.7552 23.4501 21.7384 23.4141 21.7168L23.9253 19.3272C24.1277 19.4152 24.3189 19.5048 24.5133 19.5832C25.4445 19.9584 26.4061 20.1296 27.4013 19.9432C27.6613 19.8952 27.9253 19.78 28.1453 19.6328C28.6221 19.3128 28.6677 18.7128 28.2333 18.3368C27.9485 18.0904 27.6053 17.908 27.2805 17.7104C26.7725 17.4008 26.2325 17.1376 25.7525 16.7904C25.1365 16.3472 24.6901 15.7552 24.6061 14.9688C24.4789 13.792 24.9157 12.8352 25.8197 12.0928C26.6061 11.4464 27.5397 11.1592 28.5349 11.0392C28.5909 11.032 28.6437 11.0136 28.6981 11H30.0213Z" fill="url(#paint1_linear_7377_33192)"/>
<path d="M19.776 11.2034C19.628 11.5602 19.488 11.8994 19.3456 12.2378C17.9896 15.473 16.632 18.7074 15.2816 21.9442C15.2168 22.0986 15.1376 22.1394 14.9816 22.1378C14.1256 22.1306 13.2696 22.1282 12.4136 22.1402C12.2328 22.1426 12.1736 22.0786 12.132 21.9162C11.4064 19.0882 10.668 16.2642 9.9512 13.4346C9.8192 12.9146 9.556 12.5602 9.0616 12.3426C8.2696 11.9938 7.4472 11.749 6.6088 11.5506L6.5 11.5226C6.504 11.1946 6.504 11.1946 6.816 11.1946H11.3096C12.02 11.1946 12.5336 11.6074 12.6672 12.3106C13.048 14.3018 13.4192 16.2938 13.7952 18.2858C13.8112 18.3722 13.8304 18.4594 13.8552 18.5818C13.8944 18.509 13.9216 18.4674 13.9392 18.4234C14.8696 16.0698 15.8 13.717 16.7256 11.3626C16.776 11.2338 16.8384 11.1898 16.9768 11.1914C17.8464 11.1978 18.7152 11.1946 19.584 11.1946C19.64 11.1946 19.696 11.2002 19.776 11.2034Z" fill="url(#paint2_linear_7377_33192)"/>
<path d="M18.6414 22.1358L20.9798 11.207H23.8182C23.6998 11.7614 23.5846 12.3054 23.4678 12.8486C22.8254 15.8558 22.1798 18.8614 21.5438 21.8694C21.4998 22.079 21.4254 22.1454 21.2086 22.1414C20.431 22.1254 19.6526 22.135 18.875 22.135H18.6406L18.6414 22.1358Z" fill="url(#paint3_linear_7377_33192)"/>
<defs>
<linearGradient id="paint0_linear_7377_33192" x1="8.45754" y1="16.8641" x2="41.3143" y2="16.6481" gradientUnits="userSpaceOnUse">
<stop stop-color="#262860"/>
<stop offset="1" stop-color="#3D429B"/>
</linearGradient>
<linearGradient id="paint1_linear_7377_33192" x1="8.45806" y1="16.7816" x2="41.3157" y2="16.5648" gradientUnits="userSpaceOnUse">
<stop stop-color="#262860"/>
<stop offset="1" stop-color="#3D429B"/>
</linearGradient>
<linearGradient id="paint2_linear_7377_33192" x1="8.4584" y1="16.6826" x2="41.316" y2="16.4658" gradientUnits="userSpaceOnUse">
<stop stop-color="#262860"/>
<stop offset="1" stop-color="#3D429B"/>
</linearGradient>
<linearGradient id="paint3_linear_7377_33192" x1="8.45902" y1="16.7574" x2="41.3166" y2="16.5414" gradientUnits="userSpaceOnUse">
<stop stop-color="#262860"/>
<stop offset="1" stop-color="#3D429B"/>
</linearGradient>
</defs>
</svg>
